<svg width="122" height="104" viewBox="0 0 122 104" fill="none" xmlns="http://www.w3.org/2000/svg">
<g filter="url(#filter0_dng_97_467)">
<path d="M112.026 86.3546L32.687 90.5125L30.2687 44.3689L31.9164 44.2826L34.2481 88.7733L110.291 84.788L106.289 8.42384L30.246 12.4091L30.3095 13.6212L28.6618 13.7076L28.5117 10.8425L107.85 6.68458L112.026 86.3546Z" fill="black"/>
<path d="M89.5478 51.0136C81.8583 51.4165 75.9565 58.0794 76.365 65.8756C76.7736 73.6718 83.3396 79.6812 91.0291 79.2782C98.7185 78.8752 104.62 72.2124 104.212 64.4162C103.803 56.62 97.2372 50.6106 89.5478 51.0136ZM90.4357 67.9558C88.9253 68.035 87.6245 66.8601 87.5436 65.3174C87.4628 63.7746 88.6336 62.4702 90.1441 62.391C91.6545 62.3119 92.9553 63.4868 93.0361 65.0295C93.117 66.5722 91.9461 67.8767 90.4357 67.9558Z" fill="#020202"/>
<path d="M68.4091 50.6849L61.9829 51.0217L56.5011 66.7509C56.4765 66.8074 56.3941 66.8117 56.3638 66.758L49.2678 51.6881L40.2877 52.1587L41.922 83.3435L45.4097 83.1607L44.171 59.5242L44.473 59.5084C44.473 59.5084 44.528 59.5055 44.5583 59.5591L55.4334 82.6354L59.0585 82.4454L67.4619 58.3588C67.4604 58.3313 67.4865 58.3023 67.5414 58.2994L67.8435 58.2836L69.0822 81.9201L72.5699 81.7373L70.9356 50.5525L68.4091 50.6849Z" fill="#555555"/>
<path d="M93.6461 14.1416L91.5315 14.2525L82.2636 40.2352C82.2391 40.2917 82.1567 40.296 82.1263 40.2424L70.1933 15.3707L60.1696 15.8961L61.8039 47.0809L70.6742 46.616L69.4355 22.9795L69.7376 22.9636C69.765 22.9622 69.7925 22.9607 69.8228 23.0144L80.6979 46.0907L84.323 45.9007L92.7264 21.8141C92.7264 21.8141 92.751 21.7575 92.8059 21.7547L93.108 21.7388L94.3467 45.3754L103.217 44.9105L101.583 13.7257L93.6461 14.1416Z" fill="#555555"/>
<path d="M19.4674 21.6479C30.0563 19.8223 40.1779 26.9437 42.0548 37.5358C42.6415 40.8476 42.3984 44.0924 41.3706 47.0744C47.4024 42.8909 50.785 35.4485 49.4153 27.7027C47.5644 17.0815 37.4428 9.96011 26.8538 11.7858C19.5676 13.0516 13.9462 18.2357 11.7835 24.7854C14.0153 23.232 16.6286 22.1282 19.4948 21.6465L19.4674 21.6479Z" fill="#1D1D1B"/>
<path d="M22.958 43.067C19.3134 32.899 24.568 21.7674 34.7076 18.1973C37.8716 17.0923 41.1078 16.8398 44.2168 17.3122C39.0383 12.0312 31.1047 9.87792 23.7244 12.5023C13.5849 16.0723 8.35773 27.2025 11.9749 37.3719C14.4895 44.3672 20.5468 49.0773 27.3776 50.1558C25.4568 48.1846 23.9277 45.8062 22.9306 43.0685L22.958 43.067Z" fill="url(#paint0_linear_97_467)"/>
<path d="M42.309 38.7104C32.1001 42.0078 21.0924 36.3693 17.747 26.1303C16.6978 22.9257 16.5275 19.6749 17.0812 16.5797C11.6694 21.5594 9.38237 29.414 11.8131 36.9108C15.1585 47.1498 26.1662 52.7883 36.3751 49.4909C43.4157 47.2158 48.2277 41.3007 49.4683 34.4954C47.4721 36.3403 45.0423 37.7936 42.2801 38.6842L42.309 38.7104Z" fill="#FF2D2D"/>
<path d="M31.3451 51.2462C20.1954 51.8305 10.6275 43.1884 10.0399 31.9762C9.45231 20.764 18.0645 11.1691 29.2141 10.5847C40.3638 10.0004 49.9318 18.6425 50.5194 29.8547C51.107 41.0669 42.4948 50.6618 31.3451 51.2462ZM29.3008 12.2376C19.0573 12.7745 11.1477 21.5867 11.6877 31.8898C12.2276 42.1929 21.0151 50.1301 31.2585 49.5933C41.5019 49.0564 49.4116 40.2442 48.8716 29.9411C48.3317 19.638 39.5717 11.6994 29.3008 12.2376Z" fill="black"/>
</g>
<defs>
<filter id="filter0_dng_97_467" x="-0.625574" y="0.0641892" width="122.251" height="104.272" filterUnits="userSpaceOnUse" color-interpolation-filters="sRGB">
<feFlood flood-opacity="0" result="BackgroundImageFix"/>
<feColorMatrix in="SourceAlpha" type="matrix" values="0 0 0 0 0 0 0 0 0 0 0 0 0 0 0 0 0 0 127 0" result="hardAlpha"/>
<feOffset dy="3.2"/>
<feGaussianBlur stdDeviation="4.8"/>
<feComposite in2="hardAlpha" operator="out"/>
<feColorMatrix type="matrix" values="0 0 0 0 0.406501 0 0 0 0 0.406501 0 0 0 0 1 0 0 0 0.25 0"/>
<feBlend mode="normal" in2="BackgroundImageFix" result="effect1_dropShadow_97_467"/>
<feBlend mode="normal" in="SourceGraphic" in2="BackgroundImageFix" result="shape"/>
<feTurbulence type="fractalNoise" baseFrequency="1.25 1.25" stitchTiles="stitch" numOctaves="3" result="noise" seed="2550" />
<feColorMatrix in="noise" type="luminanceToAlpha" result="alphaNoise" />
<feComponentTransfer in="alphaNoise" result="coloredNoise1">
<feFuncA type="discrete" tableValues="1 1 1 1 1 1 1 1 1 1 1 1 1 1 1 1 1 1 1 1 1 1 1 1 1 1 1 1 1 1 1 1 1 1 1 1 1 1 1 1 1 1 1 1 1 1 1 1 1 1 1 0 0 0 0 0 0 0 0 0 0 0 0 0 0 0 0 0 0 0 0 0 0 0 0 0 0 0 0 0 0 0 0 0 0 0 0 0 0 0 0 0 0 0 0 0 0 0 0 0 "/>
</feComponentTransfer>
<feComposite operator="in" in2="shape" in="coloredNoise1" result="noise1Clipped" />
<feFlood flood-color="rgba(0, 0, 0, 0.25)" result="color1Flood" />
<feComposite operator="in" in2="noise1Clipped" in="color1Flood" result="color1" />
<feMerge result="effect2_noise_97_467">
<feMergeNode in="shape" />
<feMergeNode in="color1" />
</feMerge>
<feBlend mode="normal" in="effect2_noise_97_467" in2="effect1_dropShadow_97_467" result="effect2_noise_97_467"/>
<feTurbulence type="fractalNoise" baseFrequency="0.138888880610466 0.138888880610466" numOctaves="3" seed="7559" />
<feDisplacementMap in="effect2_noise_97_467" scale="1.6000000238418579" xChannelSelector="R" yChannelSelector="G" result="displacedImage" width="100%" height="100%" />
<feMerge result="effect3_texture_97_467">
<feMergeNode in="displacedImage"/>
</feMerge>
</filter>
<linearGradient id="paint0_linear_97_467" x1="31.1334" y1="13.0532" x2="21.4438" y2="37.3193" gradientUnits="userSpaceOnUse">
<stop stop-color="#FF2D2D"/>
<stop offset="1" stop-color="#991B1B"/>
</linearGradient>
</defs>
</svg>
