<svg xmlns="http://www.w3.org/2000/svg" fill="#000000" class="bi bi-alarm" viewBox="0 0 48 48" id="Alarm--Streamline-Bootstrap" height="48" width="48">
  <desc>
    Alarm Streamline Icon: https://streamlinehq.com
  </desc>
  <path d="M25.5 16.5a1.5 1.5 0 0 0 -3 0v10.086l-4.287 7.14a1.5 1.5 0 1 0 2.574 1.545l4.5 -7.5A1.5 1.5 0 0 0 25.5 27z" stroke-width="3"></path>
  <path d="M19.5 0a1.5 1.5 0 0 0 0 3H21v3.21a21.003 21.003 0 0 0 -9.819 37.422l-1.806 1.806a1.5 1.5 0 0 0 2.121 2.1239999999999997l2.238 -2.238A20.91 20.91 0 0 0 24 48a20.91 20.91 0 0 0 10.266 -2.676l2.238 2.238a1.5 1.5 0 0 0 2.121 -2.1239999999999997l-1.803 -1.806A21.003 21.003 0 0 0 27 6.209999999999999V3h1.5a1.5 1.5 0 0 0 0 -3zm3.114 9.053999999999998a18 18 0 0 1 2.7720000000000002 0 18 18 0 1 1 -2.7720000000000002 0M0 10.5c0 2.259 0.9990000000000001 4.287 2.58 5.661A24.119999999999997 24.119999999999997 0 0 1 13.160999999999998 5.58 7.5 7.5 0 0 0 0 10.5M40.5 3c-2.259 0 -4.287 0.9990000000000001 -5.661 2.58a24.119999999999997 24.119999999999997 0 0 1 10.581 10.581A7.5 7.5 0 0 0 40.5 3" stroke-width="3"></path>
</svg>