<svg id="Heart-Mug--Streamline-Atlas" xmlns="http://www.w3.org/2000/svg" viewBox="-1.625 -1.625 52 52" height="52" width="52">
  <desc>
    Heart Mug Streamline Icon: https://streamlinehq.com
  </desc>
  <defs></defs>
  <path d="M2.9656249999999997 6.8859375H32.09375v20.3125a14.5640625 14.5640625 0 0 1 -14.5640625 14.5640625 14.5640625 14.5640625 0 0 1 -14.5640625 -14.5640625v-20.3125Z" fill="none" stroke="currentColor" stroke-miterlimit="10" stroke-width="3.25"/>
  <path d="m35.99375 41.864062499999996 -34.978125 0" fill="none" stroke="currentColor" stroke-miterlimit="10" stroke-width="3.25"/>
  <path d="M32.09375 16.5953125a6.8046875 7.7796875000000005 0 1 0 13.609375 0 6.8046875 7.7796875000000005 0 1 0 -13.609375 0" fill="none" stroke="currentColor" stroke-miterlimit="10" stroke-width="3.25"/>
  <path d="M21.917187499999997 18.44375a4.95625 4.95625 0 0 0 -3.8796874999999997 1.7265625A4.95625 4.95625 0 0 0 14.21875 18.44375 4.30625 4.30625 0 0 0 9.5265625 22.34375c0 5.7484375000000005 8.5109375 8.9375 8.5109375 8.9375s8.5109375 -3.1890625 8.5109375 -8.9375a4.2859375 4.2859375 0 0 0 -4.63125 -3.9Z" fill="none" stroke="currentColor" stroke-miterlimit="10" stroke-width="3.25"/>
</svg>