<svg xmlns="http://www.w3.org/2000/svg" viewBox="0 0 48 48" id="Bear-Line--Streamline-Mingcute" height="48" width="48">
  <desc>
    Bear Line Streamline Icon: https://streamlinehq.com
  </desc>
  <g fill="none" fill-rule="evenodd">
    <path d="M48 0v48H0V0h48ZM25.188 46.516l-0.024 0.004 -0.142 0.07 -0.04 0.008 -0.028 -0.008 -0.142 -0.072c-0.02 -0.006 -0.038 0 -0.048 0.012l-0.008 0.02 -0.034 0.856 0.01 0.04 0.02 0.026 0.208 0.148 0.03 0.008 0.024 -0.008 0.208 -0.148 0.024 -0.032 0.008 -0.034 -0.034 -0.854c-0.004 -0.02 -0.018 -0.034 -0.032 -0.036Zm0.528 -0.226 -0.028 0.004 -0.368 0.186 -0.02 0.02 -0.006 0.022 0.036 0.86 0.01 0.024 0.016 0.016 0.402 0.184c0.024 0.008 0.046 0 0.058 -0.016l0.008 -0.028 -0.068 -1.228c-0.006 -0.024 -0.02 -0.04 -0.04 -0.044Zm-1.43 0.004a0.046 0.046 0 0 0 -0.054 0.012l-0.012 0.028 -0.068 1.228c0 0.024 0.014 0.04 0.034 0.048l0.03 -0.004 0.402 -0.186 0.02 -0.016 0.006 -0.022 0.036 -0.86 -0.006 -0.024 -0.02 -0.02 -0.368 -0.184Z" stroke-width="2"/>
    <path fill="currentColor" d="M37 4a7 7 0 0 1 3.592 13.01A18 18 0 1 1 6 24c0 -2.48 0.5 -4.84 1.408 -6.99a7 7 0 1 1 9.6 -9.6A17.944 17.944 0 0 1 24 5.998c2.48 0 4.84 0.5 6.99 1.408A6.996 6.996 0 0 1 37 4ZM24 10a14 14 0 1 0 0 28 14 14 0 0 0 0 -28Zm0 14a3 3 0 0 1 2.024 5.216 1 1 0 0 0 0.976 0.784 2 2 0 1 1 0 4 4.98 4.98 0 0 1 -3 -1 4.98 4.98 0 0 1 -3 1 2 2 0 1 1 0 -4 1 1 0 0 0 0.976 -0.784A3 3 0 0 1 24 24ZM18 18a2 2 0 0 1 1.986 1.766L20 20v2a2 2 0 0 1 -3.986 0.234L16 22v-2a2 2 0 0 1 2 -2Zm12 0a2 2 0 0 1 2 2v2a2 2 0 1 1 -4 0v-2a2 2 0 0 1 2 -2ZM11 8a3 3 0 0 0 -1.634 5.516 18.104 18.104 0 0 1 4.15 -4.15A2.998 2.998 0 0 0 11 8Zm26 0c-1.054 0 -1.98 0.544 -2.516 1.366a18.106 18.106 0 0 1 4.15 4.15A2.998 2.998 0 0 0 37 8Z" stroke-width="2"/>
  </g>
</svg>