<svg xmlns="http://www.w3.org/2000/svg" fill="none" viewBox="0 0 48 48" id="Bed-Outline--Streamline-Ionic-Outline" height="48" width="48">
  <desc>
    Bed Outline Streamline Icon: https://streamlinehq.com
  </desc>
  <path stroke="currentColor" stroke-linecap="round" stroke-linejoin="round" d="M37.4397 22.3201h-30.24V11.4c0.0034 -1.1128 0.4469 -2.1792 1.2339 -2.9661 0.7868 -0.787 1.8532 -1.2305 2.9661 -1.2339h25.2c1.1129 0.0034 2.1793 0.4469 2.9662 1.2339 0.7869 0.7869 1.2304 1.8533 1.2338 2.9661v10.9201h-3.36Z" stroke-width="3"/>
  <path stroke="currentColor" stroke-linecap="round" stroke-linejoin="round" d="M2.16 40.7997v-11.76c0.0053 -1.7805 0.715 -3.4867 1.974 -4.7458 1.2592 -1.2592 2.9654 -1.9689 4.7461 -1.9741H39.12c1.7806 0.0052 3.4868 0.7148 4.7459 1.9741 1.2591 1.2591 1.9688 2.9653 1.9741 4.7458v11.76" stroke-width="3"/>
  <path stroke="currentColor" stroke-linecap="round" stroke-linejoin="round" d="M2.16 40.8v-0.84c0.0019 -0.6678 0.2681 -1.3075 0.7402 -1.7797 0.4722 -0.4722 1.112 -0.7384 1.7798 -0.7403h38.64c0.6677 0.0019 1.3076 0.2681 1.7798 0.7403 0.4722 0.4722 0.7383 1.1119 0.7402 1.7797v0.84" stroke-width="3"/>
  <path stroke="currentColor" stroke-linecap="round" stroke-linejoin="round" d="M8.8803 22.3203v-1.68c0.0024 -0.8904 0.3573 -1.7435 0.9868 -2.3731 0.6297 -0.6296 1.4828 -0.9844 2.3732 -0.9869h8.4c0.8904 0.0025 1.7435 0.3573 2.373 0.9869 0.6297 0.6296 0.9845 1.4827 0.9869 2.3731v1.68" stroke-width="3"/>
  <path stroke="currentColor" stroke-linecap="round" stroke-linejoin="round" d="M23.9995 22.3203v-1.68c0.0024 -0.8904 0.3573 -1.7435 0.9868 -2.3731 0.6296 -0.6296 1.4828 -0.9844 2.3732 -0.9869h8.4c0.8904 0.0025 1.7435 0.3573 2.373 0.9869 0.6296 0.6296 0.9844 1.4827 0.9869 2.3731v1.68" stroke-width="3"/>
</svg>