<svg xmlns="http://www.w3.org/2000/svg" viewBox="0 0 48 48" fill="currentColor" id="Github-Logo-Light--Streamline-Phosphor" height="48" width="48">
  <desc>
    Github Logo Light Streamline Icon: https://streamlinehq.com
  </desc>
  <path d="M45.773737499999996 11.55661875c1.13300625 -3.46790625 0.73516875 -7.2542437500000005 -1.09389375 -10.41091875 -0.23797500000000002 -0.41218125000000005 -0.6778875 -0.66598125 -1.15381875 -0.6656624999999999 -4.1312625 -0.00916875 -8.0137125 1.97334375 -10.428675 5.32528125h-5.76905625c-2.4149624999999997 -3.3519375 -6.2974125 -5.3344499999999995 -10.428675 -5.32528125 -0.47593125000000003 -0.00031874999999999997 -0.9158437500000001 0.25348125 -1.1538 0.6656624999999999 -1.8290625 3.156675 -2.22691875 6.9430125 -1.0939125 10.41091875 -1.12329375 1.8856875 -1.7259000000000002 4.03575 -1.74624375 6.23056875v1.7751000000000001c0.0081 6.30789375 4.90035 11.531812500000001 11.19418125 11.953031249999999 -1.48935 1.56279375 -2.3197125 3.639075 -2.31871875 5.79789375v2.2188749999999997H16.0120875c-3.1861687499999998 0 -5.76905625 -2.5829062499999997 -5.76905625 -5.76905625 0 -4.65669375 -3.7749937499999997 -8.43170625 -8.4316875 -8.43170625 -1.02485625 0 -1.6653937499999998 1.1094374999999999 -1.152975 1.9969875000000001 0.237825 0.41190000000000004 0.6773437499999999 0.66564375 1.152975 0.6656624999999999 3.1861499999999996 0 5.7690375 2.5828875 5.7690375 5.76905625 0 4.65669375 3.7750125000000003 8.4316875 8.43170625 8.4316875h5.7690375v3.99395625c0 1.02485625 1.1094374999999999 1.6653937499999998 1.9969875000000001 1.15295625 0.41191875 -0.23780625 0.6656624999999999 -0.677325 0.6656624999999999 -1.15295625v-8.8754625c0 -4.4410125 4.8075375000000005 -7.21665 8.653575 -4.99614375 1.7849625 1.0305374999999999 2.8845375 2.93506875 2.8845375 4.99614375v8.8754625c0 1.02485625 1.1094187500000001 1.6653937499999998 1.9969687499999997 1.15295625 0.41191875 -0.23780625 0.6656624999999999 -0.677325 0.6656624999999999 -1.15295625v-8.8754625c0.00099375 -2.15881875 -0.82936875 -4.2351 -2.31871875 -5.79789375 6.29383125 -0.42121875000000003 11.1861 -5.64511875 11.19418125 -11.953031249999999V17.787187499999998c-0.02034375 -2.1948 -0.62295 -4.34488125 -1.74624375 -6.23056875Zm-0.9163875000000001 8.00566875c0 5.14670625 -4.17253125 9.3190125 -9.3192375 9.3192375h-10.6505625c-5.14704375 0.000225 -9.3192375 -4.1722125 -9.3192375 -9.3192375V17.787187499999998c0.02323125 -1.87145625 0.58561875 -3.6965250000000003 1.619775 -5.2564875 0.27620625 -0.3665625 0.34411875 -0.84954375 0.17971875 -1.2780749999999999 -1.01544375 -2.6218125 -0.9005812499999999 -5.54698125 0.31730625 -8.081100000000001 3.1979625 0.2412375 6.0949687500000005 1.976325 7.8170625000000005 4.6818 0.24474374999999998 0.3831375 0.6681 0.61490625 1.1227500000000001 0.614625h7.1758125c0.45421875 0.00075 0.8774625 -0.23010000000000003 1.1227500000000001 -0.6124125 1.7210999999999999 -2.70684375 4.6184625 -4.4429437499999995 7.8170625000000005 -4.6840125 1.2178875 2.53411875 1.33273125 5.4592875 0.3172875 8.081100000000001 -0.16400625000000002 0.4264875 -0.09783750000000001 0.9073125000000001 0.17529375 1.27363125 1.03745625 1.5603 1.6015125 3.3873375 1.6242187499999998 5.26093125Z" stroke-width="0.1875"/>
</svg>