<svg viewBox="-1.5 -1.5 48 48" fill="none" xmlns="http://www.w3.org/2000/svg" id="Cup--Streamline-Solar-Ar" height="48" width="48">
  <desc>
    Cup Streamline Icon: https://streamlinehq.com
  </desc>
  <path d="M5.625 13.125c0 -3.5355375 0 -5.30330625 1.0983562500000001 -6.401643750000001C7.82169375 5.625 9.5894625 5.625 13.125 5.625h11.25c3.5355 0 5.303249999999999 0 6.401625 1.0983562500000001C31.875 7.82169375 31.875 9.5894625 31.875 13.125v9.375c0 5.303249999999999 0 7.954875 -1.6475625 9.602437499999999C28.579874999999998 33.75 25.928250000000002 33.75 20.625 33.75H16.875c-5.30330625 0 -7.954949999999999 0 -9.602475 -1.6475625C5.625 30.454874999999998 5.625 27.803250000000002 5.625 22.5V13.125Z" stroke="currentColor" stroke-width="3"/>
  <path d="M31.875 24.375h1.875c4.1420625 0 7.5 -3.3579375 7.5 -7.5 0 -4.1421375000000005 -3.3579375 -7.5 -7.5 -7.5h-1.875" stroke="currentColor" stroke-width="3"/>
  <path d="M31.875 24.375H5.625" stroke="currentColor" stroke-width="3"/>
  <path d="M41.25 39.375 3.75 39.375" stroke="currentColor" stroke-linecap="round" stroke-width="3"/>
</svg>