<svg xmlns="http://www.w3.org/2000/svg" fill="none" viewBox="-1 -1 48 48" id="Star-Wars-Darth-Vader--Streamline-Cyber" height="48" width="48">
  <desc>
    Star Wars Darth Vader Streamline Icon: https://streamlinehq.com
  </desc>
  <path stroke="#092f63" stroke-linecap="round" stroke-linejoin="round" stroke-miterlimit="10" d="M18.208333333333336 32.583333333333336v4.791666666666667" stroke-width="2"></path>
  <path stroke="#092f63" stroke-linecap="round" stroke-linejoin="round" stroke-miterlimit="10" d="M22.041666666666668 29.708333333333336v7.666666666666667" stroke-width="2"></path>
  <path stroke="#092f63" stroke-linecap="round" stroke-linejoin="round" stroke-miterlimit="10" d="M25.875 32.583333333333336v4.791666666666667" stroke-width="2"></path>
  <path stroke="#092f63" stroke-linecap="round" stroke-linejoin="round" stroke-miterlimit="10" d="M34.66866666666667 27.791666666666668H29.708333333333336l-7.666666666666667 -3.8333333333333335 -7.158769166666667 3.8333333333333335h-5.46825" stroke-width="2"></path>
  <path stroke="#092f63" stroke-linecap="round" stroke-linejoin="round" stroke-miterlimit="10" d="M18.208333333333336 20.125V3.1145833333333335" stroke-width="2"></path>
  <path stroke="#092f63" stroke-linecap="round" stroke-linejoin="round" stroke-miterlimit="10" d="M25.875 20.125V3.1145833333333335" stroke-width="2"></path>
  <path stroke="#092f63" stroke-linecap="round" stroke-linejoin="round" stroke-miterlimit="10" d="m29.708333333333336 42.16666666666667 -7.666666666666667 2.875 -7.666666666666667 -2.875v-6.708333333333334l7.666666666666667 -5.75 7.666666666666667 5.75V42.16666666666667Z" stroke-width="2"></path>
  <path stroke="#092f63" stroke-linecap="round" stroke-linejoin="round" stroke-miterlimit="10" d="m37.375 35.458333333333336 -5.75 -16.291666666666668 -5.75 0.9583333333333334 -3.8333333333333335 3.8333333333333335 -3.8333333333333335 -3.8333333333333335 -5.75 -0.9583333333333334 -5.75 16.291666666666668" stroke-width="2"></path>
  <path stroke="#092f63" stroke-linecap="round" stroke-linejoin="round" stroke-miterlimit="10" d="m29.708333333333336 40.25 7.666666666666667 -4.791666666666667h5.75l-5.75 -16.291666666666668V9.583333333333334l-15.333333333333334 -8.625 -15.333333333333334 8.625v9.583333333333334l-5.75 16.291666666666668h5.75l7.666666666666667 4.791666666666667" stroke-width="2"></path>
</svg>