<svg xmlns="http://www.w3.org/2000/svg" viewBox="0 0 48 48" fill="currentColor" id="Door--Streamline-Phosphor" height="48" width="48">
  <desc>
    Door Streamline Icon: https://streamlinehq.com
  </desc>
  <path d="M45.839999999999996 42.480000000000004H40.8V5.5200000000000005c0 -1.85566875 -1.50433125 -3.3600000000000003 -3.3600000000000003 -3.3600000000000003H10.56c-1.85566875 0 -3.3600000000000003 1.50433125 -3.3600000000000003 3.3600000000000003v36.96H2.16c-1.2932625 0 -2.10155625 1.4000062500000001 -1.454925 2.52 0.3001125 0.5197875000000001 0.8547187500000001 0.8400000000000001 1.454925 0.8400000000000001h43.68c1.2932625 0 2.10155625 -1.4000062500000001 1.454925 -2.52 -0.3001125 -0.5197875000000001 -0.8547187500000001 -0.8400000000000001 -1.454925 -0.8400000000000001ZM10.56 5.5200000000000005h26.880000000000003v36.96H10.56ZM32.400000000000006 24.839999999999996c0 1.93989375 -2.0999999999999996 3.1523250000000003 -3.7800000000000002 2.1823875 -1.6800000000000002 -0.96995625 -1.6800000000000002 -3.3948187499999998 0 -4.364775 0.38311874999999995 -0.22119375 0.8176125 -0.33763125 1.26 -0.3376125 1.3917187500000001 0.00005625 2.52 1.1282812500000001 2.52 2.52Z" stroke-width="0.1875"/>
</svg>