<?xml version="1.0" encoding="iso-8859-1"?>
<!-- Generator: Adobe Illustrator 23.0.5, SVG Export Plug-In . SVG Version: 6.00 Build 0)  -->
<svg version="1.1" xmlns="http://www.w3.org/2000/svg" xmlns:xlink="http://www.w3.org/1999/xlink" x="0px" y="0px"
	 viewBox="0 0 492 492" style="enable-background:new 0 0 492 492;" xml:space="preserve">
<g id="Master_Layer_2">
</g>
<g id="Layer_1">
	<g>
		<g>
			<g>
				<g>
					<g>
						<path style="fill-rule:evenodd;clip-rule:evenodd;fill:currentColor;" d="M69.716,393.73c-0.768,0-1.512-0.096-2.424-0.528
							c-2.52-1.176-3.84-3.984-3.144-6.672c5.712-22.032-1.968-52.584-2.04-52.896c-0.528-2.064,0.12-4.272,1.704-5.688
							c1.584-1.44,3.816-1.872,5.832-1.152c20.736,7.536,39.24,9.528,55.008,5.928c7.944-1.8,14.28-4.824,19.32-7.8
							c-2.208-0.528-4.416-1.128-6.6-1.752c-16.392-4.68-30.312-11.256-41.4-19.536c-13.536-10.104-22.8-22.752-27.528-37.536
							c-5.76-18.024-7.704-35.88-5.808-53.04c1.536-13.776,5.52-27.12,11.88-39.648c10.824-21.36,24.792-33.024,25.392-33.504
							c1.536-1.272,3.648-1.656,5.544-1.008c1.896,0.648,3.312,2.256,3.744,4.2c4.608,21,11.16,40.392,19.44,57.648
							c7.056,14.688,15.36,27.84,24.672,39.072c7.608,9.144,15.96,17.064,24.192,22.872c6.432,4.536,12.792,7.8,17.496,8.928
							c21.648,5.256,27.864-5.064,35.712-18.12c3.024-5.016,6.12-10.2,10.272-14.424c6.624-6.792,13.656-11.04,20.928-12.672
							c6.528-1.464,13.224-0.72,19.32,2.136c10.872,5.088,19.176,16.752,20.232,27.528l18.504,7.872
							c2.184,0.936,3.576,3.096,3.504,5.472s-1.584,4.464-3.816,5.256l-17.808,6.408c-2.808,8.76-6.024,17.496-9.552,26.04
							c-8.808,21.264-14.784,32.448-23.664,44.304c-9,12-21,20.688-35.64,25.8c-11.496,4.008-24.624,5.832-39,5.376
							c-18.936-0.6-34.872-4.92-41.28-6.912c-9,6-25.08,10.824-47.88,14.328c-9.576,1.464-18.504,2.424-24.312,2.952
							c-3.288,0.312-5.952,0.504-7.608,0.624c-0.912,0.072-1.632,0.12-2.112,0.144C70.461,393.706,70.076,393.73,69.716,393.73
							L69.716,393.73z M75.356,340.786c1.752,10.032,3.624,26.04,1.512,40.872c6.336-0.552,16.08-1.536,26.496-3.144
							c22.368-3.456,38.232-8.328,44.64-13.704c1.56-1.32,3.72-1.704,5.64-1.008c0.168,0.072,18.624,6.576,41.04,7.224
							c12.888,0.384,24.576-1.224,34.68-4.8c12.36-4.344,22.488-11.688,30.072-21.792c8.328-11.112,13.752-21.264,22.248-41.808
							c3.768-9.12,7.152-18.456,10.08-27.792c0.528-1.728,1.848-3.096,3.552-3.696l6.672-2.4l-8.472-3.6
							c-2.328-0.984-3.744-3.384-3.48-5.904c0.576-5.544-4.344-15.96-13.656-20.328c-8.592-4.032-17.976-1.2-27.12,8.16
							c-3.216,3.288-5.856,7.68-8.64,12.312c-4.272,7.128-8.712,14.472-16.032,19.488c-8.496,5.832-19.056,7.104-32.28,3.888
							c-11.04-2.688-29.4-13.44-47.832-35.64c-9.936-11.952-18.744-25.896-26.208-41.448c-7.296-15.216-13.296-32.016-17.904-50.016
							c-4.536,5.112-10.56,12.96-15.744,23.256c-5.664,11.28-9.216,23.256-10.56,35.616c-1.68,15.456,0.12,31.608,5.352,48
							c3.984,12.456,11.856,23.16,23.448,31.824c9.96,7.44,22.632,13.392,37.68,17.688c6.264,1.8,12.6,3.192,18.768,4.272
							c0.144,0.024,0.288,0.048,0.432,0.072c19.992,3.432,38.256,3.48,47.472,2.328c3.168-0.384,6.024,1.848,6.432,5.016
							c0.384,3.168-1.848,6.024-5.016,6.432c-9.624,1.2-28.248,1.224-48.744-2.064c-0.384,0.264-0.768,0.552-1.176,0.84
							c-6.096,4.32-16.296,11.544-31.488,15C111.836,347.458,94.412,346.402,75.356,340.786z"/>
					</g>
					<g>
						<path style="fill-rule:evenodd;clip-rule:evenodd;fill:currentColor;" d="M182.852,278.53c-2.16,0-4.224-1.2-5.208-3.288
							c-7.92-16.608-12.072-34.104-12.312-51.984c-0.216-14.256,2.04-28.776,6.72-43.128c7.92-24.384,19.968-39.84,20.472-40.488
							c1.44-1.824,3.84-2.616,6.072-1.992c2.232,0.624,3.888,2.52,4.176,4.848c1.92,15.36,4.32,25.8,7.8,33.888
							c3.264,7.584,7.584,13.584,14.952,20.784c4.32,4.224,7.44,6.504,10.752,8.928c6.048,4.44,12.312,9,24.984,24.6
							c2.016,2.472,1.632,6.096-0.84,8.112c-2.472,2.016-6.096,1.632-8.112-0.84c-11.736-14.424-17.136-18.384-22.848-22.56
							c-3.48-2.544-7.104-5.184-12-9.984c-13.248-12.936-19.728-24.96-23.784-46.224c-3.504,6.312-7.56,14.808-10.8,24.888
							c-4.2,13.104-6.24,26.328-6.024,39.264c0.264,16.104,4.032,31.92,11.208,46.944c1.368,2.88,0.144,6.312-2.712,7.68
							C184.508,278.362,183.669,278.53,182.852,278.53z"/>
					</g>
					<g>
						<path style="fill-rule:evenodd;clip-rule:evenodd;fill:currentColor;" d="M271.076,268.666c-4.536,0-8.208-3.672-8.208-8.208
							c0-4.512,3.672-8.208,8.208-8.208c4.512,0,8.208,3.672,8.208,8.208C279.26,264.994,275.588,268.666,271.076,268.666
							L271.076,268.666z M271.076,257.146c-1.824,0-3.312,1.488-3.312,3.312c0,1.824,1.488,3.312,3.312,3.312
							s3.312-1.488,3.312-3.312C274.388,258.634,272.9,257.146,271.076,257.146z"/>
					</g>
				</g>
				<g>
					<g>
						<g>
							<g>
								<path style="fill-rule:evenodd;clip-rule:evenodd;fill:currentColor;" d="M316.388,310.882c-3.168,0-5.76-2.568-5.76-5.76
									c-0.048-43.296,4.896-73.488,15.552-95.016c11.64-23.544,29.544-35.064,45.528-43.224c2.832-1.44,6.312-0.336,7.752,2.52
									c1.44,2.832,0.336,6.312-2.52,7.752c-9.888,5.064-17.376,10.008-23.568,15.6c-7.008,6.312-12.528,13.68-16.896,22.488
									c-9.84,19.872-14.4,48.456-14.352,89.904C322.148,308.314,319.58,310.882,316.388,310.882L316.388,310.882z"/>
							</g>
							<g>
								<path style="fill-rule:evenodd;clip-rule:evenodd;fill:currentColor;" d="M370.148,204.946c-8.232,0-17.256-2.952-28.224-7.512
									c-2.088-0.864-3.48-2.88-3.552-5.136c-0.36-11.352,1.224-21.36,4.704-29.688c3.288-7.824,8.256-14.28,14.784-19.152
									c19.296-14.424,48.168-12.264,68.784-5.424c2.064,0.696,3.576,2.472,3.888,4.632s-0.6,4.296-2.376,5.544
									c-11.184,7.872-16.008,17.352-18.072,21.408c-0.336,0.672-0.6,1.2-0.864,1.656c-0.096,0.168-0.72,1.296-1.128,2.04
									c-0.432,0.792-0.84,1.536-0.936,1.68c-9.72,17.28-18.312,25.92-28.704,28.848
									C375.74,204.586,372.98,204.946,370.148,204.946L370.148,204.946z M349.844,188.218c10.728,4.272,18.888,6.384,25.464,4.536
									c7.08-1.992,13.824-9.216,21.816-23.424c0.096-0.168,0.456-0.84,0.864-1.56c0.744-1.344,1.104-1.992,1.224-2.208
									c0.12-0.192,0.36-0.648,0.6-1.152c1.68-3.312,5.448-10.704,12.912-18.216c-6.888-1.44-13.872-2.112-20.328-1.92
									c-11.16,0.336-20.712,3.24-27.624,8.4C355.004,159.97,350.012,171.898,349.844,188.218z"/>
							</g>
						</g>
					</g>
					<g>
						<g>
							<g>
								<path style="fill-rule:evenodd;clip-rule:evenodd;fill:currentColor;" d="M321.5,248.722c-0.096,0-0.216,0-0.312,0
									c-3.168-0.168-5.616-2.88-5.448-6.072c2.904-54.024-3.24-73.944-28.56-92.664c-2.568-1.896-3.096-5.496-1.2-8.064
									c1.896-2.568,5.496-3.096,8.064-1.2c15.192,11.208,24.12,23.16,28.944,38.712c4.608,14.832,5.88,33.912,4.272,63.84
									C327.068,246.346,324.524,248.722,321.5,248.722z"/>
							</g>
							<g>
								<path style="fill-rule:evenodd;clip-rule:evenodd;fill:currentColor;" d="M297.14,180.034c-7.368,0-13.608-1.2-19.08-4.368
									c-9.36-5.4-15.552-15.864-20.76-35.016c-0.048-0.168-0.264-0.984-0.48-1.872c-0.216-0.816-0.528-2.04-0.576-2.232
									c-0.144-0.504-0.264-1.08-0.432-1.824c-1.008-4.44-3.336-14.832-12.264-25.2c-1.416-1.656-1.776-3.96-0.96-5.976
									c0.816-2.016,2.736-3.384,4.896-3.528c21.648-1.56,50.184,3.432,65.328,22.152c5.136,6.336,8.352,13.8,9.624,22.176
									c1.344,8.952,0.432,19.008-2.736,29.928c-0.624,2.16-2.472,3.768-4.704,4.104
									C308.372,179.386,302.468,180.034,297.14,180.034L297.14,180.034z M314.18,172.714L314.18,172.714L314.18,172.714
									L314.18,172.714z M258.98,111.37c5.4,9.12,7.224,17.208,8.04,20.832c0.12,0.528,0.24,1.032,0.288,1.248
									c0.072,0.24,0.264,0.96,0.648,2.424c0.216,0.816,0.408,1.56,0.456,1.728c4.272,15.744,9.024,24.384,15.408,28.056
									c5.904,3.408,14.328,3.36,25.8,1.848c3.84-15.864,1.92-28.656-5.736-38.112c-5.424-6.696-13.968-11.856-24.696-14.928
									C272.924,112.738,266.012,111.658,258.98,111.37z"/>
							</g>
						</g>
					</g>
				</g>
			</g>
		</g>
	</g>
</g>
</svg>
