<svg xmlns="http://www.w3.org/2000/svg" fill="none" viewBox="-1.5 -1.5 48 48" id="Charger-1--Streamline-Ultimate" height="48" width="48">
  <desc>
    Charger 1 Streamline Icon: https://streamlinehq.com
  </desc>
  <path stroke="currentColor" stroke-linecap="round" stroke-linejoin="round" d="M22.5 32.34375c-2.9836875 0 -5.8451625 -1.1851875 -7.954949999999999 -3.295125C12.4352625 26.938875 11.25 24.077437500000002 11.25 21.09375v-8.4375c0 -0.7459125 0.296325 -1.4613 0.8237625000000001 -1.9887374999999998C12.6012 10.140075 13.316587499999999 9.84375 14.0625 9.84375h16.875c0.745875 0 1.4613749999999999 0.296325 1.9888124999999999 0.8237625000000001S33.75 11.910337499999999 33.75 12.65625v8.4375c0 2.9836875 -1.1851875 5.8451249999999995 -3.295125 7.954875C28.345125 31.1585625 25.483687500000002 32.34375 22.5 32.34375Z" stroke-width="3"/>
  <path stroke="currentColor" stroke-linecap="round" stroke-linejoin="round" d="M16.875 30.838124999999998v4.3125c0 0.745875 0.296325 1.4613749999999999 0.8237625000000001 1.9888124999999999s1.2428625 0.8236875 1.9887374999999998 0.8236875h5.625c0.745875 0 1.4613749999999999 -0.29625 1.9888124999999999 -0.8236875S28.125 35.8965 28.125 35.150625v-4.3125" stroke-width="3"/>
  <path stroke="currentColor" stroke-linecap="round" stroke-linejoin="round" d="M16.875 9.84375V1.40625" stroke-width="3"/>
  <path stroke="currentColor" stroke-linecap="round" stroke-linejoin="round" d="M28.125 9.84375V1.40625" stroke-width="3"/>
  <path stroke="currentColor" stroke-linecap="round" stroke-linejoin="round" d="M22.5 37.96875v5.625" stroke-width="3"/>
</svg>