<svg xmlns="http://www.w3.org/2000/svg" fill="none" viewBox="-1.715 -1.715 48 48" id="Inbox-Favorite-Heart--Streamline-Core" height="48" width="48">
  <desc>
    Inbox Favorite Heart Streamline Icon: https://streamlinehq.com
  </desc>
  <g id="inbox-favorite-heart--mail-envelope-email-message-heart-favorite-like-love-important-bookmark">
    <path id="Vector" stroke="currentColor" stroke-linecap="round" stroke-linejoin="round" d="M14.326071428571428 30.24392857142857h-9.550714285714285c-0.8443468142857142 0 -1.6540882071428569 -0.3354210857142857 -2.251125642142857 -0.9324362357142856C1.9271972492857141 28.71444535 1.5917857142857141 27.904703957142853 1.5917857142857141 27.06035714285714v-22.284999999999997c0 -0.8443468142857142 0.335411535 -1.6540882071428569 0.9324457864285713 -2.251125642142857C3.1212689357142853 1.9271972492857141 3.931010328571428 1.5917857142857141 4.775357142857143 1.5917857142857141h31.835714285714282c0.8442831428571428 0 1.6541837142857139 0.335411535 2.2511033571428567 0.9324457864285713 0.5969196428571428 0.597037435 0.9324680714285714 1.4067788278571427 0.9324680714285714 2.251125642142857V15.917857142857141" stroke-width="3.43"/>
    <path id="Vector_2" stroke="currentColor" stroke-linecap="round" stroke-linejoin="round" d="m1.5917857142857141 5.6031175499999994 19.10142857142857 13.498342857142857 19.10142857142857 -13.498342857142857" stroke-width="3.43"/>
    <path id="Vector_3" stroke="currentColor" stroke-linecap="round" stroke-linejoin="round" d="M31.835714285714282 28.623618057142853c3.724778571428571 -8.261877228571427 11.142499999999998 -4.114988921428571 11.142499999999998 2.0734282357142857C42.97821428571428 38.83129414285714 31.835714285714282 42.97821428571428 31.835714285714282 42.97821428571428s-11.142499999999998 -4.146920142857143 -11.142499999999998 -12.44066492142857c0 -6.188417157142856 7.417721428571428 -10.335305464285712 11.142499999999998 -1.913931307142857Z" stroke-width="3.43"/>
  </g>
</svg>