<svg xmlns="http://www.w3.org/2000/svg" fill="none" viewBox="-1.715 -1.715 48 48" id="Potted-Flower-Tulip--Streamline-Core" height="48" width="48">
  <desc>
    Potted Flower Tulip Streamline Icon: https://streamlinehq.com
  </desc>
  <g id="potted-flower-tulip--nature-flower-plant-tree-pot">
    <path id="Vector 2250" stroke="currentColor" stroke-linecap="round" stroke-linejoin="round" d="M11.142499999999998 12.734285714285713V1.5917857142857141l11.142499999999998 6.3671428571428565 11.142499999999998 -6.3671428571428565V12.734285714285713c0 6.153843571428571 -4.988656428571428 11.142499999999998 -11.142499999999998 11.142499999999998S11.142499999999998 18.88812928571428 11.142499999999998 12.734285714285713Z" stroke-width="3.43"/>
    <path id="Vector 2251" stroke="currentColor" stroke-linecap="round" stroke-linejoin="round" d="M22.284999999999997 23.876785714285713v19.10142857142857" stroke-width="3.43"/>
    <path id="Vector 2376" stroke="currentColor" stroke-linecap="round" stroke-linejoin="round" d="M22.284999999999997 39.794642857142854v3.1835714285714283h7.9589285714285705c5.2748595 0 9.550714285714285 -4.2758547857142855 9.550714285714285 -9.550714285714285V31.835714285714282c0 -0.8791114142857142 -0.7128016428571428 -1.5917857142857141 -1.5917857142857141 -1.5917857142857141h-6.3671428571428565c-5.274700321428571 0 -9.550714285714285 4.2758547857142855 -9.550714285714285 9.550714285714285Z" stroke-width="3.43"/>
    <path id="Vector 2377" stroke="currentColor" stroke-linecap="round" stroke-linejoin="round" d="M4.775357142857143 31.835714285714282v1.5917857142857141c0 5.2748595 4.276013964285714 9.550714285714285 9.550714285714285 9.550714285714285H22.284999999999997v-3.1835714285714283c0 -5.2748595 -4.276013964285714 -9.550714285714285 -9.550714285714285 -9.550714285714285H6.3671428571428565c-0.8791114142857142 0 -1.5917857142857141 0.7126743 -1.5917857142857141 1.5917857142857141Z" stroke-width="3.43"/>
  </g>
</svg>