<svg xmlns="http://www.w3.org/2000/svg" fill="none" viewBox="-1.715 -1.715 48 48" id="Flower--Streamline-Core" height="48" width="48">
  <desc>
    Flower Streamline Icon: https://streamlinehq.com
  </desc>
  <g id="flower--nature-plant-tree-flower-petals-bloom">
    <path id="Vector" stroke="currentColor" stroke-linecap="round" stroke-linejoin="round" d="M22.284999999999997 27.856313671428566c2.637366078571428 0 4.775357142857143 -2.1237605 4.775357142857143 -4.7435214285714284s-2.137991064285714 -4.7435214285714284 -4.775357142857143 -4.7435214285714284 -4.775357142857143 2.1237605 -4.775357142857143 4.7435214285714284 2.137991064285714 4.7435214285714284 4.775357142857143 4.7435214285714284Z" stroke-width="3.43"/>
    <path id="Vector_2" stroke="currentColor" stroke-linecap="round" stroke-linejoin="round" d="M42.56434999999999 17.000144085714282c-0.6771456428571428 -2.0590703285714285 -2.1434986428571428 -3.7653054357142857 -4.0775182857142855 -4.744189978571428 -1.9337012857142857 -0.9788845428571427 -4.177164071428571 -1.1503835357142855 -6.237253142857142 -0.47686716428571424 -0.7354368357142856 0.2083965857142857 -1.4336895571428572 0.5306695214285714 -2.0693851 0.9550714285714285 0.20578605714285714 -0.7360098785714285 0.31281772857142853 -1.4961193928571426 0.31835714285714284 -2.260335714285714 0 -2.1783905857142853 -0.8653583857142857 -4.267545664285714 -2.4056975857142855 -5.807884864285714C26.55248199285714 3.1255731242857143 24.463326914285712 2.2602115549999997 22.284936328571426 2.2602115549999997c-2.1783905857142853 0 -4.267545664285714 0.8653615692857142 -5.807884864285714 2.405726237857143 -1.5403710357142857 1.5403391999999998 -2.405729421428571 3.629494278571428 -2.405729421428571 5.807884864285714 0.005539414285714285 0.7642163214285714 0.11260292142857141 1.5243258357142857 0.31835714285714284 2.260335714285714 -0.6336580571428571 -0.4355762428571428 -1.3320062857142856 -0.7686414857142856 -2.0693214285714285 -0.9869071428571428 -1.0180106357142855 -0.33236485714285713 -2.091510921428571 -0.46098114285714287 -3.1592171071428568 -0.3784629714285714 -1.0677061857142855 0.08251817142857142 -2.108702207142857 0.37451534285714283 -3.0635507857142854 0.8593414357142857 -0.9548804142857141 0.4847942571428571 -1.8048939857142856 1.1529622285714285 -2.5015230857142856 1.9662692214285713 -0.6966450178571427 0.8133388285714285 -1.226267144285714 1.7558988214285711 -1.5586351849999998 2.7739094571428566 -0.33236804071428566 1.0180106357142855 -0.46097159214285716 2.091510921428571 -0.3784629714285714 3.1592171071428568 0.08250543714285714 1.0677061857142855 0.3745057921428571 2.108702207142857 0.8593255178571428 3.063582621428571 0.48481972571428567 0.9548485785714284 1.1529685957142854 1.80486215 1.9662755885714283 2.5014912499999995 0.8133388285714285 0.6966609357142857 1.7558988214285711 1.2262798785714284 2.7739094571428566 1.5586447357142856 0.7456560999999999 0.22017579999999998 1.5154118357142856 0.34847372857142855 2.2921714285714283 0.3820285714285714 -0.5933540428571428 0.4758802571428571 -1.127716507142857 1.020971357142857 -1.5917857142857141 1.6236214285714285 -0.6338172357142856 0.8629070357142857 -1.0899911857142857 1.8431286785714283 -1.3420026999999999 2.8838063428571425 -0.2520115142857142 1.0403911428571426 -0.29483054999999997 2.1208952857142855 -0.12603759285714283 3.1781593571428566 0.16882479285714283 1.0572640714285713 0.5459188285714285 2.070594857142857 1.109442807142857 2.9807779285714284 0.5635239785714286 0.9105014285714285 1.3022080571428571 1.7000271428571427 2.1732332 2.322733714285714 1.760164807142857 1.2718367857142856 3.951066828571428 1.7980811428571426 6.096889478571429 1.4641244999999998 2.1458544857142856 -0.3336382857142857 4.073379642857143 -1.5004172142857142 5.363967664285714 -3.2469245 0.4478648285714285 -0.6242983571428571 0.8018142999999999 -1.310676357142857 1.0505785714285714 -2.0374857142857143 0.25866517857142857 0.7287194999999999 0.6234069571428571 1.4150975 1.0824142857142858 2.0374857142857143 1.2906198571428569 1.7465072857142854 3.218145014285714 2.913286214285714 5.363967664285714 3.2469245 2.1458544857142856 0.3339566428571428 4.336756507142857 -0.19228771428571428 6.096953149999999 -1.4641244999999998 0.8710251428571428 -0.6227065714285713 1.6096137142857143 -1.4122322857142855 2.1731058571428568 -2.322733714285714 0.5634921428571428 -0.9101830714285714 0.940745357142857 -1.923513857142857 1.1094746428571427 -2.9807779285714284 0.1687292857142857 -1.0572640714285713 0.12606942857142858 -2.137768214285714 -0.12606942857142858 -3.1781593571428566 -0.2518205 -1.0406776642857143 -0.7080262857142856 -2.020899307142857 -1.341875357142857 -2.8838063428571425 -0.46416471428571426 -0.6026500714285714 -0.9983679999999999 -1.1477411714285712 -1.5917857142857141 -1.6236214285714285 0.7659672857142856 -0.036133535714285715 1.524930714285714 -0.16439962857142856 2.260335714285714 -0.3820285714285714 1.0200162857142856 -0.32510631428571424 1.9655369999999996 -0.8488038142857143 2.7824414285714285 -1.540880407142857 0.8169044285714285 -0.6920765928571428 1.488638 -1.538874757142857 1.976997857142857 -2.4916858499999996 0.4880414999999999 -0.952779257142857 0.7831585714285714 -1.9927247 0.8678415714285713 -3.0599851857142855 0.084683 -1.06722865 -0.04265985714285714 -2.140665264285714 -0.37438799999999994 -3.158548557142857v0Z" stroke-width="3.43"/>
  </g>
</svg>