<svg xmlns="http://www.w3.org/2000/svg" fill="none" viewBox="0 0 48 48" id="Game-Controller-Outline--Streamline-Ionic-Outline" height="48" width="48">
  <desc>
    Game Controller Outline Streamline Icon: https://streamlinehq.com
  </desc>
  <path stroke="currentColor" stroke-miterlimit="10" d="M43.829 23.3296c-1.725 -7.7981 -4.2834 -12.7725 -8.384 -13.98464 -0.7943 -0.23168 -1.6178 -0.34725 -2.445 -0.34313 -2.521 0 -4.5103 1.49997 -9 1.49997s-6.4829 -1.49997 -9.0001 -1.49997c-0.8618 -0.00446 -1.72 0.11102 -2.55 0.34313C8.34368 10.5571 5.8068 15.5362 4.06211 23.3296 2.28086 31.29 2.60336 37.5797 6.08524 38.7872c2.4375 0.8437 4.61716 -0.901 6.68156 -3.4688 2.3438 -2.925 5.2303 -3.825 11.2332 -3.825 6.0028 0 8.7768 0.9 11.1243 3.825 2.0626 2.5697 4.3229 4.2928 6.6957 3.4838 3.8456 -1.3135 3.7912 -7.4185 2.009 -15.4726Z" stroke-width="3"/>
  <path fill="currentColor" d="M27.3752 22.8762c1.0356 0 1.875 -0.8394 1.875 -1.875 0 -1.0355 -0.8394 -1.875 -1.875 -1.875 -1.0355 0 -1.875 0.8395 -1.875 1.875 0 1.0356 0.8395 1.875 1.875 1.875Z" stroke-width="3"/>
  <path fill="currentColor" d="M31.5003 27.0012c-0.3711 0 -0.7338 -0.11 -1.0423 -0.3163 -0.3084 -0.2062 -0.5487 -0.4993 -0.6904 -0.8422 -0.1419 -0.3429 -0.1787 -0.7201 -0.106 -1.084 0.0728 -0.3638 0.2518 -0.6979 0.5145 -0.96 0.2627 -0.262 0.5972 -0.4402 0.9613 -0.512 0.364 -0.0718 0.7411 -0.0341 1.0836 0.1086 0.3426 0.1426 0.6351 0.3837 0.8406 0.6927 0.2054 0.309 0.3146 0.6719 0.3137 1.0429 -0.0013 0.4965 -0.1994 0.9722 -0.5509 1.3228 -0.3515 0.3507 -0.8276 0.5475 -1.3241 0.5475Z" stroke-width="3"/>
  <path fill="currentColor" d="M31.5002 18.751c1.0356 0 1.875 -0.8395 1.875 -1.875 0 -1.0356 -0.8394 -1.875 -1.875 -1.875 -1.0355 0 -1.875 0.8394 -1.875 1.875 0 1.0355 0.8395 1.875 1.875 1.875Z" stroke-width="3"/>
  <path fill="currentColor" d="M35.6255 22.8762c1.0356 0 1.875 -0.8394 1.875 -1.875 0 -1.0355 -0.8394 -1.875 -1.875 -1.875s-1.875 0.8395 -1.875 1.875c0 1.0356 0.8394 1.875 1.875 1.875Z" stroke-width="3"/>
  <path stroke="currentColor" stroke-linecap="round" stroke-linejoin="round" d="M14.9998 16.5015v9.0009" stroke-width="3"/>
  <path stroke="currentColor" stroke-linecap="round" stroke-linejoin="round" d="M19.5012 21.0012h-9.001" stroke-width="3"/>
</svg>