<svg xmlns="http://www.w3.org/2000/svg" viewBox="0 0 48 48" fill="currentColor" id="Guitar--Streamline-Phosphor" height="48" width="48">
  <desc>
    Guitar Streamline Icon: https://streamlinehq.com
  </desc>
  <path d="M47.0671875 8.642737499999999 39.35574375 0.93129375c-0.8399812499999999 -0.8392312500000001 -2.273475 -0.4544625 -2.58028125 0.6926062500000001 -0.1423875 0.5323687500000001 0.01003125 1.10025 0.39988124999999997 1.48974375l0.45110625 0.45110625 -11.599931250000001 11.59801875c-4.3936125 -2.28645 -9.3135 -2.09559375 -12.293981249999998 0.8829562500000001 -0.7865437499999999 0.78991875 -1.4026687500000001 1.7328000000000001 -1.8102562500000001 2.77035 -0.25573124999999997 0.57470625 -0.8265 0.94438125 -1.45554375 0.9427125000000001 -2.81274375 0.0944625 -5.25534375 1.1027437500000001 -7.0656187500000005 2.913C1.0722749999999999 25.006425 0.092925 28.357049999999997 0.6211500000000001 32.11059375c0.5128125 3.5916187500000003 2.37705 7.1485125 5.25534375 10.01139375s6.4275 4.734825000000001 10.02489375 5.2476375c0.64464375 0.0963375 1.29534375 0.1465875 1.94713125 0.150375 2.95348125 0 5.558025000000001 -1.00828125 7.4724 -2.9226375 1.8102562500000001 -1.8102562500000001 2.8185374999999997 -4.25285625 2.913 -7.0656187500000005 -0.00065625 -0.63039375 0.37153125 -1.2015375 0.94850625 -1.4555250000000002 1.037925 -0.40685625000000003 1.9809375 -1.023075 2.77033125 -1.8102749999999999 2.9785500000000003 -2.9804625 3.16940625 -7.9042312500000005 0.8829562500000001 -12.293962500000001l11.59801875 -11.59995 0.451125 0.451125c0.8392312500000001 0.8399812499999999 2.27308125 0.45646875 2.5808999999999997 -0.6903375 0.14285625000000002 -0.53221875 -0.009075 -1.10023125 -0.39856875 -1.49008125Zm-17.28519375 23.440875c-0.49158749999999996 0.48950625000000003 -1.0790250000000001 0.8721562500000001 -1.7254500000000002 1.12395 -1.716675 0.70730625 -2.8518 2.3638125 -2.89179375 4.22008125 -0.06939375 2.01654375 -0.77113125 3.741975 -2.01075 4.9893 -1.6271250000000002 1.62519375 -4.0485187499999995 2.3037937499999996 -6.816918750000001 1.9066687500000001 -2.9419125 -0.41835 -5.88575625 -1.97221875 -8.287875 -4.37431875s-3.9559687500000003 -5.345962500000001 -4.37431875 -8.27439375c-0.385575 -2.77033125 0.28145625 -5.18979375 1.90665 -6.816918750000001 1.247325 -1.2434625000000001 2.9727562499999998 -1.9432875 4.9893 -2.0146125 1.8565874999999998 -0.039 3.5136000000000003 -1.17444375 4.2201 -2.89179375 0.2506125 -0.64985625 0.6333187499999999 -1.24066875 1.12393125 -1.73506875 1.0584 -1.0584 2.50621875 -1.5673499999999998 4.121775 -1.5673499999999998 1.2709312499999998 0.02034375 2.52493125 0.29499375 3.68799375 0.8077687499999999l-3.87114375 3.88078125c-4.72048125 0.5197499999999999 -7.10814375 5.95468125 -4.29778125 9.78286875 2.8103625 3.8281875000000003 8.7109875 3.1785000000000005 10.62110625 -1.1694375 0.25215 -0.573975 0.41535 -1.1830125 0.48395625000000003 -1.80615l3.87114375 -3.87114375c1.2569625 2.94770625 1.07574375 5.974443750000001 -0.7499437499999999 7.80976875Zm-2.00499375 -11.852493749999999c0.40747500000000003 0.40985625000000003 0.78928125 0.84444375 1.143225 1.3013062499999999l-2.9727562499999998 2.9727562499999998c-0.5671125 -1.02975 -1.4147812499999999 -1.87741875 -2.44453125 -2.44453125l2.9727562499999998 -2.9746875c0.45358124999999994 0.3549375 0.8849625000000001 0.7373624999999999 1.29166875 1.1451562499999999Zm-7.248749999999999 4.1545499999999995c1.7035125 0.00007500000000000001 3.0845812500000003 1.3810499999999999 3.0845812500000003 3.0845625 0 2.37451875 -2.5704937500000002 3.8585812500000003 -4.6268625 2.6713312499999997 -2.0563875 -1.18725 -2.0563875 -4.15539375 0 -5.34264375 0.46895625 -0.27075 1.0007812500000002 -0.41328750000000003 1.54228125 -0.41325Zm9.4176 -6.3330375000000005c-0.40905 -0.40749375 -0.83889375 -0.793575 -1.28780625 -1.15670625l4.208512499999999 -4.2104625 2.4464625 2.4464625 -4.208512499999999 4.2066c-0.36315000000000003 -0.44891250000000005 -0.74923125 -0.87875625 -1.156725 -1.287825Zm7.5475875 -5.1030375L35.04890625 10.505062500000001l4.7579625000000005 -4.75989375 2.4464625 2.4464625ZM16.992543750000003 37.17316875c0.8399812499999999 0.8392312500000001 0.45646875 2.2730625 -0.6903187500000001 2.5808999999999997 -0.5322375 0.14285625000000002 -1.10025 -0.009075 -1.49008125 -0.39856875l-6.1691625000000005 -6.16914375c-0.8392312500000001 -0.8399812499999999 -0.4544625 -2.273475 0.6926062500000001 -2.5803 0.53235 -0.1423875 1.10025 0.01005 1.489725 0.39988124999999997Z" stroke-width="0.1875"></path>
</svg>