<svg xmlns="http://www.w3.org/2000/svg" fill="none" viewBox="0 0 48 48" id="Sick--Streamline-Sharp-Material" height="48" width="48">
  <desc>
    Sick Streamline Icon: https://streamlinehq.com
  </desc>
  <path fill="currentColor" d="M4.25 20.75C5.01667 15.9833 7.25833 12 10.975 8.8 14.6917 5.6 19.0333 4 24 4c2.5 0 4.85 0.425 7.05 1.275 2.2 0.85 4.1833 2.025 5.95 3.525 -0.3333 0.56667 -0.6083 1.075 -0.825 1.525 -0.2167 0.45 -0.3917 0.875 -0.525 1.275 -1.5333 -1.4333 -3.2917 -2.55833 -5.275 -3.375C28.3917 7.40833 26.2667 7 24 7c-3.7333 0 -7.05 1.06667 -9.95 3.2 -2.9 2.1333 -4.93333 4.8667 -6.1 8.2 -0.73333 0.1667 -1.41667 0.4417 -2.05 0.825 -0.63333 0.3833 -1.18333 0.8917 -1.65 1.525ZM24 44c-4.9667 0 -9.3083 -1.6083 -13.025 -4.825C7.25833 35.9583 5.01667 31.9667 4.25 27.2c0.43333 0.6667 0.96667 1.2 1.6 1.6 0.63333 0.4 1.33333 0.6833 2.1 0.85 1.16667 3.3333 3.2083 6.0583 6.125 8.175C16.9917 39.9417 20.3 41 24 41c4.7333 0 8.75 -1.6583 12.05 -4.975C39.35 32.7083 41 28.7 41 24c0 -0.5667 -0.0333 -1.1333 -0.1 -1.7 -0.0667 -0.5667 -0.15 -1.1333 -0.25 -1.7 0.2333 0.0667 0.4583 0.1083 0.675 0.125 0.2167 0.0167 0.4417 0.025 0.675 0.025 0.3 0 0.5917 -0.0167 0.875 -0.05s0.5583 -0.0833 0.825 -0.15c0.1 0.5667 0.175 1.1333 0.225 1.7 0.05 0.5667 0.075 1.15 0.075 1.75 0 2.7333 -0.525 5.3167 -1.575 7.75 -1.05 2.4333 -2.475 4.5583 -4.275 6.375 -1.8 1.8167 -3.9167 3.25 -6.35 4.3C29.3667 43.475 26.7667 44 24 44Zm-7.2 -21.15L20.65 19l-3.9 -3.9L15 16.85l2.15 2.1L15 21.1l1.8 1.75Zm25.2 -5.1c-1.0333 0 -1.9167 -0.3667 -2.65 -1.1 -0.7333 -0.7333 -1.1 -1.6167 -1.1 -2.65 0 -0.8667 0.225 -1.7667 0.675 -2.7 0.45 -0.9333 1.475 -2.55 3.075 -4.85 1.6 2.3 2.625 3.9167 3.075 4.85 0.45 0.9333 0.675 1.8333 0.675 2.7 0 1.0333 -0.3667 1.9167 -1.1 2.65 -0.7333 0.7333 -1.6167 1.1 -2.65 1.1ZM31.25 22.9l1.8 -1.8 -2.15 -2.15 2.1 -2.1 -1.75 -1.75 -3.9 3.9 3.9 3.9ZM24 27.15c-0.8667 0 -1.7167 0.1 -2.55 0.3 -0.8333 0.2 -1.6333 0.5 -2.4 0.9l-7.3 -4.2c0 -0.5333 -0.1167 -1.025 -0.35 -1.475 -0.2333 -0.45 -0.5667 -0.8083 -1 -1.075 -0.66667 -0.3667 -1.36667 -0.4583 -2.1 -0.275 -0.73333 0.1833 -1.3 0.6083 -1.7 1.275 -0.36667 0.6667 -0.45 1.3667 -0.25 2.1 0.2 0.7333 0.63333 1.3 1.3 1.7 0.46667 0.2667 0.94167 0.3833 1.425 0.35 0.48333 -0.0333 0.9583 -0.1833 1.425 -0.45l6.25 3.65c-0.6 0.5667 -1.1417 1.1833 -1.625 1.85 -0.4833 0.6667 -0.8917 1.4 -1.225 2.2h2.65c0.7333 -1.4 1.775 -2.4833 3.125 -3.25 1.35 -0.7667 2.8083 -1.15 4.375 -1.15s3.0083 0.3833 4.325 1.15c1.3167 0.7667 2.3583 1.85 3.125 3.25h2.6c-0.8333 -2.0667 -2.1667 -3.725 -4 -4.975 -1.8333 -1.25 -3.8667 -1.875 -6.1 -1.875Z" stroke-width="1"></path>
</svg>