<svg role="img" viewBox="0 0 48 48" xmlns="http://www.w3.org/2000/svg" id="Huggingface--Streamline-Simple-Icons" height="48" width="48">
  <desc>
    Huggingface Streamline Icon: https://streamlinehq.com
  </desc>
  <title>Hugging Face</title>
  <path d="M2.8892 23.0118c0 2.2042 0.3346 4.317 0.9694 6.3126 -0.0756 -0.0056 -0.1382 -0.0116 -0.2116 -0.0116 -0.8418 0 -1.603 0.32 -2.1408 0.9024 -0.6908 0.7474 -0.9968 1.667 -0.8632 2.586a3.152 3.152 0 0 0 0.4296 1.1956c-0.4638 0.3728 -0.8036 0.8912 -0.9688 1.5156 -0.1292 0.4896 -0.262 1.5086 0.4298 2.5588a2.9104 2.9104 0 0 0 -0.125 0.211c-0.416 0.7846 -0.4414 1.6744 -0.0742 2.5 0.5566 1.2516 1.9392 2.235 4.6252 3.2934 1.6712 0.6584 3.1976 1.0822 3.2112 1.086 2.2092 0.5694 4.208 0.8554 5.938 0.8554 2.8346 0 4.9508 -0.7698 6.305 -2.2892 3.076 0.5302 5.582 0.2806 7.184 0.012 1.3546 1.511 3.4664 2.2774 6.2934 2.2774 1.7298 0 3.7286 -0.286 5.938 -0.8556 0.0136 -0.0038 1.54 -0.4276 3.2112 -1.086 2.686 -1.0584 4.0686 -2.0416 4.6252 -3.2932 0.3672 -0.8258 0.342 -1.7154 -0.074 -2.5a2.937 2.937 0 0 0 -0.1252 -0.2112c0.692 -1.05 0.559 -2.0692 0.4298 -2.5586 -0.1652 -0.6244 -0.505 -1.1428 -0.9688 -1.5158 0.22 -0.3632 0.3662 -0.7576 0.4296 -1.1954 0.1338 -0.919 -0.1724 -1.8386 -0.8632 -2.586 -0.5376 -0.5826 -1.299 -0.9026 -2.1408 -0.9026 -0.0418 0 -0.0752 0.0016 -0.1176 0.0036 0.6324 -1.9932 0.9692 -4.1036 0.9692 -6.3046 0 -11.614 -9.4724 -21.0288 -21.1578 -21.0288 -11.6852 0 -21.1576 9.4146 -21.1576 21.0288Zm21.1576 -18.9662c10.5454 0 19.0952 8.492 19.0952 18.966a18.8402 18.8402 0 0 1 -0.5392 4.473c-0.0078 -0.0094 -0.0158 -0.022 -0.0234 -0.0312 -0.548 -0.651 -1.3358 -1.0118 -2.215 -1.0118 -0.704 0 -1.428 0.231 -2.1526 0.6876 -0.4806 0.3034 -1.0116 0.844 -1.5586 1.5196 -0.5068 -0.6984 -1.216 -1.1664 -2.0274 -1.293a3.0348 3.0348 0 0 0 -0.4688 -0.0352c-1.8526 0 -2.9656 1.5986 -3.387 3.0354 -0.2092 0.4852 -1.213 2.6964 -2.7228 4.1956 -2.3362 2.3202 -2.8916 4.7068 -1.6792 7.2764 -1.686 0.2058 -3.1672 0.1854 -4.73 -0.012 1.1812 -2.424 0.7252 -4.8776 -1.6852 -7.2644 -1.51 -1.4992 -2.5136 -3.7104 -2.7228 -4.1956 -0.4214 -1.4368 -1.5346 -3.0354 -3.387 -3.0354 -0.156 0 -0.3136 0.0108 -0.4688 0.0352 -0.8114 0.1266 -1.5208 0.5946 -2.0274 1.293 -0.547 -0.6758 -1.078 -1.2162 -1.5588 -1.5196 -0.7244 -0.4566 -1.4486 -0.6876 -2.1524 -0.6876 -0.8532 0 -1.6188 0.342 -2.1642 0.9572a18.8416 18.8416 0 0 1 -0.5196 -4.3872c0 -10.474 8.5498 -18.966 19.095 -18.966zM17.2886 14.0072c-0.9676 0.0086 -1.9006 0.5334 -2.3868 1.4454 -0.7072 1.3266 -0.2012 2.9746 1.129 3.68 0.702 0.3724 0.9766 -1.0522 1.672 -1.297 0.6214 -0.219 1.682 0.798 2.0156 0.172 0.7072 -1.3268 0.205 -2.9748 -1.125 -3.68a2.7318 2.7318 0 0 0 -1.3048 -0.3204Zm13.6806 0c-0.4398 -0.004 -0.8852 0.1 -1.3008 0.3204 -1.33 0.7052 -1.8362 2.3532 -1.129 3.68 0.3338 0.626 1.3942 -0.391 2.0158 -0.172 0.6952 0.2448 0.9734 1.6694 1.676 1.297 1.3298 -0.7054 1.832 -2.3534 1.1248 -3.68 -0.486 -0.912 -1.4192 -1.4368 -2.3868 -1.4454Zm-19.513 2.836a1.7536 1.7536 0 0 0 -1.754 1.754c0 0.9692 0.785 1.754 1.754 1.754a1.7536 1.7536 0 0 0 1.754 -1.754 1.7536 1.7536 0 0 0 -1.754 -1.754zm25.2868 0c-0.969 0 -1.758 0.785 -1.758 1.754 0 0.9692 0.789 1.754 1.758 1.754a1.7536 1.7536 0 0 0 1.754 -1.754 1.7536 1.7536 0 0 0 -1.754 -1.754zM17.5854 22.918c-0.358 -0.006 -0.5586 0.2214 -0.5586 0.832 0 1.6194 0.7748 4.25 2.8558 5.848 0.414 -1.4246 2.6906 -2.5664 3.0158 -2.4024 0.463 0.2334 0.4382 0.8834 1.2148 1.4532 0.7768 -0.57 0.748 -1.2196 1.2112 -1.4532 0.3254 -0.164 2.6018 0.9778 3.0158 2.4024 2.0808 -1.598 2.8556 -4.2288 2.8556 -5.848 0 -2.4424 -3.166 1.2804 -7.0826 1.297 -2.9372 -0.0122 -5.4532 -2.1116 -6.5278 -2.129zM8.624 28.9536c1.1584 0.73 3.3928 4.5502 4.2112 6.0354 0.2742 0.4976 0.742 0.7072 1.164 0.7072 0.8376 0 1.493 -0.8276 0.0782 -1.879 -2.1272 -1.582 -1.3828 -4.1692 -0.3672 -4.3284a0.8604 0.8604 0 0 1 0.1328 -0.008c0.9232 0 1.332 1.5784 1.332 1.5784s1.1918 2.9796 3.2426 5.016c1.884 1.8712 2.124 3.406 0.9922 5.3322 -0.0328 -0.008 -0.0318 0.0472 -0.2968 0.4298 -0.3706 0.5346 -0.8644 0.9376 -1.4376 1.2304 -1.0124 0.4538 -2.2794 0.5392 -3.5666 0.5392 -2.074 0 -4.2034 -0.3648 -5.395 -0.672 -0.0586 -0.015 -7.301 -1.9134 -6.3832 -3.6448 0.1542 -0.2908 0.4066 -0.4062 0.7266 -0.4062 1.2926 0 3.646 1.9102 4.6566 1.9102 0.226 0 0.392 -0.173 0.457 -0.4062 0.4498 -1.609 -6.5574 -2.1044 -5.9692 -4.3284 0.1038 -0.3934 0.386 -0.5514 0.7814 -0.5508 1.708 0 5.5408 2.9846 6.344 2.9846 0.0614 0 0.105 -0.017 0.129 -0.0548 0.4024 -0.6454 0.2192 -1.173 -2.6174 -2.879 -2.8364 -1.7066 -4.863 -2.658 -3.7306 -3.8832 0.1302 -0.1414 0.3148 -0.203 0.539 -0.203 1.7222 0.0004 5.7896 3.68 5.7896 3.68s1.0974 1.1366 1.7618 1.1366c0.1524 0 0.2832 -0.063 0.371 -0.2108 0.471 -0.7892 -4.3716 -4.4366 -4.6448 -5.942 -0.1852 -1.02 0.1282 -1.5352 0.711 -1.5352 -0.0012 0.016 0.3402 -0.057 0.9884 0.3518zm32.4514 1.1836c-0.2732 1.5052 -5.1158 5.1528 -4.6448 5.9418 0.088 0.148 0.2184 0.211 0.371 0.211 0.6642 0 1.762 -1.1368 1.762 -1.1368s4.0672 -3.6794 5.7894 -3.68c0.2242 0 0.4088 0.0616 0.539 0.2032 1.1324 1.225 -0.894 2.1764 -3.7306 3.883 -2.8366 1.706 -3.02 2.2336 -2.6174 2.8792 0.024 0.0376 0.0674 0.0546 0.1288 0.0546 0.8032 0 4.6362 -2.9846 6.3442 -2.9846 0.3954 -0.0004 0.6776 0.1574 0.7814 0.5508 0.588 2.224 -6.419 2.7194 -5.9692 4.3284 0.065 0.2332 0.2312 0.4064 0.457 0.4064 1.0108 0 3.364 -1.9104 4.6566 -1.9104 0.32 0 0.5724 0.1154 0.7266 0.4064 0.918 1.7312 -6.3246 3.6298 -6.3832 3.6448 -1.1916 0.307 -3.321 0.672 -5.395 0.672 -1.2702 0 -2.522 -0.0818 -3.5276 -0.5198 -0.5898 -0.2944 -1.0976 -0.7032 -1.4766 -1.25 -0.0822 -0.1364 -0.2052 -0.2952 -0.2852 -0.41 -1.1452 -1.9358 -0.91 -3.4742 0.9806 -5.352 2.0508 -2.0364 3.2424 -5.016 3.2424 -5.016s0.4088 -1.5782 1.332 -1.5782a0.8636 0.8636 0 0 1 0.133 0.0078c1.0156 0.1592 1.76 2.7464 -0.3672 4.3284 -1.4148 1.0514 -0.7594 1.879 0.078 1.879 0.422 0 0.89 -0.2094 1.1642 -0.707 0.8184 -1.4852 3.0528 -5.3054 4.2112 -6.0356 1.1176 -0.7048 1.98 -0.3632 1.6994 1.1836z" fill="currentColor" stroke-width="2"></path>
</svg>