<svg id="Magnifying-Glass-Heart--Streamline-Atlas" xmlns="http://www.w3.org/2000/svg" viewBox="-1.5 -1.5 48 48" height="48" width="48">
  <desc>
    Magnifying Glass Heart Streamline Icon: https://streamlinehq.com
  </desc>
  <defs></defs>
  <path d="M22.9875 12.206249999999999a4.95 4.95 0 0 0 -4.06875 2.1 4.95 4.95 0 0 0 -4.06875 -2.1A4.78125 4.78125 0 0 0 9.975000000000001 16.875c0 7.05 8.94375 10.95 8.94375 10.95s8.94375 -3.8625000000000003 8.94375 -10.95a4.78125 4.78125 0 0 0 -4.875 -4.66875Z" fill="none" stroke="currentColor" stroke-miterlimit="10" stroke-width="3"></path>
  <path d="M2.8125 18.91875a16.10625 16.10625 0 1 0 32.2125 0 16.10625 16.10625 0 1 0 -32.2125 0" fill="none" stroke="currentColor" stroke-miterlimit="10" stroke-width="3"></path>
  <path d="m42.1875 42.1875 -12.524999999999999 -12.524999999999999" fill="none" stroke="currentColor" stroke-miterlimit="10" stroke-width="3"></path>
</svg>