<svg xmlns="http://www.w3.org/2000/svg" viewBox="0 0 48 48" id="Doll-Voodoo--Streamline-Nasty" height="48" width="48">
  <desc>
    Doll Voodoo Streamline Icon: https://streamlinehq.com
  </desc>
  <g>
    <path d="M21.96 11.920000000000002A2 2 0 1 0 24 13.92a1.984 1.984 0 0 0 -2 -2Zm0 2.4000000000000004a0.4 0.4 0 1 1 0.4 -0.4 0.376 0.376 0 0 1 -0.4 0.4Z" fill="currentColor" fill-rule="evenodd" stroke-width="0.8"></path>
    <path d="M29.6 13.92a2 2 0 1 0 -2 2 1.984 1.984 0 0 0 2 -2Zm-2 0.4a0.4 0.4 0 1 1 0.4 -0.4 0.376 0.376 0 0 1 -0.4 0.4Z" fill="currentColor" fill-rule="evenodd" stroke-width="0.8"></path>
    <path d="M40 29.52a3.3360000000000003 3.3360000000000003 0 0 0 -2.72 1.4400000000000002L32.800000000000004 29.52v-1.6a2.032 2.032 0 0 1 0.8800000000000001 -1.8399999999999999l7.120000000000001 -3.9200000000000004a3.408 3.408 0 0 0 1.6800000000000002 -4 3.64 3.64 0 0 0 -3.44 -2.8800000000000003 3.944 3.944 0 0 0 -1.8399999999999999 0.48l-4.5600000000000005 2.4000000000000004a7.824 7.824 0 0 0 0.7200000000000001 -3.28c0 -2.8000000000000003 -1.2000000000000002 -6 -4.16 -7.6000000000000005l1.2800000000000002 -1.36a3.912 3.912 0 0 0 1.52 0.4 3.2 3.2 0 1 0 -3.2 -3.2 3.808 3.808 0 0 0 0.5599999999999999 1.8399999999999999l-1.6800000000000002 1.7600000000000002a10 10 0 0 0 -2.8800000000000003 -0.4c-6.4 0 -8.64 4.64 -8.64 8.56a7.824 7.824 0 0 0 0.7200000000000001 3.28l-4.5600000000000005 -2.4000000000000004a3.7200000000000006 3.7200000000000006 0 0 0 -1.8399999999999999 -0.48 3.64 3.64 0 0 0 -3.44 2.8800000000000003 3.504 3.504 0 0 0 1.6800000000000002 4l7.120000000000001 3.9200000000000004a2.032 2.032 0 0 1 0.8800000000000001 1.8399999999999999 49.344 49.344 0 0 1 -0.48 8.56l-5.28 -0.48a2.8800000000000003 2.8800000000000003 0 0 0 -2.9600000000000004 -2.4800000000000004 3.2 3.2 0 1 0 0 6.4 3.096 3.096 0 0 0 3.04 -2.32l5.04 0.48c-0.24 1.52 -0.5599999999999999 3.3600000000000003 -0.96 5.760000000000001a3.696 3.696 0 0 0 0.7200000000000001 3.12 3.2 3.2 0 0 0 2.4800000000000004 1.1199999999999999h0.16000000000000003c2.08 -0.08000000000000002 3.04 -1.4400000000000002 3.7600000000000002 -2.8800000000000003 0.24 -0.4 0.4 -0.8800000000000001 0.6400000000000001 -1.36 0.48 -1.1199999999999999 1.2000000000000002 -2.9600000000000004 1.92 -2.9600000000000004s1.4400000000000002 1.8399999999999999 1.92 2.9600000000000004c0.24 0.48 0.4 0.96 0.6400000000000001 1.36 0.7200000000000001 1.4400000000000002 1.6800000000000002 2.8000000000000003 3.7600000000000002 2.8800000000000003h0.16000000000000003a3.28 3.28 0 0 0 2.4800000000000004 -1.1199999999999999 3.696 3.696 0 0 0 0.7200000000000001 -3.12c-1.2000000000000002 -7.359999999999999 -1.52 -9.440000000000001 -1.6 -12.56l4 1.2800000000000002v0.24a3.2 3.2 0 0 0 6.4 0 3.3520000000000003 3.3520000000000003 0 0 0 -3.28 -3.28Zm-8 -28a1.6 1.6 0 0 1 0 3.2 1.7120000000000002 1.7120000000000002 0 0 1 -0.96 -0.32000000000000006v-0.08000000000000002l-0.08000000000000002 -0.08000000000000002a1.2080000000000002 1.2080000000000002 0 0 1 -0.5599999999999999 -1.1199999999999999 1.6 1.6 0 0 1 1.6 -1.6Zm-24 36.800000000000004a1.6 1.6 0 1 1 1.6 -1.6 1.6 1.6 0 0 1 -1.6 1.6Zm24.8 5.760000000000001a2.096 2.096 0 0 1 -0.32000000000000006 1.7600000000000002 1.7440000000000002 1.7440000000000002 0 0 1 -1.2800000000000002 0.5599999999999999h-0.08000000000000002c-1.1199999999999999 -0.08000000000000002 -1.6800000000000002 -0.5599999999999999 -2.4000000000000004 -2 -0.16000000000000003 -0.32000000000000006 -0.32000000000000006 -0.8 -0.5599999999999999 -1.2800000000000002 -0.6400000000000001 -1.52 -1.36 -3.28 -2.5600000000000005 -3.7600000000000002v-2.64h1.6a0.8 0.8 0 0 0 0 -1.6h-1.6v-4h1.6a0.8 0.8 0 0 0 0 -1.6h-1.6v-3.2h1.6a0.8 0.8 0 0 0 0 -1.6h-1.6v-2.4000000000000004a0.8 0.8 0 0 0 -1.6 0v2.4000000000000004h-1.6a0.8 0.8 0 1 0 0 1.6h1.6v3.2h-1.6a0.8 0.8 0 1 0 0 1.6h1.6v4h-1.6a0.8 0.8 0 1 0 0 1.6h1.6v2.5600000000000005c-1.2000000000000002 0.5599999999999999 -1.92 2.2399999999999998 -2.5600000000000005 3.7600000000000002a10.096 10.096 0 0 1 -0.5599999999999999 1.2800000000000002c-0.7200000000000001 1.52 -1.36 2 -2.4800000000000004 2a1.6 1.6 0 0 1 -1.2800000000000002 -0.5599999999999999A2.096 2.096 0 0 1 16.8 44c0.4 -2.4800000000000004 0.7200000000000001 -4.32 0.96 -5.84l1.36 0.16000000000000003h0.08000000000000002a0.8480000000000001 0.8480000000000001 0 0 0 0.8 -0.7200000000000001 0.8720000000000001 0.8720000000000001 0 0 0 -0.7200000000000001 -0.8800000000000001l-1.2800000000000002 -0.16000000000000003a59.112 59.112 0 0 0 0.4 -8.64 3.7439999999999998 3.7439999999999998 0 0 0 -1.6800000000000002 -3.28L9.600000000000001 20.72a1.888 1.888 0 0 1 -0.96 -2.16 2.136 2.136 0 0 1 1.92 -1.6800000000000002 1.7600000000000002 1.7600000000000002 0 0 1 1.04 0.32000000000000006l8 4.32a1.184 1.184 0 0 0 0.5599999999999999 0.08000000000000002 0.8720000000000001 0.8720000000000001 0 0 0 0.6400000000000001 -0.6400000000000001 0.8 0.8 0 0 0 -0.32000000000000006 -0.8 6.4 6.4 0 0 1 -2.72 -5.2c0 -1.6 0.48 -6.96 7.040000000000001 -6.96a10.888 10.888 0 0 1 1.6800000000000002 0.16000000000000003l-1.8399999999999999 2a0.8 0.8 0 0 0 1.2000000000000002 1.1199999999999999l2.4000000000000004 -2.64c3.3600000000000003 1.4400000000000002 3.6799999999999997 5.04 3.6799999999999997 6.32a6.4 6.4 0 0 1 -2.72 5.2 0.8 0.8 0 0 0 -0.32000000000000006 0.8 0.8720000000000001 0.8720000000000001 0 0 0 0.6400000000000001 0.6400000000000001 1.016 1.016 0 0 0 0.48 -0.08000000000000002l8.08 -4.32a3.056 3.056 0 0 1 1.04 -0.32000000000000006 2.136 2.136 0 0 1 1.92 1.6800000000000002 1.7920000000000003 1.7920000000000003 0 0 1 -0.96 2.16l-7.120000000000001 3.9200000000000004a3.632 3.632 0 0 0 -1.7600000000000002 3.28v1.04l-1.6 -0.48a0.8 0.8 0 1 0 -0.5599999999999999 1.52l2.08 0.6400000000000001c0.16000000000000003 3.6 0.4 5.5200000000000005 1.6800000000000002 13.440000000000001Zm7.2 -9.76a1.6 1.6 0 1 1 1.6 -1.6 1.6 1.6 0 0 1 -1.6 1.6Z" fill="currentColor" fill-rule="evenodd" stroke-width="0.8"></path>
  </g>
</svg>