<svg id="Basket--Streamline-Atlas" xmlns="http://www.w3.org/2000/svg" viewBox="-1.5 -1.5 48 48" height="48" width="48">
  <desc>
    Basket Streamline Icon: https://streamlinehq.com
  </desc>
  <defs></defs>
  <path d="m2.04375 20.79375 40.9125 0" fill="none" stroke="currentColor" stroke-miterlimit="10" stroke-width="3"></path>
  <path d="M33.24375 41.25H11.75625a3.4125 3.4125 0 0 1 -3.375 -2.85l-2.9250000000000003 -17.606250000000003h34.0875l-2.9250000000000003 17.606250000000003a3.4125 3.4125 0 0 1 -3.375 2.85Z" fill="none" stroke="currentColor" stroke-miterlimit="10" stroke-width="3"></path>
  <path d="m22.5 31.03125 -8.5125 -10.2375 17.04375 0L22.5 31.03125z" fill="none" stroke="currentColor" stroke-miterlimit="10" stroke-width="3"></path>
  <path d="m29.325000000000003 34.425 8.5125 0" fill="none" stroke="currentColor" stroke-miterlimit="10" stroke-width="3"></path>
  <path d="m31.03125 27.618750000000002 6.8062499999999995 0" fill="none" stroke="currentColor" stroke-miterlimit="10" stroke-width="3"></path>
  <path d="m15.674999999999999 34.425 -8.5125 0" fill="none" stroke="currentColor" stroke-miterlimit="10" stroke-width="3"></path>
  <path d="m13.96875 27.618750000000002 -6.8062499999999995 0" fill="none" stroke="currentColor" stroke-miterlimit="10" stroke-width="3"></path>
  <path d="M22.5 3.75a11.925 11.925 0 0 1 11.925 11.925v5.11875H10.575V15.674999999999999A11.925 11.925 0 0 1 22.5 3.75Z" fill="none" stroke="currentColor" stroke-miterlimit="10" stroke-width="3"></path>
</svg>