<svg width="480" height="480" viewBox="0 0 480 480" fill="none" xmlns="http://www.w3.org/2000/svg">
<path fill-rule="evenodd" clip-rule="evenodd" d="M25.2543 0.869817C3.55431 5.16382 -6.97269 30.4308 5.04531 49.3798L7.91031 53.8978V264.409V474.92L10.3653 477.374C12.7993 479.809 12.9733 479.829 31.6153 479.797C51.8513 479.763 52.9393 479.512 54.8713 474.432C55.5133 472.742 55.9103 459.131 55.9103 438.764C55.9103 420.65 56.0313 405.829 56.1783 405.829C56.3263 405.829 61.3883 406.949 67.4283 408.318C83.1823 411.888 97.1873 413.815 114.91 414.849C146.125 416.67 200.075 411.611 248.41 402.33C273.367 397.538 316.922 390.275 331.91 388.406C372.034 383.404 408.516 383.609 436.91 388.997C458.133 393.024 463.591 392.503 471.305 385.713C476.905 380.784 479.018 375.463 479.661 364.677C480.321 353.587 479.715 351.425 474.983 347.997L471.098 345.183L474.386 343.412C476.195 342.438 478.178 340.537 478.792 339.188C479.503 337.627 479.91 329.035 479.91 315.569V294.403L474.416 289.208L468.922 284.012L473.468 281.348C475.969 279.882 478.441 277.562 478.962 276.191C480.441 272.302 480.112 262.563 478.421 260.148C477.602 258.979 470.377 253.203 462.366 247.314C454.355 241.424 448.065 236.318 448.389 235.967C448.713 235.616 455.375 232.179 463.194 228.329C473.356 223.325 477.762 220.616 478.645 218.829C479.552 216.994 479.888 207.147 479.907 181.829L479.934 147.329L470.401 138.269L460.868 129.21L468.418 124.89C480.094 118.209 479.912 118.629 479.899 98.4438C479.886 77.7578 479.515 75.2308 475.526 68.6538C471.355 61.7758 465.577 58.6898 450.679 55.3828C428.175 50.3878 417.625 49.3918 386.91 49.3588C348.422 49.3178 333.123 51.0468 263.755 63.2738C198.151 74.8368 181.269 77.1808 151.41 78.8738C118.545 80.7368 85.0093 77.6158 60.9103 70.4518L56.4103 69.1138L56.1183 60.8468C55.9033 54.7918 56.2053 52.1448 57.2473 50.9548C62.0093 45.5098 64.4653 35.0298 62.9063 26.8068C60.2733 12.9218 50.8113 3.46482 36.9163 0.829816C31.0483 -0.283184 31.0833 -0.283183 25.2543 0.869817ZM40.3643 18.8038C47.0553 22.9488 49.3973 31.6828 45.7173 38.7698C42.6323 44.7098 39.1553 47.0638 32.7013 47.5818C26.5543 48.0758 22.1073 45.7078 18.0953 39.8048C16.1513 36.9448 15.8073 35.3908 16.1573 31.0378C16.6753 24.5838 19.0293 21.1068 24.9693 18.0218C30.0613 15.3778 35.2573 15.6418 40.3643 18.8038ZM39.9113 263.579L39.9103 463.829H31.9103H23.9103L23.9123 263.579L23.9143 63.3288H31.9133H39.9123L39.9113 263.579ZM414.054 65.8558C436.765 68.1068 458.659 72.7908 461.591 76.0258C463.15 77.7458 463.456 80.2298 463.73 93.4128L464.05 108.794L459.23 111.561C451.818 115.817 446.203 121.749 445.367 126.208C444.089 133.018 446.188 137.143 455.468 146.058L463.91 154.167V182.351V210.534L451.35 216.377C437.185 222.966 432.571 226.956 431.451 233.586C430.736 237.817 432.538 243.656 435.605 247.044C436.495 248.028 443.198 253.177 450.501 258.487L463.779 268.141L459.994 270.883C456.088 273.713 452.91 279.768 452.91 284.381C452.91 288.418 455.376 293.039 459.794 297.282L463.91 301.235V315.681V330.127L460.446 333.491C453.502 340.235 453.319 349.062 459.972 356.281C464.377 361.059 465.057 365.147 462.476 371.326C460.545 375.946 457.48 376.567 446.926 374.475C423.875 369.905 418.168 369.421 386.91 369.394C348.925 369.36 334.425 370.885 276.91 380.966C195.111 395.303 181.661 397.191 148.653 398.97C118.437 400.597 91.2173 398.176 65.3513 391.56L56.4103 389.273L56.1573 237.482C55.9153 92.6318 55.9853 85.7178 57.6743 86.2538C61.7743 87.5548 78.3403 90.8908 87.5193 92.2638C103.455 94.6468 126.349 95.9468 141.41 95.3228C175.777 93.8998 193.518 91.6438 256.41 80.6958C309.504 71.4538 329.442 68.4128 346.91 66.8908C353.785 66.2918 360.985 65.6548 362.91 65.4748C371.476 64.6768 404.649 64.9228 414.054 65.8558ZM361.537 82.2968C352.817 85.4058 345.994 94.2488 345.938 102.514C345.902 107.912 344.664 111.053 340.553 116.175C336.333 121.434 335.721 123.202 336.977 126.506C339.452 133.015 345.086 133.552 351.253 127.867C357.288 122.304 360.733 115.496 361.65 107.317C362.295 101.565 362.822 100.232 365.131 98.5108C367.403 96.8158 368.265 96.6698 370.354 97.6208C373.92 99.2458 374.575 103.017 372.011 107.166C369.24 111.649 369.357 114.961 372.387 117.808C375.257 120.504 380.201 120.781 382.839 118.393C386.68 114.917 393.91 117.601 393.91 122.503C393.91 125.745 390.84 127.534 384.322 128.09C375.069 128.88 367.249 133.664 359.795 143.094C355.403 148.65 354.992 151.393 357.983 155.194C359.557 157.195 360.948 157.829 363.767 157.829C366.952 157.829 368.254 157.038 372.944 152.252C379.435 145.629 382.544 143.829 387.494 143.829C399.939 143.829 409.936 133.962 409.9 121.713C409.875 113.143 401.459 102.773 393.283 101.239C390.692 100.753 389.742 99.9798 389.26 97.9658C387.546 90.7998 382.003 84.7348 374.982 82.3388C369.594 80.5018 366.601 80.4918 361.537 82.2968ZM148.41 111.764C140.667 113.649 134.854 118.832 131.974 126.42C130.4 130.566 129.594 131.45 126.761 132.134C121.357 133.44 115.724 137.95 113.081 143.085C105.649 157.526 116.203 174.829 132.444 174.829C138.002 174.829 139.504 175.585 147.617 182.468C154.552 188.351 157.174 188.982 161.275 185.756C163.299 184.165 163.91 182.799 163.91 179.871C163.91 176.467 163.21 175.404 157.377 169.947C149.196 162.294 144.554 159.907 136.361 159.142C128.82 158.438 126.66 157.183 126.66 153.504C126.66 148.157 131.448 146.206 136.91 149.329C139.839 151.003 144.281 151.236 146.871 149.85C150.683 147.81 151.416 139.496 147.972 137.367C147.388 137.006 146.91 135.42 146.91 133.841C146.91 128.64 152.26 125.518 156.459 128.269C158.537 129.631 158.913 130.671 158.932 135.102C158.96 141.753 161.461 147.176 167.012 152.62C173.599 159.08 179.45 159.553 182.392 153.864C184.644 149.508 184.339 148.379 179.41 142.829C175.435 138.353 174.909 137.212 174.9 133.046C174.888 126.972 171.122 118.828 166.953 115.86C163.673 113.524 155.82 110.75 153.001 110.931C152.126 110.988 150.06 111.362 148.41 111.764ZM267.317 117.813C215.216 125.17 175.478 158.899 163.621 205.829C161.925 212.541 161.466 217.379 161.441 228.829C161.403 246.445 162.847 251.803 170.6 262.829C179.291 275.188 179.499 275.77 178.109 283.876C176.014 296.091 176.914 301.884 181.711 307.056C185.684 311.34 189.809 312.196 203.065 311.483L214.823 310.851L215.487 314.388C215.955 316.882 215.525 319.56 214.03 323.466C211.419 330.291 211.387 332.458 213.838 336.479C215.209 338.727 217.427 340.262 221.584 341.84C226.771 343.809 228.617 343.987 238.41 343.463C267.618 341.898 300.45 332.163 305.819 323.477C308.287 319.483 308.48 315.13 306.41 310.175C305.585 308.2 304.91 304.615 304.91 302.207C304.91 296.875 307.205 294.214 312.604 293.287C326.702 290.866 334.607 288.035 338.122 284.149C342.709 279.076 344.265 268.839 341.991 258.692C340.681 252.844 341.626 249.61 346.93 241.799C352.694 233.312 356.448 224.674 358.327 215.575C360.257 206.233 360.295 200.076 358.495 188.329C353.097 153.097 331.36 127.921 299.391 119.872C290.003 117.508 275.891 116.602 267.317 117.813ZM295.41 135.327C306.548 138.152 316.956 144.074 324.109 151.657C335.287 163.506 340.794 175.684 343.011 193.456C345.014 209.518 342.448 219.783 332.923 233.81C325.976 244.04 325.018 248.453 326.375 263.985C327.278 274.322 327.696 273.905 313.596 276.742C308.421 277.783 302.82 279.341 301.149 280.205C296.795 282.457 291.062 289.551 289.796 294.254C288.722 298.241 289.062 309.372 290.38 313.423C290.962 315.211 290.343 315.827 286.145 317.633C275.387 322.26 256.866 326.141 239.505 327.405L229.599 328.126L230.318 325.727C233.045 316.636 231.533 306.747 226.55 301.072C221.541 295.367 218.434 294.563 204.6 295.388L192.6 296.104L193.312 291.217C195.814 274.029 194.823 269.014 186.799 258.242C178.095 246.558 177.407 244.398 177.43 228.829C177.452 213.693 179.218 205.525 185.322 192.312C196.989 167.061 220.017 147.43 248.41 138.531C255.39 136.344 259.299 135.454 270.91 133.413C275.231 132.653 289.158 133.741 295.41 135.327ZM284.904 204.705C276.821 207.352 269.814 213.111 266.346 219.956C262.193 228.151 263.598 236.768 270.211 243.667C275.63 249.32 280.301 251.147 290.568 251.629C298.723 252.012 300.32 251.788 305.135 249.584C314.814 245.152 321.866 235.772 321.866 227.329C321.866 219.156 315.535 210.331 306.921 206.498C302.029 204.32 289.253 203.28 284.904 204.705ZM222.934 216.491C208.139 221.668 197.808 233.949 197.695 246.492C197.633 253.419 201.311 259.23 207.923 262.65C214.566 266.085 225.867 265.412 234.999 261.037C245.259 256.122 253.593 246.095 255.317 236.594C256.859 228.095 250.695 218.251 242.387 215.944C236.82 214.399 228.222 214.64 222.934 216.491ZM300.362 221.244C310.456 225.462 304.456 235.834 291.928 235.825C281.4 235.818 276.774 230.202 282.66 224.573C287.636 219.815 294.053 218.608 300.362 221.244ZM238.74 233.66C239.234 237.147 234.503 243.188 228.881 246.248C225.07 248.322 222.844 248.87 219.173 248.634C214.841 248.357 214.382 248.086 214.1 245.648C213.876 243.708 214.785 241.866 217.39 238.983C222.286 233.564 228.233 230.71 233.91 231.055C237.765 231.29 238.457 231.663 238.74 233.66ZM254.41 261.338C246.79 265.433 240.043 275.981 238.056 286.905C235.494 300.995 243.794 311.841 257.128 311.823C263.847 311.815 268.277 310.138 273.324 305.695C284.031 296.271 285.561 282.741 277.385 269.79C272 261.259 261.645 257.45 254.41 261.338ZM355.139 267.498C352.974 268.369 350.821 273.625 351.507 276.361C352.216 279.184 374.098 299.841 379.144 302.45C380.844 303.329 384.974 304.275 388.322 304.553C397.385 305.306 400.784 308.235 398.804 313.586C397.607 316.823 393.825 317.336 389.066 314.908C383.759 312.201 381.363 312.285 378.365 315.284C375.536 318.112 375.018 323.843 377.41 325.829C379.749 327.77 379.316 333.431 376.687 335.272C371.482 338.919 366.91 335.53 366.91 328.025C366.91 319.746 363.332 314.313 350.706 303.419C342.202 296.082 338.913 293.829 336.705 293.829C332.836 293.829 328.91 297.828 328.91 301.768C328.91 305.215 330.52 307.095 342.522 317.654L350.633 324.791L351.153 331.27C352.075 342.751 358.994 350.7 369.534 352.385C379.665 354.005 391.61 346.717 394.104 337.395C395.196 333.31 395.621 332.887 399.651 331.873C402.338 331.196 405.728 329.195 408.475 326.663C416.187 319.554 417.581 308.505 411.921 299.346C408.16 293.261 399.465 288.829 391.287 288.829C386.492 288.829 385.867 288.382 370.671 274.102C364.211 268.031 362.393 266.842 359.671 266.908C357.877 266.951 355.838 267.217 355.139 267.498ZM266.061 282.94C268.02 289.477 263.918 295.829 257.737 295.829C254.12 295.829 252.964 293.534 254.08 288.567C255.158 283.77 256.471 281.086 259.208 278.08C261.128 275.973 261.371 275.936 263.092 277.493C264.101 278.407 265.438 280.858 266.061 282.94ZM158.949 300.784C158.145 301.292 153.382 305.785 148.365 310.769C139.561 319.513 139.085 319.829 134.702 319.829C121.257 319.829 110.806 329.142 110.697 341.221C110.607 351.278 116.157 359.058 125.886 362.514C130.034 363.987 130.854 364.716 131.353 367.375C132.15 371.623 138.405 378.695 143.354 380.943C155.731 386.565 170.884 378.505 173.838 364.729C174.428 361.98 174.91 358.464 174.91 356.915C174.91 353.847 177.231 350.636 188.66 337.897C196.855 328.763 197.769 325.597 193.455 321.284C188.768 316.596 186.518 317.638 174.658 329.994C162.385 342.78 158.91 348.606 158.91 356.39C158.91 360.105 158.327 362.3 156.837 364.194C154.608 367.029 150.23 367.749 148.11 365.629C146.423 363.942 146.615 358.319 148.41 356.829C149.262 356.122 149.91 353.941 149.91 351.779C149.91 348.86 149.297 347.492 147.275 345.902C143.914 343.258 141.642 343.289 136.733 346.049C133.129 348.074 132.558 348.14 130.201 346.799C126.532 344.71 125.574 341.465 127.811 338.703C129.222 336.961 131.144 336.315 136.675 335.724C140.56 335.309 145.148 334.24 146.87 333.35C151.012 331.208 168.778 312.956 169.54 310.06C171.129 304.017 163.878 297.666 158.949 300.784Z" fill="black"/>
</svg>
