<svg xmlns="http://www.w3.org/2000/svg" viewBox="0 0 48 48" fill="currentColor" id="Pizza-Thin--Streamline-Phosphor-Thin" height="48" width="48">
  <desc>
    Pizza Thin Streamline Icon: https://streamlinehq.com
  </desc>
  <path d="M47.44501875 9.171206250000001c-0.16267500000000001 -0.67618125 -0.58940625 -1.2590062499999999 -1.1848687500000001 -1.6183125 -13.688343749999998 -8.27938125 -30.840375 -8.27938125 -44.52871875 0C0.5018625 8.30409375 0.1121625 9.9087 0.86019375 11.1402l20.9095875 34.25469375c1.0167937500000002 1.68234375 3.4570125000000003 1.68234375 4.4737875 0L47.1379125 11.14455c0.36185625 -0.5903625 0.47244374999999994 -1.3009499999999998 0.30710624999999997 -1.97334375ZM8.8777125 20.945925000000003c3.01760625 -3.596475 8.7969 -2.57761875 10.402725 1.8339375000000002 1.2556687500000001 3.4495500000000003 -0.79858125 7.218562500000001 -4.3781437500000004 8.0327625Zm20.4739875 15.9892875c-3.9037687500000002 -2.60788125 -3.52051875 -8.463750000000001 0.68986875 -10.540575 1.7948062500000002 -0.88531875 3.90973125 -0.8337187500000001 5.6592375 0.13805625Zm7.259549999999999 -11.89449375c-1.18603125 -0.68675625 -2.5326375 -1.04745 -3.9031312500000004 -1.04548125 -6.036075 0.0007125 -9.8079 6.535406249999999 -6.78924375 11.762437499999999 0.62055 1.0745437500000001 1.4872687500000001 1.9864875 2.5289062500000004 2.6608125l-3.7027312500000003 6.0681375c-0.3375375 0.568875 -1.16098125 0.568875 -1.49851875 0l-7.405481249999999 -12.12538125c5.77155 -1.76728125 7.4656312499999995 -9.1197375 3.0493312500000003 -13.234425000000002 -3.11893125 -2.9059125000000003 -7.9880625 -2.7877125 -10.9623 0.26611875l-2.3741250000000003 -3.8922187500000005c11.22466875 -7.25364375 25.659000000000002 -7.25364375 36.883649999999996 0Zm9.0346875 -14.810962499999999 -2.2978875 3.7767937500000004c-11.7847875 -7.5913875 -26.919731249999998 -7.5913875 -38.704518750000005 0L2.34129375 10.23193125c-0.1202625 -0.19535625 -0.15639375 -0.431025 -0.1002 -0.65341875 0.05486250000000001 -0.22571249999999998 0.19756875000000002 -0.42015 0.39641249999999995 -0.54016875 13.1312625 -7.9425375 29.58530625 -7.9425375 42.71656875 0 0.19884374999999999 0.12001875000000001 0.34155 0.31445625 0.39639375 0.54016875 0.0562125 0.22239375 0.0200625 0.45806250000000004 -0.10018125 0.65341875Z" stroke-width="0.1875"></path>
</svg>