<svg xmlns="http://www.w3.org/2000/svg" viewBox="0 0 48 48" id="Faeces-Poo-Shit--Streamline-Nasty" height="48" width="48">
  <desc>
    Faeces Poo Shit Streamline Icon: https://streamlinehq.com
  </desc>
  <g>
    <path d="M36.64 29.392000000000003a9.4 9.4 0 0 0 -7.68 -7.120000000000001c0.48 -3.44 -1.6 -8.32 -4.5600000000000005 -10.32l-1.2000000000000002 -0.8800000000000001v1.52c0 3.04 -1.2800000000000002 4.720000000000001 -2.4800000000000004 6.24 -0.8800000000000001 1.1199999999999999 -1.6800000000000002 2.16 -1.6800000000000002 3.44a9.712000000000002 9.712000000000002 0 0 0 -7.76 7.120000000000001c-6.56 0.4 -11.280000000000001 5.6000000000000005 -11.280000000000001 12.8 0 2.5600000000000005 4.16 5.6000000000000005 24 5.6000000000000005s24 -3.04 24 -5.6000000000000005c0 -7.2 -4.720000000000001 -12.4 -11.36 -12.8Zm-1.36 1.2000000000000002Zm-13.280000000000001 -10.8a11.88 11.88 0 0 0 2.72 -5.5200000000000005c2 2.2399999999999998 3.28 6.16 2.5600000000000005 8.48l-0.16000000000000003 0.5599999999999999a8.488 8.488 0 0 1 -3.04 0.48 6.952 6.952 0 0 1 -3.04 -0.48l-0.24 -0.5599999999999999c-0.32000000000000006 -0.96 0.16000000000000003 -1.6800000000000002 1.2000000000000002 -2.9600000000000004Zm-2.72 4.08c0.16000000000000003 0.48 0.6400000000000001 0.8800000000000001 1.7600000000000002 1.2000000000000002a10.816 10.816 0 0 0 2.9600000000000004 0.32000000000000006c1.2800000000000002 0 4.16 -0.16000000000000003 4.720000000000001 -1.52a7.808 7.808 0 0 1 6.48 6.48V30.400000000000002c-0.6400000000000001 0.48 -4.5600000000000005 1.2000000000000002 -11.200000000000001 1.2000000000000002s-10.56 -0.7200000000000001 -11.200000000000001 -1.2000000000000002v-0.08000000000000002a7.904000000000001 7.904000000000001 0 0 1 6.48 -6.48Zm-6.48 6.720000000000001Zm11.200000000000001 15.600000000000001c-15.36 0 -22.400000000000002 -2.08 -22.400000000000002 -4 0 -6.32 3.9200000000000004 -10.8 9.68 -11.200000000000001 0.32000000000000006 0.8 1.6800000000000002 1.36 4.32 1.6800000000000002a62.68 62.68 0 0 0 8.4 0.48q11.64 0 12.72 -2.16c5.68 0.4 9.68 4.88 9.68 11.200000000000001 0 1.92 -7.040000000000001 4 -22.400000000000002 4Z" fill="currentColor" fill-rule="evenodd" stroke-width="0.8"/>
    <path d="M44 18.992a0.8 0.8 0 0 0 0 1.6 3.848 3.848 0 0 0 4 -4 3.056 3.056 0 0 0 -2.08 -3.12c-0.7200000000000001 -0.4 -1.1199999999999999 -0.5599999999999999 -1.1199999999999999 -1.6800000000000002a2.088 2.088 0 0 1 1.2000000000000002 -2.08 0.8 0.8 0 0 0 -0.6400000000000001 -1.4400000000000002 3.664 3.664 0 0 0 -2.08 3.5200000000000005 3.056 3.056 0 0 0 2.08 3.12c0.7200000000000001 0.4 1.1199999999999999 0.5599999999999999 1.1199999999999999 1.6800000000000002a2.4000000000000004 2.4000000000000004 0 0 1 -2.4800000000000004 2.4000000000000004" fill="currentColor" fill-rule="evenodd" stroke-width="0.8"/>
    <path d="M32.800000000000004 10.992a0.8 0.8 0 0 0 0 1.6 3.848 3.848 0 0 0 4 -4 3.056 3.056 0 0 0 -2.08 -3.12 1.4880000000000002 1.4880000000000002 0 0 1 -1.1199999999999999 -1.6800000000000002 2.088 2.088 0 0 1 1.2000000000000002 -2.08 0.8 0.8 0 0 0 0.4 -1.04 0.8 0.8 0 0 0 -1.04 -0.4 3.608 3.608 0 0 0 -2.16 3.5200000000000005 3.056 3.056 0 0 0 2.08 3.12c0.7200000000000001 0.4 1.1199999999999999 0.5599999999999999 1.1199999999999999 1.6800000000000002a2.288 2.288 0 0 1 -2.4000000000000004 2.4000000000000004" fill="currentColor" fill-rule="evenodd" stroke-width="0.8"/>
    <path d="M4 20.592a0.752 0.752 0 0 0 0.8 -0.8 0.8 0.8 0 0 0 -0.8 -0.8 2.288 2.288 0 0 1 -2.4000000000000004 -2.4000000000000004c0 -1.1199999999999999 0.4 -1.2800000000000002 1.1199999999999999 -1.6800000000000002a3.056 3.056 0 0 0 2.08 -3.12 3.664 3.664 0 0 0 -2.08 -3.5200000000000005 0.8 0.8 0 0 0 -0.6400000000000001 1.4400000000000002 2.088 2.088 0 0 1 1.2000000000000002 2.08c0 1.1199999999999999 -0.4 1.2800000000000002 -1.1199999999999999 1.6800000000000002 -0.96 0.48 -2.16 1.04 -2.16 3.12a3.848 3.848 0 0 0 4 4" fill="currentColor" fill-rule="evenodd" stroke-width="0.8"/>
    <path d="M15.200000000000001 12.592a0.8 0.8 0 0 0 0 -1.6 2.288 2.288 0 0 1 -2.4000000000000004 -2.4000000000000004c0 -1.1199999999999999 0.4 -1.2800000000000002 1.1199999999999999 -1.6800000000000002a3.056 3.056 0 0 0 2.08 -3.12 3.664 3.664 0 0 0 -2.08 -3.5200000000000005 0.8 0.8 0 0 0 -1.04 0.4 0.8 0.8 0 0 0 0.4 1.04 2.088 2.088 0 0 1 1.2000000000000002 2.08c0 1.1199999999999999 -0.4 1.2800000000000002 -1.1199999999999999 1.6800000000000002 -0.96 0.48 -2.16 1.04 -2.16 3.12a3.848 3.848 0 0 0 4 4" fill="currentColor" fill-rule="evenodd" stroke-width="0.8"/>
  </g>
</svg>