<svg viewBox="-1 -1 48 48" xmlns="http://www.w3.org/2000/svg" id="Satellite--Streamline-Ultimate" height="48" width="48">
  <desc>
    Satellite Streamline Icon: https://streamlinehq.com
  </desc>
  <path d="M15.2375 29.806083333333333a20.954916666666666 20.954916666666666 0 0 0 28.152 1.288 1.9166666666666667 1.9166666666666667 0 0 0 0.12841666666666668 -2.8385833333333337L16.53125 1.51225a1.9166666666666667 1.9166666666666667 0 0 0 -2.8385833333333337 0.15333333333333335 20.951083333333333 20.951083333333333 0 0 0 1.5448333333333335 28.140500000000003" fill="none" stroke="currentColor" stroke-linecap="round" stroke-linejoin="round" stroke-width="2"></path>
  <path d="M33.7065 11.333250000000001 30.089750000000002 14.950000000000001" fill="none" stroke="currentColor" stroke-linecap="round" stroke-linejoin="round" stroke-width="2"></path>
  <path d="M32.583333333333336 8.623083333333334a3.8333333333333335 3.8333333333333335 0 1 0 7.666666666666667 0 3.8333333333333335 3.8333333333333335 0 1 0 -7.666666666666667 0" fill="none" stroke="currentColor" stroke-linecap="round" stroke-linejoin="round" stroke-width="2"></path>
  <path d="m15.089916666666667 29.656583333333337 -10.593416666666668 12.211083333333335A1.9166666666666667 1.9166666666666667 0 0 0 5.941666666666667 45.04166666666667h18.4a1.9166666666666667 1.9166666666666667 0 0 0 1.4413333333333334 -3.1797500000000003Z" fill="none" stroke="currentColor" stroke-linecap="round" stroke-linejoin="round" stroke-width="2"></path>
  <path d="m37.375 12.335666666666667 0 9.8325" fill="none" stroke="currentColor" stroke-linecap="round" stroke-linejoin="round" stroke-width="2"></path>
  <path d="m32.70408333333333 7.664750000000001 -9.96475 0" fill="none" stroke="currentColor" stroke-linecap="round" stroke-linejoin="round" stroke-width="2"></path>
</svg>