<svg id="Saw-Blade--Streamline-Atlas" xmlns="http://www.w3.org/2000/svg" viewBox="-1.5 -1.5 48 48" height="48" width="48">
  <desc>
    Saw Blade Streamline Icon: https://streamlinehq.com
  </desc>
  <defs></defs>
  <path d="m37.93125 23.7375 -1.89375 3.05625 -3.8437499999999996 0.0375 -2.04375 3.24375 -3.825 0.056249999999999994 -2.0250000000000004 3.24375 -3.825 0.056249999999999994 -2.04375 3.24375 -3.825 0.056249999999999994 -2.00625 3.24375 -3.375 0.84375 -6.4125 -6.4125L25.70625 11.5125l12.225 12.225z" fill="none" stroke="currentColor" stroke-miterlimit="10" stroke-width="3"></path>
  <path d="m25.70625 11.5125 6.0375000000000005 -6.0375000000000005a4.425 4.425 0 0 1 3.1125 -1.29375 4.425 4.425 0 0 1 3.1312499999999996 1.29375l2.90625 2.90625a4.425 4.425 0 0 1 1.29375 3.1312499999999996 4.5 4.5 0 0 1 -1.29375 3.1312499999999996L34.85625 20.625l-9.15 -9.1125" fill="none" stroke="currentColor" stroke-miterlimit="10" stroke-width="3"></path>
</svg>