<svg xmlns="http://www.w3.org/2000/svg" fill="none" viewBox="-1 -1 48 48" id="Ship--Streamline-Guidance-Free" height="48" width="48">
  <desc>
    Ship Streamline Icon: https://streamlinehq.com
  </desc>
  <path stroke="currentColor" d="M0 45.04166666666667a5.75 5.75 0 0 0 5.75 -5.75 5.75 5.75 0 1 0 11.5 0 5.75 5.75 0 1 0 11.5 0 5.75 5.75 0 1 0 11.5 0 5.75 5.75 0 0 0 5.75 5.75M10.541666666666668 19.620916666666666V6.708333333333334h24.916666666666668v12.912583333333334M23 0v6.708333333333334M10.541666666666668 36.41666666666667c0 -0.33349999999999996 -0.23 -1.4758333333333333 -0.5347500000000001 -2.829 -0.8586666666666667 -3.841 -2.572166666666667 -7.432833333333334 -4.8875 -10.614500000000001L4.791666666666667 22.520833333333336v-0.4791666666666667l15.557583333333335 -6.551166666666667A4.32975 4.32975 0 0 0 23 11.5m0 0c0 1.74225 1.0445833333333334 3.3158333333333334 2.65075 3.9905L41.208333333333336 22.041666666666668v0.4791666666666667l-0.32966666666666666 0.4523333333333333c-2.313416666666667 3.1816666666666666 -4.026916666666667 6.7735 -4.8875 10.614500000000001 -0.30091666666666667 1.35125 -0.5328333333333334 2.4955000000000003 -0.5328333333333334 2.829M23 11.5v24.916666666666668" stroke-width="2"></path>
</svg>