<svg xmlns="http://www.w3.org/2000/svg" viewBox="0 0 48 48" fill="currentColor" id="Sock-Light--Streamline-Phosphor" height="48" width="48">
  <desc>
    Sock Light Streamline Icon: https://streamlinehq.com
  </desc>
  <path d="M38.867737500000004 0.48H20.7391875c-1.59285 0 -2.8840875 1.29125625 -2.8840875 2.8840875v15.9675375l-8.102231249999999 8.10429375c-6.435487500000001 6.32731875 -3.6081375 17.24851875 5.08921875 19.65815625 4.104975 1.1373 8.50381875 -0.04138125 11.49016875 -3.07876875l14.092875000000001 -14.09083125c0.85216875 -0.8487 1.329825 -2.0027625000000002 1.32669375 -3.2054625000000003V3.3640875c0 -1.5927937499999998 -1.2913124999999999 -2.8840125 -2.8840875 -2.8840875ZM20.7391875 2.9520750000000002h18.128549999999997c0.22755 0 0.4120125 0.1844625 0.4120125 0.4120125v3.7081124999999995H20.327175V3.3640875c0 -0.22755 0.1844625 -0.4120125 0.4120125 -0.4120125Zm3.84613125 39.31629375c-5.1085125 4.96471875 -13.6758 2.53753125 -15.421125 -4.3689374999999995 -0.7869187500000001 -3.1139625000000004 0.097125 -6.413268749999999 2.3356125 -8.716574999999999l8.4648 -8.4648c0.23186249999999997 -0.23158125000000002 0.36226875 -0.5457562499999999 0.36256875 -0.87346875v-10.3003125H39.27975v9.134325c-5.6267625 0.63568125 -9.88115625 5.39175 -9.888300000000001 11.054287500000001 -0.0057 2.11785 0.6001875 4.1923125 1.744875 5.97418125Zm14.09083125 -14.092893749999998L32.938875 33.9148125c-0.710025 -1.27914375 -1.0802625 -2.7189562499999997 -1.07535 -4.181925 0.0053625 -4.298662500000001 3.1622812500000004 -7.94315625 7.416224999999999 -8.561625v5.547750000000001c0.0014812500000000001 0.5466375 -0.2158875 1.07113125 -0.6035999999999999 1.4564625Z" stroke-width="0.1875"></path>
</svg>