<svg xmlns="http://www.w3.org/2000/svg" fill="none" viewBox="-1 -1 48 48" id="Work-From-Home-User-Sofa--Streamline-Ultimate" height="48" width="48">
  <desc>
    Work From Home User Sofa Streamline Icon: https://streamlinehq.com
  </desc>
  <path stroke="currentColor" stroke-linecap="round" stroke-linejoin="round" stroke-miterlimit="10" d="M18.53215416666667 18.480883333333335c1.1499041666666667 -0.575 2.4915708333333333 -0.766705 3.8332375 -0.38337166666666667 3.2583333333333333 0.575 5.75 3.6417050000000004 5.75 7.091705v5.558333333333334c0 2.1083333333333334 -1.725 3.8333333333333335 -3.8333333333333335 3.8333333333333335h-3.8333333333333335l-4.024923333333333 8.05c-0.9583333333333334 1.9166666666666667 -3.2583333333333333 2.4916666666666667 -4.983333333333333 1.3416666666666666 -1.5333333333333334 -0.9583333333333334 -1.9166475 -2.875 -1.1499808333333335 -4.408333333333333l2.4916666666666667 -4.983333333333333" stroke-width="2"></path>
  <path stroke="currentColor" stroke-linecap="round" stroke-linejoin="round" stroke-miterlimit="10" d="m6.0738208333333334 34.580691666666674 -2.4916666666666667 4.983333333333333c-0.7666666666666667 1.5333333333333334 -0.3833525 3.45 1.1499808333333335 4.408333333333333 1.725 1.15 4.025 0.575 4.983333333333333 -1.3416666666666666l0.3320625 -0.523825" stroke-width="2"></path>
  <path stroke="currentColor" stroke-linecap="round" stroke-linejoin="round" stroke-miterlimit="10" d="M20.448725000000003 15.0230825c2.6465333333333336 0 4.791666666666667 -2.145286666666667 4.791666666666667 -4.791666666666667 0 -2.6463608333333335 -2.1451333333333333 -4.791666666666667 -4.791666666666667 -4.791666666666667 -2.6462841666666668 0 -4.791570833333334 2.145305833333333 -4.791570833333334 4.791666666666667 0 2.64638 2.145286666666667 4.791666666666667 4.791570833333334 4.791666666666667" stroke-width="2"></path>
  <path stroke="currentColor" stroke-linecap="round" stroke-linejoin="round" stroke-miterlimit="10" d="M40.72916666666667 44.5625h-15.333333333333334" stroke-width="2"></path>
  <path stroke="currentColor" stroke-linecap="round" stroke-linejoin="round" stroke-miterlimit="10" d="M31.145833333333336 17.729166666666668h3.8333333333333335c3.2583333333333333 0 5.75 2.4916666666666667 5.75 5.75v5.75" stroke-width="2"></path>
  <path stroke="currentColor" stroke-linecap="round" stroke-linejoin="round" stroke-miterlimit="10" d="M44.5625 44.5625h-9.583333333333334v-11.5c0 -2.1083333333333334 1.725 -3.8333333333333335 3.8333333333333335 -3.8333333333333335h1.9166666666666667c2.1083333333333334 0 3.8333333333333335 1.725 3.8333333333333335 3.8333333333333335z" stroke-width="2"></path>
  <path stroke="currentColor" stroke-linecap="round" stroke-linejoin="round" stroke-miterlimit="10" d="M15.657556666666666 28.639025h-10.925c-0.575 0 -1.15 -0.38333333333333336 -1.3416666666666666 -0.9583333333333334l-1.9166666666666667 -6.8998083333333335c-0.19166666666666668 -0.9583333333333334 0.3833275833333334 -1.725115 1.3416666666666666 -1.725115h9.2c0.575 0 1.15 0.3832566666666667 1.3416666666666666 0.9582566666666668z" stroke-width="2"></path>
  <path stroke="currentColor" stroke-linecap="round" stroke-linejoin="round" stroke-miterlimit="10" d="M21.407633333333333 28.639025H15.657614166666669" stroke-width="2"></path>
</svg>