<svg xmlns="http://www.w3.org/2000/svg" viewBox="-2 -2 48 48" fill="none" stroke="currentColor" stroke-linecap="round" stroke-linejoin="round" id="Droplets--Streamline-Lucide" height="48" width="48">
  <desc>
    Droplets Streamline Icon: https://streamlinehq.com
  </desc>
  <path d="M12.833333333333332 29.883333333333333c4.033333333333333 0 7.333333333333333 -3.355 7.333333333333333 -7.424999999999999 0 -2.1266666666666665 -1.045 -4.143333333333333 -3.135 -5.848333333333333S13.365 12.375 12.833333333333332 9.716666666666667c-0.5316666666666666 2.658333333333333 -2.09 5.206666666666666 -4.198333333333333 6.893333333333333S5.5 20.349999999999998 5.5 22.458333333333332c0 4.07 3.3 7.424999999999999 7.333333333333333 7.424999999999999z" stroke-width="4"></path>
  <path d="M23.026666666666667 12.1A20.111666666666668 20.111666666666668 0 0 0 25.666666666666664 5.536666666666666c0.9166666666666666 4.583333333333333 3.6666666666666665 8.983333333333334 7.333333333333333 11.916666666666666s5.5 6.416666666666666 5.5 10.083333333333332a12.796666666666667 12.796666666666667 0 0 1 -21.835 9.111666666666666" stroke-width="4"></path>
</svg>