<svg xmlns="http://www.w3.org/2000/svg" viewBox="0 0 48 48" fill="currentColor" id="Hair-Dryer--Streamline-Phosphor" height="48" width="48">
  <desc>
    Hair Dryer Streamline Icon: https://streamlinehq.com
  </desc>
  <path d="M39.418124999999996 13.456556249999998c0 -4.99468125 -5.4069 -8.11635 -9.732412499999999 -5.61901875 -4.3255125 2.49735 -4.3255125 8.7406875 0 11.23801875 0.9863437500000001 0.569475 2.1052125 0.86926875 3.24414375 0.86926875 3.58336875 0 6.4882687500000005 -2.9049 6.4882687500000005 -6.4882687500000005Zm-6.4882687500000005 3.244125c-2.4973312500000002 0 -4.058175 -2.70343125 -2.8095 -4.866206249999999 1.24865625 -2.16275625 4.37034375 -2.16275625 5.619 0 0.2847375 0.49318125 0.43464375 1.05260625 0.43464375 1.62208125 0 1.7916750000000001 -1.45245 3.244125 -3.24414375 3.244125Zm1.9099875000000002 20.8071 6.403124999999999 -14.10185625c7.65901875 -6.4129875 5.5036499999999995 -18.71225625 -3.879675 -22.1386875 -1.42063125 -0.51875625 -2.92104375 -0.7851937500000001 -4.4334375 -0.7872375 -0.0896625 0.000375 -0.17915625000000002 0.007837499999999999 -0.2676375 0.02229375L4.82143125 5.143443749999999c-1.56414375 0.2606625 -2.71065 1.61383125 -2.71089375 3.1995375v10.22715c0.00024375 1.58570625 1.14675 2.938875 2.71089375 3.19951875l19.998075 3.3333562499999996v11.06251875c0 1.79161875 1.4525062499999999 3.24405 3.24414375 3.244125 0 4.479075 3.6312562500000003 8.11014375 8.11035 8.11035h3.244125c1.248675 0 2.0290875 -1.351725 1.40475 -2.4331125 -0.289725 -0.5018437499999999 -0.8252625 -0.8109937500000001 -1.40475 -0.81103125h-3.244125c-2.68753125 0 -4.866206249999999 -2.178675 -4.866206249999999 -4.866206249999999h0.57785625c1.27250625 0.00030000000000000003 2.42769375 -0.74338125 2.95419375 -1.90186875ZM5.35468125 8.34298125 33.059625000000004 3.7241437500000005c7.4920124999999995 0.0033 12.1709625 8.11569375 8.42210625 14.602331249999999 -1.73833125 3.0077999999999996 -4.948125 4.86095625 -8.42210625 4.86249375L5.35468125 18.57215625Zm27.3075375 18.06781875c0.08848125 0.014475000000000002 0.177975 0.02191875 0.2676375 0.02229375 1.22265 -0.00031874999999999997 2.4391125 -0.1737 3.6131624999999996 -0.51500625l-4.66344375 10.2474375h-3.815925V25.644375000000004Z" stroke-width="0.1875"></path>
</svg>