<svg role="img" viewBox="0 0 48 48" xmlns="http://www.w3.org/2000/svg" id="Greensock--Streamline-Simple-Icons" height="48" width="48">
  <desc>
    Greensock Streamline Icon: https://streamlinehq.com
  </desc>
  <title>GreenSock</title>
  <path d="M34.42 0c-1.09 0.006 -2.168 0.268 -2.512 0.734 -0.22 0.33 -0.384 2.392 -0.22 3.436 0 0 0.064 0.69 0.18 1.228a29.2 29.2 0 0 1 -0.04 0.364 14.048 14.048 0 0 1 -0.194 1.21c-0.02 0.112 -0.414 0.19 -0.85 0.304a4.99 4.99 0 0 0 -0.276 -0.084c-0.468 -0.138 -0.77 0.246 -1.236 0.52 -0.138 -0.08 -0.742 -0.356 -1.072 -0.164 -0.33 0.192 -0.55 0.386 -0.88 0.522 -0.164 -0.082 -0.604 -0.082 -0.96 0.056a2.54 2.54 0 0 0 -0.966 0.556c-4.628 1.16 -9.626 3.27 -10.024 3.482 -2.034 1.044 -5.358 2.83 -6.868 4.066 -2.582 2.142 -4.12 4.644 -4.726 6.484 -0.77 2.28 -0.55 3.654 0.192 2.774 0.596 -0.732 3.264 -2.908 4.95 -3.998l-0.004 0.014a6.438 6.438 0 0 1 0.88 -0.52l0.466 -0.248 1.01 -0.646c1.204 1.104 1.606 2.866 1.874 5.26 0.44 3.682 3.408 5.386 6.868 5.44 3.6 0.056 4.892 0.798 6.238 2.61 0.306 0.402 0.636 0.614 0.94 0.736a3.908 3.908 0 0 0 -0.32 0.81c-0.15 0.34 -0.25 0.76 -0.314 1.216a0.314 0.314 0 0 0 -0.06 0.15c-0.136 1.072 -0.11 3.6 -0.136 4.946 -0.028 1.346 -0.056 1.54 -0.166 1.732 -0.11 0.22 -0.22 0.356 -0.356 0.934 -0.138 0.604 -0.386 0.768 -0.632 1.262 -0.412 0.77 -0.33 1.62 0.082 2.006 0.412 0.384 1.54 0.962 3.076 0.77 1.54 -0.192 1.76 -0.302 1.512 -1.786 -0.028 -0.22 -0.384 -1.21 -0.274 -1.594 0.164 -0.412 -0.192 -1.126 -0.11 -1.154 0.082 -0.028 0.192 -0.576 0.192 -0.852 0 -0.274 -0.028 -1.592 0.274 -2.28 0.124 -0.28 0.386 -0.92 0.652 -1.57 0.884 -1.446 0.918 -2.322 0.96 -2.82 0.06 -0.404 0.092 -0.92 0.036 -1.488 0.11 -0.166 0.578 -0.55 0.632 -1.292 0 0 1.288 -0.674 2.204 -2.296 0.32 1.114 0.62 1.82 0.572 2.544 -0.998 0.78 -1.368 1.356 -1.52 1.918 -0.096 -0.04 -0.152 -0.074 -0.22 -0.08h-0.054a0.874 0.874 0 0 0 -0.212 0.058c-0.384 0.136 -0.082 2.636 0.33 3.654 0.412 1.016 0.632 1.62 0.796 2.72 0.166 1.098 -0.384 2.444 -0.604 3.048 0 0 -0.358 1.072 0.466 1.648 0.716 0.496 3.408 0.36 4.616 0.36 1.21 0 3.022 0.438 4.176 0.218 1.43 -0.248 1.648 -1.1 0.798 -1.54 -0.852 -0.44 -2.144 -0.658 -3.82 -1.866 -0.44 -0.304 -1.044 -0.578 -1.126 -0.824 -0.082 -0.248 -0.082 -1.676 -0.054 -2.914 0.026 -1.236 0.44 -2.828 0.576 -3.68 0.128 -0.796 -0.152 -0.776 -0.524 -0.702 0.064 -0.294 0.132 -0.584 0.194 -0.892 0.688 -1.264 0.386 -2.446 0.386 -2.446 1.64 -2.088 0.8 -6.54 0.44 -8.096 1.28 0.606 1.92 0.376 1.92 0.376 0.204 -0.11 0.384 -0.268 0.548 -0.448 0.674 -0.724 1.02 -1.832 1.02 -1.832V22c1.564 -1.566 2.302 -3.872 0.52 -5.384a2.662 2.662 0 0 0 -0.438 -2.526 3.12 3.12 0 0 0 -0.74 -3.462 2.72 2.72 0 0 0 -0.974 -0.594c-0.4 -0.59 -0.49 -0.834 -1.144 -0.698 -0.3 -0.33 -0.356 -0.576 -0.988 -0.356 0 0 -0.192 -0.468 -0.55 -0.578a0.5 0.5 0 0 0 -0.1 -0.03c-0.604 -0.42 -1.152 -0.43 -1.544 -0.32 -0.128 -0.096 -0.122 -0.248 -0.14 -0.776 -0.016 -0.4 -0.038 -0.972 -0.062 -1.488 0.054 -0.656 0.204 -1.948 0.252 -2.606 0.056 -0.74 0.084 -1.896 -0.246 -2.39C36.606 0.24 35.508 -0.006 34.42 0zm-0.01 0.68c1.4 0 2.004 0.44 2.088 0.686 0.026 0.056 0.164 0.99 0.08 1.594 -0.026 0.22 -0.054 1.018 -0.108 1.374 -0.028 0.358 -0.138 0.77 -0.248 1.346 -0.082 0.468 -0.466 0.99 -0.768 1.072 -0.522 0.138 -1.484 0.11 -2.034 0 -0.138 -0.028 -0.248 -0.11 -0.384 -0.192 -0.302 -0.496 -0.468 -0.88 -0.522 -1.484 -0.056 -0.578 -0.166 -0.824 -0.192 -1.264 -0.028 -0.66 -0.028 -1.1 -0.028 -1.1 0.028 -0.356 0.138 -1.236 0.138 -1.318 0.026 -0.246 0.466 -0.714 1.978 -0.714zm-2.266 5.404c0.292 0.298 0.602 0.612 0.864 0.832 0.248 0.22 0.852 0.192 1.4 0.192 0.496 0 0.936 0.056 1.128 -0.054 0.308 -0.154 0.71 -0.47 1.046 -0.788 0.022 0.304 0.044 0.608 0.052 0.87 0.02 0.59 -0.086 0.936 0.048 1.14 -0.164 0.096 -0.348 0.21 -0.538 0.312 -0.302 0.16 -0.612 0.272 -0.806 0.23h-0.004c-0.418 -0.07 -1.862 -0.43 -2.662 -0.814 -0.334 -0.518 -0.67 -0.796 -0.652 -0.896 0.054 -0.274 0.08 -0.494 0.108 -0.85 0.008 -0.06 0.01 -0.116 0.016 -0.176zm-1.706 1.38 0.07 0.002c0.848 0.072 1.3 0.304 1.616 0.568l0.152 0.06 0.016 -0.054c0.094 0.06 0.204 0.12 0.324 0.176 0.94 0.318 2.208 0.616 2.618 0.706 0.494 0.11 1.29 -0.384 1.676 -0.632 0.686 -0.44 1.566 -0.08 1.978 0.386 0.274 0.3 0.384 0.494 0.384 0.576 0.632 -0.22 0.714 0.082 1.016 0.412 0.77 -0.358 0.824 0.082 0.88 0.274 -0.244 0 -0.596 0.028 -1.076 0.08l-0.024 -0.024c-0.288 -0.306 -0.804 -0.578 -1.198 -0.768 -0.174 -0.062 -0.36 -0.098 -0.504 -0.194 -0.22 -0.11 -0.44 -0.274 -0.77 -0.246 -1.374 0.164 -1.648 0.63 -2.83 0.356 -1.154 -0.268 -1.474 -0.508 -2.666 -0.442l0.002 0.052c-0.21 0.032 -0.4 0.06 -0.44 0.06 -0.412 0.024 -1.444 0.134 -2.306 -0.2a2.512 2.512 0 0 0 -0.322 -0.152l-0.01 -0.004h-0.002c-0.36 -0.14 -0.78 -0.22 -1.26 -0.224h-0.052c0.436 -0.22 0.712 -0.518 1.12 -0.436 0.44 0.082 0.88 0.44 1.128 0.714a1.716 1.716 0 0 0 -0.356 -0.576c0.256 -0.18 0.49 -0.458 0.836 -0.468zm-2.2 1.09c0.3 0.004 0.56 0.052 0.834 0.146 0.036 0.018 0.068 0.036 0.118 0.058 0.576 0.274 1.62 0.328 2.5 0.274a4.52 4.52 0 0 0 1.126 -0.19c0.644 0.048 1.028 0.22 1.954 0.432 0.62 0.14 1.004 0.09 1.39 -0.014 0.386 -0.106 0.772 -0.26 1.446 -0.34a1.084 1.084 0 0 1 0.376 0.026c0.076 0.04 0.15 0.08 0.22 0.122 0.124 0.098 0.428 0.27 0.686 0.378 0.328 0.136 1.18 0.714 1.29 0.85a0.2 0.2 0 0 0 0.076 0.06c0.484 0.628 0.814 1.51 0.792 2.42 -0.12 0.92 -0.852 0.428 -1.252 0.24 -0.824 -0.356 -1.648 -0.604 -2.61 -0.604 -0.96 0 -2.198 0.082 -3.27 0.358 -1.482 0.412 -1.922 0.384 -2.58 0.054 -0.66 -0.356 -1.814 -1.236 -1.814 -1.236v0.02c-0.014 -0.014 -0.024 -0.024 -0.028 -0.02 -0.084 0.138 -0.276 0.494 -0.386 0.66 -0.054 1.044 -0.686 2.692 -1.868 3.104a1.094 1.094 0 0 1 -0.934 -0.082 5.006 5.006 0 0 0 -1.1 -0.55c0.962 0.768 1.458 1.346 1.898 2.362 0.348 0.86 0.83 2.034 2.004 3.292 0.726 -0.008 1.45 0.194 1.924 0.692 0.274 0.274 0.714 0.578 0.66 0.852 0 0.082 -0.166 0.302 -0.302 0.468a6.462 6.462 0 0 1 -0.414 0.44c-0.108 0.08 -0.494 0.384 -0.576 0.44 -0.082 0.054 -0.192 0.19 -0.274 0.218 -0.276 0.138 -0.578 0.028 -0.852 -0.11s0.054 -0.164 -0.248 -0.384c-0.68 -0.48 -1.082 -0.822 -0.908 -1.664 -1.864 -1.588 -5.122 -2.52 -5.822 -4.216 -0.44 -1.1 -0.496 -1.648 -0.084 -2.116 1.21 -1.374 0.742 -2.692 1.65 -3.268 0.85 -0.55 1.566 0.08 1.978 0.66 -0.248 -1.018 -1.1 -1.266 -1.1 -1.348 0 -1.264 1.21 -2.142 2.42 -2.362 0.436 -0.082 0.778 -0.124 1.08 -0.12zm-3.694 1.068c-0.28 0.392 -0.462 0.87 -0.492 1.442 -0.412 0.056 -1.346 0.11 -1.814 1.814a6.78 6.78 0 0 1 -0.428 1.24c-0.206 0.09 -5.892 2.548 -10.458 5.084l-0.02 -0.014c-0.64 0.36 -1.254 0.726 -1.838 1.092l-0.25 0.154 -0.002 0.006c-2.272 1.446 -4.08 2.9 -5.274 4.224 0.824 -5.358 5.056 -8.16 7.06 -9.396 4.84 -2.978 9.258 -4.45 13.516 -5.646zm16.074 0.646c0.52 -0.008 1.072 0.12 1.512 0.55 1.18 1.154 0.85 2.418 0.494 3.296 0.3 0.358 1.016 1.374 0.576 2.582 -0.08 0.276 -0.686 0.276 -1.126 0.99 1.1 -0.632 1.786 -0.466 2.034 0.33 0.384 1.236 -0.468 2.72 -1.21 3.544 0 -0.028 -0.028 -0.056 -0.028 -0.082 -0.11 0.412 -0.246 1.208 -1.07 2.088 -0.412 0.44 -0.742 0.384 -1.21 0.274 -0.43 -0.108 -0.644 -0.284 -1.086 -0.552 -0.072 -0.414 -0.204 -0.964 -0.204 -1.18 0 -0.088 -0.008 -0.282 -0.02 -0.486 0.064 -0.072 0.132 -0.148 0.212 -0.228 0 0 0.356 -0.494 0.88 -0.466 0.52 0.028 1.07 -0.082 1.208 -0.22 0 -0.96 -1.1 -0.988 -0.714 -2.638 0.026 -0.08 0.164 -0.22 0.604 -0.274 -0.66 -0.138 -0.96 -0.166 -1.428 -0.604l-0.026 -0.026c0.22 -0.506 0.448 -0.914 0.602 -1.21 0.386 -0.77 0.164 -1.704 0.164 -1.704 0.414 -0.138 0.77 -0.358 0.826 -0.494 0.406 -1.346 -0.328 -2.644 -1.21 -3.48 0.072 -0.006 0.146 -0.01 0.22 -0.012zm-10.92 1.85c0.02 0.032 0.04 0.066 0.068 0.1 0.358 0.44 1.154 0.99 2.226 1.346 0.52 0.166 0.934 0.056 1.4 -0.054 2.246 -0.556 4.608 -0.692 6.66 0.31a3.64 3.64 0 0 1 -0.314 2.136c-0.464 0.93 -1.066 2.136 -0.96 4.43 -0.492 0.088 -2.838 0.288 -3.984 0.074 -1.042 -0.194 -2.832 -1.05 -3.24 -1.38a13.406 13.406 0 0 1 -0.25 -1.696 2.74 2.74 0 0 0 0.908 -0.686c-0.824 0.136 -1.154 0.08 -1.65 -0.194 -0.47 -0.26 -1.284 -1.066 -1.74 -1.64 0.458 -0.58 0.786 -1.38 0.67 -2.452 0.074 -0.1 0.14 -0.198 0.204 -0.294zm-8.76 3.196c-0.18 0.506 0.186 1.308 0.448 1.906 1.016 2.358 4.14 2.58 6.254 4.36a1.446 1.446 0 0 0 0.12 0.776c0.166 0.33 0.742 0.826 0.742 0.826 -0.11 0.108 -0.054 0.328 -0.054 0.328 0.408 0.434 1.008 0.486 1.094 0.492 -0.87 2.496 -1.632 5.252 -0.902 8.19 -0.358 0.488 -0.736 0.89 -1.062 1.336a1.702 1.702 0 0 1 -0.888 -0.62c-1.182 -1.704 -2.914 -2.832 -6.046 -2.748 -4.698 0.11 -6.566 -1.814 -6.922 -5.496 -0.188 -1.948 -0.714 -3.844 -1.776 -4.958C14.978 18.028 19.2 15.874 20.536 15.46a5.6 5.6 0 0 0 0.4 -0.146zm6.992 0.36c0.762 0.884 1.59 1.454 2.386 1.958 0.164 0.686 0.22 1.154 0.384 2.06h-0.082l-0.054 0.616a5.672 5.672 0 0 0 -1.24 -0.226l0.002 -0.006c-1.786 -2.114 -1.4 -2.94 -2.116 -4.038 0.194 -0.068 0.45 -0.188 0.72 -0.364zm11.822 2.172c0.152 0.134 0.356 0.24 0.646 0.308 -0.654 1.36 0.66 1.824 0.74 2.34 -0.286 0.166 -0.734 0.074 -1.206 0.05 -0.23 -0.012 -0.458 0.13 -0.642 0.294l0.064 -0.734c0.012 -0.86 0.18 -1.618 0.4 -2.26zM31.58 19.894c0.048 0.07 0.356 0.262 2.004 0.704 2.052 0.55 4.646 0.24 5.1 0.18a0.756 0.756 0 0 1 -0.044 0.178c0 0.686 0.11 1.18 0.192 1.62 0.106 0.616 0.26 1.066 0.326 1.48l0.016 -0.014c0.468 2.734 1.122 6.266 -0.534 8.096 0.082 0.384 0.138 0.934 0.028 1.566a6.408 6.408 0 0 1 -0.302 1.07 4.58 4.58 0 0 0 -0.216 0.704c-2.2 0.284 -3.51 0.11 -4.12 -0.03 0.246 -0.748 0.814 -1.508 1.752 -1.47 -0.044 -1.822 -0.528 -2.446 -1.022 -3.782 0.79 -1.766 0.598 -3.33 1.242 -5.696 -0.494 0.522 -0.88 2.418 -1.208 3.572 -0.412 1.676 -1.126 3.296 -3.05 4.588 0 0.44 -0.138 0.768 -0.302 0.988 -0.358 0.522 -0.824 0.688 -0.988 1.54 0.22 -0.276 0.52 -0.522 0.52 -0.44a17.02 17.02 0 0 1 -0.05 0.986l0.024 0.002c-0.33 2.088 -1.044 3.05 -1.484 4.23 -0.302 0.852 -0.192 2.72 -0.302 2.748 -0.77 0.166 -1.95 -0.136 -2.28 -0.3 0.324 -2.28 0.038 -4.556 0.872 -7.2l-0.03 -0.012c0.32 -1.108 0.956 -1.756 1.878 -2.928 -0.322 -1.04 -1.064 -3.28 0.532 -8.364 0.066 -0.028 0.134 -0.06 0.21 -0.098l0.412 -0.274c0.08 -0.056 0.192 -0.138 0.274 -0.192 0.138 -0.084 0.742 -0.742 0.824 -0.824 0.192 -0.194 0.33 -0.248 0.384 -0.468 0.11 -0.412 -0.494 -0.824 -0.74 -1.1 -0.036 -0.038 -0.06 -0.068 -0.086 -0.1 0.026 -0.078 0.054 -0.154 0.084 -0.228 0.02 -0.25 0.056 -0.52 0.084 -0.734zm1.766 15.884c0.1 0.004 0.348 0.244 1.502 0.316 1.32 0.08 3.078 -0.166 3.544 -0.276 0.468 -0.11 0.194 0.22 0.138 0.55l-0.052 0.338c-0.798 0.268 -2.016 0.376 -2.832 0.404 -0.786 0.026 -1.692 -0.024 -2.322 -0.22 -0.096 -0.52 -0.126 -0.94 -0.014 -1.1a0.048 0.048 0 0 1 0.036 -0.012zm5.012 1.692c-0.04 0.27 -0.07 0.446 -0.116 0.744 -0.776 0.24 -1.776 0.244 -2.54 0.27a8.826 8.826 0 0 1 -2.024 -0.14 4.13 4.13 0 0 1 -0.066 -0.218 22.686 22.686 0 0 1 -0.13 -0.504c0.358 0.068 1.06 0.158 2.3 0.174a8.284 8.284 0 0 0 2.576 -0.326zm-0.212 1.37c-0.138 0.88 -0.11 3.572 -0.028 4.314 0.028 0.22 1.896 1.044 2.554 1.54 0.214 0.17 0.518 0.314 0.844 0.444 0.084 0.084 0.232 0.21 0.394 0.406 0.324 0.426 0.104 0.872 -0.27 1.052 -0.528 -0.014 -1.136 -0.104 -2.148 -0.256 -1.39 -0.208 -2.258 -0.202 -3.46 -0.212v-0.006c-0.304 -0.55 -0.112 -1.456 -0.112 -1.456a4.4 4.4 0 0 1 -1.618 -0.36l0.024 -0.052c0.468 -0.96 0.44 -1.182 0.302 -2.83 -0.094 -1.156 -0.392 -1.766 -0.67 -2.39 0.338 0.032 0.818 0.07 1.714 0.082a9.134 9.134 0 0 0 2.474 -0.276zm-10.612 4.168c0.486 0 1.2 0.064 1.352 0.2v0.028c0.028 0.33 0.33 0.798 0.22 1.044 -0.054 0.138 -0.192 -0.082 -0.384 -0.136 0.082 0.52 0.302 1.482 0.632 2.224 0.22 0.496 0.082 0.852 -0.66 0.99 -0.66 0.028 -1.51 0 -2.224 -0.166 -0.824 -0.412 -1.1 -0.632 -0.934 -1.4 0.136 -0.55 0.988 -1.18 1.73 -1.676 -0.412 0.028 -0.852 0.33 -0.796 -0.028 0.11 -0.714 0.412 -0.66 0.604 -1.016 -0.04 -0.04 0.168 -0.064 0.46 -0.064z" fill="currentColor" stroke-width="2"></path>
</svg>