<svg xmlns="http://www.w3.org/2000/svg" fill="none" viewBox="-1.5 -1.5 48 48" id="Seafood-Sushi--Streamline-Ultimate" height="48" width="48">
  <desc>
    Seafood Sushi Streamline Icon: https://streamlinehq.com
  </desc>
  <path stroke="currentColor" stroke-linecap="round" stroke-linejoin="round" d="M37.96875 27.1875v5.15625c0 1.49175 -0.5926875 2.9225624999999997 -1.6475625 3.9774375 -1.054875 1.054875 -2.4856875 1.6475625 -3.9774375 1.6475625H12.65625c-1.49184375 0 -2.92258125 -0.5926875 -3.9774749999999996 -1.6475625C7.62388125 35.266312500000005 7.03125 33.8355 7.03125 32.34375V27.1875" stroke-width="3"></path>
  <path stroke="currentColor" stroke-linecap="round" stroke-linejoin="round" d="M22.5 21.09375c3.0290624999999998 -0.0343125 6.032625 0.5570624999999999 8.822437500000001 1.7371874999999999 2.7898125 1.1803124999999999 5.305875 2.923875 7.3906875 5.1215625000000005 0.383625 0.4138125 0.8831249999999999 0.70275 1.43325 0.829125 0.5499375 0.1261875 1.125375 0.0841875 1.6511250000000002 -0.1209375 0.5259375000000001 -0.205125 0.9778125 -0.5636249999999999 1.2971249999999999 -1.029 0.3193125 -0.465375 0.49125 -1.0160625 0.4935 -1.5804375v-0.035625C43.59375 15.530624999999999 34.149375 7.03125 22.5 7.03125S1.40625 15.530624999999999 1.40625 26.015625v0.035625c0.00217875 0.564375 0.174114375 1.1150625 0.49344375 1.5804375 0.31935 0.465375 0.7713 0.823875 1.2971249999999999 1.029 0.525825 0.205125 1.1011875 0.247125 1.651275 0.1209375 0.5500875 -0.12637500000000002 1.0494375 -0.41531250000000003 1.43315625 -0.829125 2.0854125 -2.1984375000000003 4.6024312499999995 -3.9423749999999997 7.3933124999999995 -5.1226875 2.79088125 -1.1801249999999999 5.7954375 -1.7713125 8.8254375 -1.7360624999999998Z" stroke-width="3"></path>
  <path stroke="currentColor" stroke-linecap="round" stroke-linejoin="round" d="m8.84994375 25.614375 7.51875 -17.769450000000003" stroke-width="3"></path>
  <path stroke="currentColor" stroke-linecap="round" stroke-linejoin="round" d="m22.0125 21.09375 5.703749999999999 -13.47748125" stroke-width="3"></path>
  <path stroke="currentColor" stroke-linecap="round" stroke-linejoin="round" d="m32.829375 23.5275 4.614375 -10.910625" stroke-width="3"></path>
</svg>