<svg xmlns="http://www.w3.org/2000/svg" viewBox="0 0 48 48" fill="currentColor" id="Thermometer--Streamline-Phosphor" height="48" width="48">
  <desc>
    Thermometer Streamline Icon: https://streamlinehq.com
  </desc>
  <path d="M36.54645 9.889575c-4.2253687499999995 0 -6.86623125 4.57408125 -4.7535375 8.23336875 2.112675 3.6592687500000003 7.39438125 3.6592687500000003 9.507075 0 0.48174375 -0.8344312500000001 0.735375 -1.78095 0.735375 -2.74445625 0 -3.03144375 -2.4574687500000003 -5.4889125 -5.4889125 -5.4889125Zm0 7.841306250000001c-1.8108749999999998 0.00007500000000000001 -2.9426625 -1.9602 -2.0372812500000004 -3.52850625 0.9053625 -1.5682875 3.16895625 -1.5684 4.07445 -0.00016875 0.2065125 0.35761875 0.315225 0.7633125 0.315225 1.1762812500000002 0 1.29915 -1.05324375 2.3523375 -2.35239375 2.35239375Zm-16.46675625 11.17385625v-12.742125c0 -1.2072375 -1.306875 -1.9617749999999998 -2.35239375 -1.35815625 -0.48521250000000005 0.28014375 -0.7841250000000001 0.79786875 -0.7841250000000001 1.35815625v12.742125c-4.67565 1.20725625 -6.2910562500000005 7.0233187500000005 -2.9077124999999997 10.46893125 3.383325 3.4456125 9.227887500000001 1.9365562500000002 10.5202125 -2.7163125 0.9391499999999999 -3.3812625 -1.07814375 -6.87530625 -4.47598125 -7.75261875Zm-1.5682500000000001 9.21354375c-2.41449375 0.0001125 -3.92353125 -2.6136 -2.7163874999999997 -4.704675 1.2071625 -2.0910562500000003 4.225275 -2.0911875 5.432625 -0.000225 0.275325 0.47683125 0.42028124999999994 1.01775 0.42028124999999994 1.5683812499999998 0 1.7322937499999997 -1.404225 3.1365937500000003 -3.1365187500000005 3.1365187500000005Zm7.841306250000001 -12.93815625V8.32130625c-0.0029625000000000003 -6.036243750000001 -6.53923125 -9.8056875 -11.7652875 -6.785024999999999C12.164418750000001 2.9368125000000003 10.67150625 5.522625 10.670137500000001 8.32130625v16.85881875c-7.5392625 6.036243750000001 -5.7168937500000006 17.970375 3.2802937500000002 21.48144375 8.99716875 3.5110875 18.4212375 -4.0342312499999995 16.963331250000003 -13.58154375 -0.47525625 -3.11229375 -2.1033 -5.9321625000000004 -4.5610124999999995 -7.899900000000001ZM18.511443749999998 44.39131875c-7.243499999999999 0.00065625 -11.771306249999999 -7.84025625 -8.15011875 -14.113612499999999 0.69170625 -1.1983312499999998 1.6391625 -2.2293562500000004 2.77490625 -3.0196500000000004 0.4224375 -0.29495625 0.6730499999999999 -0.77859375 0.670425 -1.2938062499999998V8.32130625c0 -3.6217499999999996 3.92064375 -5.885325 7.05718125 -4.074468749999999 1.4556562499999999 0.8404312500000001 2.35239375 2.39360625 2.35239375 4.074468749999999v17.64294375c-0.00005625 0.51245625 0.25025625 0.9926062499999999 0.670425 1.28596875 5.9517375 4.128562499999999 5.20228125 13.15185 -1.34900625 16.241925 -1.25904375 0.59386875 -2.63415 0.9009562500000001 -4.0262062499999995 0.8991750000000001Z" stroke-width="0.1875"></path>
</svg>