<svg xmlns="http://www.w3.org/2000/svg" viewBox="0 0 48 48" id="Trash-Waste--Streamline-Nasty" height="48" width="48">
  <desc>
    Trash Waste Streamline Icon: https://streamlinehq.com
  </desc>
  <g>
    <path d="m42.528 33.272000000000006 0.96 -2.64a0.8720000000000001 0.8720000000000001 0 0 0 -0.16000000000000003 -0.8 0.8 0.8 0 0 0 -0.8 -0.24l-2.08 0.7200000000000001 -1.2800000000000002 -0.6400000000000001a0.8800000000000001 0.8800000000000001 0 0 0 -0.8800000000000001 0.08000000000000002 0.7280000000000001 0.7280000000000001 0 0 0 -0.24 0.8l0.6400000000000001 2.4800000000000004c-2.4000000000000004 0.8 -4.24 3.2 -5.04 5.84L34.688 18.400000000000002h1.04a0.8 0.8 0 0 0 0 -1.6h-2.2399999999999998c-0.32000000000000006 -3.3600000000000003 -2.16 -6.96 -4.88 -8.24l1.2800000000000002 -2.5600000000000005a0.7280000000000001 0.7280000000000001 0 0 0 -0.16000000000000003 -0.8800000000000001 0.9039999999999999 0.9039999999999999 0 0 0 -0.8800000000000001 -0.24l-2.16 0.7200000000000001 -2.16 -0.7200000000000001a0.7280000000000001 0.7280000000000001 0 0 0 -0.8 0.24 0.8720000000000001 0.8720000000000001 0 0 0 -0.16000000000000003 0.8800000000000001l0.96 2.2399999999999998a8.632 8.632 0 0 0 -4.64 3.6h-0.08000000000000002V8.8a0.8 0.8 0 0 0 -0.48 -0.7200000000000001 0.7280000000000001 0.7280000000000001 0 0 0 -0.8800000000000001 0.16000000000000003l-1.6 1.4400000000000002h-2.08a0.8 0.8 0 0 0 -0.7200000000000001 0.48 0.8560000000000001 0.8560000000000001 0 0 0 0.08000000000000002 0.8800000000000001l1.7600000000000002 2.16a7.88 7.88 0 0 0 -2.32 3.6799999999999997h-1.8399999999999999a0.8 0.8 0 0 0 0 1.6h0.6400000000000001l0.5599999999999999 10.32a9.456000000000001 9.456000000000001 0 0 0 -2.8000000000000003 -0.8800000000000001V24a0.8400000000000001 0.8400000000000001 0 0 0 -0.4 -0.7200000000000001 0.7280000000000001 0.7280000000000001 0 0 0 -0.8 0l-2.4000000000000004 1.52h-2.2399999999999998a0.8400000000000001 0.8400000000000001 0 0 0 -0.7200000000000001 0.4 0.7280000000000001 0.7280000000000001 0 0 0 0 0.8l1.7600000000000002 2.8800000000000003a9.64 9.64 0 0 0 -3.3600000000000003 4.08c-1.6 3.2 -1.92 7.040000000000001 -0.8 9.76 1.7600000000000002 4.4799999999999995 4.720000000000001 4.4799999999999995 11.120000000000001 4.4799999999999995a6.816 6.816 0 0 0 1.8399999999999999 -0.24 0.7280000000000001 0.7280000000000001 0 0 0 0.5599999999999999 0.24h17.6a0.8 0.8 0 0 0 0.8 -0.7200000000000001l0.16000000000000003 -3.3600000000000003c0.48 1.92 2.08 4.08 7.040000000000001 4.08 6.24 0 7.2 -3.5200000000000005 7.2 -5.6000000000000005 0 -3.28 -2.08 -7.040000000000001 -4.960000000000001 -8.32Zm-16.080000000000002 -26.160000000000004a0.512 0.512 0 0 0 0.48 0l0.6400000000000001 -0.24 -0.5599999999999999 1.1199999999999999h-0.8800000000000001l-0.4 -1.1199999999999999 0.7200000000000001 0.24Zm0.16000000000000003 2.4800000000000004c2.8800000000000003 0.32000000000000006 4.960000000000001 3.84 5.28 7.2h-5.44a10.504000000000001 10.504000000000001 0 0 0 -4.960000000000001 -4.5600000000000005c1.2800000000000002 -1.52 3.12 -2.8800000000000003 5.120000000000001 -2.64Zm-10.240000000000002 1.6h0.7200000000000001a1.4800000000000002 1.4800000000000002 0 0 0 0.5599999999999999 -0.16000000000000003l0.48 -0.4V12c-0.16000000000000003 0 -0.32000000000000006 0.08000000000000002 -0.48 0.08000000000000002a1.136 1.136 0 0 1 -0.48 0.16000000000000003l-0.8 -1.04Zm1.7600000000000002 2.4000000000000004c2.16 -0.7200000000000001 4.800000000000001 0.96 6.4 3.2H15.200000000000001a5.36 5.36 0 0 1 2.9600000000000004 -3.2ZM5.728000000000001 26.400000000000002h0.96a3.4640000000000004 3.4640000000000004 0 0 0 0.4 -0.08000000000000002l1.4400000000000002 -0.8800000000000001v2.4000000000000004a3.2 3.2 0 0 0 -1.2000000000000002 0.24c-0.16000000000000003 0.08000000000000002 -0.32000000000000006 0.08000000000000002 -0.48 0.16000000000000003L5.728000000000001 26.400000000000002Zm-3.12 15.680000000000001c-0.8800000000000001 -2.2399999999999998 -0.5599999999999999 -5.68 0.8 -8.4a8.6 8.6 0 0 1 3.04 -3.6h0.08000000000000002a0.6000000000000001 0.6000000000000001 0 0 0 0.4 -0.08000000000000002l0.24 -0.24a2.032 2.032 0 0 1 0.5599999999999999 -0.16000000000000003 4.720000000000001 4.720000000000001 0 0 1 1.1199999999999999 -0.16000000000000003 1.136 1.136 0 0 0 0.48 0.16000000000000003 1.136 1.136 0 0 0 0.48 -0.16000000000000003 7.336 7.336 0 0 1 3.2 1.1199999999999999l0.8 14.8a4.656000000000001 4.656000000000001 0 0 1 -1.52 0.24c-6.640000000000001 0 -8.32 -0.16000000000000003 -9.68 -3.5200000000000005Zm28.960000000000004 3.5200000000000005h-16.080000000000002l-1.52 -27.12h0.16000000000000003a0.6080000000000001 0.6080000000000001 0 0 0 0.32000000000000006 -0.08000000000000002h18.72l-1.6 27.200000000000003Zm8.32 -13.680000000000001a0.9039999999999999 0.9039999999999999 0 0 0 0.6400000000000001 0.08000000000000002l0.8 -0.24 -0.4 1.2000000000000002a0.8640000000000001 0.8640000000000001 0 0 0 -0.6400000000000001 -0.16000000000000003h-0.16000000000000003l-0.24 -0.8800000000000001Zm0.4 13.680000000000001c-5.6000000000000005 0 -5.6000000000000005 -3.04 -5.6000000000000005 -4 0 -3.28 2.5600000000000005 -7.2 5.6000000000000005 -7.2s5.6000000000000005 3.9200000000000004 5.6000000000000005 7.2c0 0.96 0 4 -5.6000000000000005 4Z" fill="currentColor" fill-rule="evenodd" stroke-width="0.8"></path>
    <path d="M29.168000000000003 23.200000000000003a0.8720000000000001 0.8720000000000001 0 0 0 -0.8800000000000001 0.7200000000000001l-0.8 14.4a0.8720000000000001 0.8720000000000001 0 0 0 0.7200000000000001 0.8800000000000001h0.08000000000000002a0.8 0.8 0 0 0 0.8 -0.7200000000000001l0.8 -14.4a0.8 0.8 0 0 0 -0.7200000000000001 -0.8800000000000001" fill="currentColor" fill-rule="evenodd" stroke-width="0.8"></path>
    <path d="M17.888 23.200000000000003a0.7200000000000001 0.7200000000000001 0 0 0 -0.7200000000000001 0.8800000000000001l0.8 14.4a0.8 0.8 0 0 0 0.8 0.7200000000000001h0.08000000000000002a0.7200000000000001 0.7200000000000001 0 0 0 0.7200000000000001 -0.8800000000000001l-0.8 -14.4a0.9359999999999999 0.9359999999999999 0 0 0 -0.8800000000000001 -0.7200000000000001" fill="currentColor" fill-rule="evenodd" stroke-width="0.8"></path>
    <path d="M23.728 23.200000000000003a0.752 0.752 0 0 0 -0.8 0.8v14.4a0.8 0.8 0 0 0 1.6 0V24a0.752 0.752 0 0 0 -0.8 -0.8" fill="currentColor" fill-rule="evenodd" stroke-width="0.8"></path>
    <path d="M6.688 17.6a0.8 0.8 0 0 0 0 -1.6 2.288 2.288 0 0 1 -2.4000000000000004 -2.4000000000000004c0 -1.1199999999999999 0.4 -1.2800000000000002 1.1199999999999999 -1.6800000000000002a3.056 3.056 0 0 0 2.08 -3.12 3.664 3.664 0 0 0 -2.08 -3.5200000000000005 0.7040000000000001 0.7040000000000001 0 0 0 -1.04 0.32000000000000006A0.8 0.8 0 0 0 4.800000000000001 6.632a2.088 2.088 0 0 1 1.2000000000000002 2.08c0 1.1199999999999999 -0.4 1.2800000000000002 -1.1199999999999999 1.6800000000000002a3.056 3.056 0 0 0 -2.08 3.12A3.776 3.776 0 0 0 6.688 17.6" fill="currentColor" fill-rule="evenodd" stroke-width="0.8"></path>
    <path d="M43.488 22.792a0.8 0.8 0 0 0 0 1.6 3.848 3.848 0 0 0 4 -4 3.056 3.056 0 0 0 -2.08 -3.12c-0.7200000000000001 -0.4 -1.1199999999999999 -0.5599999999999999 -1.1199999999999999 -1.6800000000000002a2.088 2.088 0 0 1 1.2000000000000002 -2.08 0.8 0.8 0 1 0 -0.6400000000000001 -1.4400000000000002 3.664 3.664 0 0 0 -2.08 3.5200000000000005 3.056 3.056 0 0 0 2.08 3.12c0.7200000000000001 0.4 1.1199999999999999 0.5599999999999999 1.1199999999999999 1.6800000000000002a2.4000000000000004 2.4000000000000004 0 0 1 -2.4800000000000004 2.4000000000000004" fill="currentColor" fill-rule="evenodd" stroke-width="0.8"></path>
    <path d="M37.888 11.592a0.8 0.8 0 0 0 0 1.6 3.848 3.848 0 0 0 4 -4 3.056 3.056 0 0 0 -2.08 -3.12c-0.7200000000000001 -0.4 -1.1199999999999999 -0.5599999999999999 -1.1199999999999999 -1.6800000000000002a2.088 2.088 0 0 1 1.2000000000000002 -2.08 0.8 0.8 0 1 0 -0.6400000000000001 -1.4400000000000002 3.664 3.664 0 0 0 -2.08 3.5200000000000005 3.056 3.056 0 0 0 2.08 3.12c0.7200000000000001 0.4 1.1199999999999999 0.5599999999999999 1.1199999999999999 1.6800000000000002a2.4000000000000004 2.4000000000000004 0 0 1 -2.4800000000000004 2.4000000000000004" fill="currentColor" fill-rule="evenodd" stroke-width="0.8"></path>
  </g>
</svg>