<svg viewBox="-1.5 -1.5 48 48" fill="none" xmlns="http://www.w3.org/2000/svg" id="Tv--Streamline-Solar-Ar" height="48" width="48">
  <desc>
    TV Streamline Icon: https://streamlinehq.com
  </desc>
  <path d="M41.25 30c0 5.303249999999999 0 7.954875 -1.6475625 9.602437499999999C37.954875 41.25 35.30325 41.25 30 41.25l-15 0c-5.30330625 0 -7.954949999999999 0 -9.602475 -1.6475625C3.75 37.954875 3.75 35.30325 3.75 30l0 -7.5c0 -5.30330625 0 -7.954949999999999 1.6475250000000001 -9.602475C7.04505 11.25 9.69669375 11.25 15 11.25l15 0c5.303249999999999 0 7.954875 0 9.602437499999999 1.6475250000000001C41.25 14.54505 41.25 17.196693749999998 41.25 22.5v7.5Z" stroke="currentColor" stroke-width="3"></path>
  <path d="m16.875 3.75 5.625 6.5625L28.125 3.75" stroke="currentColor" stroke-linecap="round" stroke-width="3"></path>
  <path d="M30 11.25v30" stroke="currentColor" stroke-linecap="round" stroke-width="3"></path>
  <path d="M37.5 30c0 -1.0355625 -0.8394375 -1.875 -1.875 -1.875s-1.875 0.8394375 -1.875 1.875 0.8394375 1.875 1.875 1.875 1.875 -0.8394375 1.875 -1.875Z" fill="currentColor" stroke-width="3"></path>
  <path d="M37.5 22.5c0 -1.0355625 -0.8394375 -1.875 -1.875 -1.875s-1.875 0.8394375 -1.875 1.875 0.8394375 1.875 1.875 1.875 1.875 -0.8394375 1.875 -1.875Z" fill="currentColor" stroke-width="3"></path>
</svg>