<svg xmlns="http://www.w3.org/2000/svg" fill="none" viewBox="-1.5 -1.5 48 48" id="Monitor-Sync--Streamline-Ultimate" height="48" width="48">
  <desc>
    Monitor Sync Streamline Icon: https://streamlinehq.com
  </desc>
  <path stroke="#000000" stroke-linecap="round" stroke-linejoin="round" d="m15.46875 37.96875 1.40625 -8.4375" stroke-width="3"></path>
  <path stroke="#000000" stroke-linecap="round" stroke-linejoin="round" d="M11.25 37.96875h4.21875" stroke-width="3"></path>
  <path stroke="#000000" stroke-linecap="round" stroke-linejoin="round" d="M1.40625 22.03125h16.875" stroke-width="3"></path>
  <path stroke="#000000" stroke-linecap="round" stroke-linejoin="round" d="M16.875 29.53125H7.03125c-1.49184375 0 -2.92258125 -0.5926875 -3.9774749999999996 -1.6475625C1.9988812500000002 26.8288125 1.40625 25.398 1.40625 23.90625v-16.875c0 -1.49184375 0.59263125 -2.92258125 1.6475250000000001 -3.9774749999999996C4.10866875 1.9988812500000002 5.53940625 1.40625 7.03125 1.40625h30.9375c1.49175 0 2.9225624999999997 0.59263125 3.9774375 1.6475250000000001 1.054875 1.0548937500000002 1.6475625 2.48563125 1.6475625 3.9774749999999996v8.4375" stroke-width="3"></path>
  <path stroke="#000000" stroke-linecap="round" stroke-linejoin="round" d="M28.125 35.15625h-7.03125v7.03125" stroke-width="3"></path>
  <path stroke="#000000" stroke-linecap="round" stroke-linejoin="round" d="M42.506437500000004 36.525c-0.7419375 2.1789375 -2.1828749999999997 4.0516875 -4.09875 5.3274375 -1.915875 1.2755625 -4.199624999999999 1.8825 -6.496125 1.7263125 -2.2963125 -0.156 -4.4769375 -1.0663125 -6.2026875 -2.5895625 -1.72575 -1.5230625 -2.8998749999999998 -3.57375 -3.3399375 -5.8329375" stroke-width="3"></path>
  <path stroke="#000000" stroke-linecap="round" stroke-linejoin="round" d="M36.5625 29.53125h7.03125V22.5" stroke-width="3"></path>
  <path stroke="#000000" stroke-linecap="round" stroke-linejoin="round" d="M22.18125 28.125c0.74175 -2.1789375 2.1826874999999997 -4.051875 4.0985625 -5.3274375 1.915875 -1.2755625 4.199624999999999 -1.8825 6.496125 -1.7265 2.2963125 0.1561875 4.4769375 1.0665 6.2026875 2.5895625 1.72575 1.52325 2.8998749999999998 3.57375 3.340125 5.833125000000001" stroke-width="3"></path>
</svg>