<svg width="26" height="27" viewBox="0 0 26 27" fill="none" xmlns="http://www.w3.org/2000/svg">
<path d="M13.0001 0.666828H14.1667V1.83349H15.3334V3.00016H16.5001V4.16683H17.6667V5.33349H18.8334V6.50016H20.0001V7.66683H21.1667V8.83349H22.3334V10.0002H23.5001V11.1668H24.6667V12.3335H25.8334V14.6668H24.6667V15.8335H23.5001V17.0002H22.3334V18.1668H21.1667V19.3335H20.0001V20.5002H18.8334V21.6668H17.6667V22.8335H16.5001V24.0002H15.3334V25.1668H14.1667V26.3335H13.0001V25.1668H11.8334V24.0002H13.0001V22.8335H14.1667V21.6668H15.3334V20.5002H16.5001V19.3335H17.6667V18.1668H18.8334V17.0002H20.0001V15.8335H21.1667V14.6668L0.166748 14.6668L0.166748 12.3335L21.1667 12.3335V11.1668H20.0001V10.0002H18.8334V8.83349H17.6667V7.66683H16.5001V6.50016H15.3334V5.33349H14.1667V4.16683H13.0001V3.00016H11.8334V1.83349H13.0001V0.666828Z" fill="white"/>
</svg>
