<svg width="26" height="26" viewBox="0 0 26 26" fill="none" xmlns="http://www.w3.org/2000/svg">
<path d="M13 25.8332H11.8334V24.6665H10.6667V23.4998H9.50004V22.3332H8.33337V21.1665H7.16671V19.9998H6.00004V18.8332H4.83337V17.6665H3.66671V16.4998H2.50004V15.3332H1.33337V14.1665H0.166708V11.8332H1.33337V10.6665H2.50004V9.49984H3.66671V8.33317H4.83337V7.1665H6.00004V5.99984H7.16671V4.83317H8.33337V3.6665H9.50004V2.49984H10.6667V1.33317H11.8334V0.166504L13 0.166504V1.33317L14.1667 1.33317V2.49984H13V3.6665H11.8334V4.83317H10.6667V5.99984H9.50004V7.1665H8.33337V8.33317H7.16671V9.49984H6.00004V10.6665H4.83337V11.8332L25.8334 11.8332V14.1665L4.83337 14.1665V15.3332H6.00004V16.4998H7.16671V17.6665H8.33337V18.8332H9.50004V19.9998H10.6667V21.1665H11.8334V22.3332H13V23.4998H14.1667V24.6665H13V25.8332Z" fill="#7B3994"/>
</svg>
