<svg width="2123" height="1575" viewBox="0 0 2123 1575" fill="none" xmlns="http://www.w3.org/2000/svg">
<g opacity="0.15" filter="url(#filter0_g_115_88)">
<mask id="mask0_115_88" style="mask-type:alpha" maskUnits="userSpaceOnUse" x="1858" y="420" width="261" height="272">
<line x1="1859" y1="426" x2="2119" y2="426" stroke="#0165FF" stroke-width="4"/>
<line x1="1859" y1="442" x2="2119" y2="442" stroke="#0165FF" stroke-width="4"/>
<line x1="1859" y1="458" x2="2119" y2="458" stroke="#0165FF" stroke-width="4"/>
<line x1="1859" y1="474" x2="2119" y2="474" stroke="#0165FF" stroke-width="4"/>
<line x1="1859" y1="490" x2="2119" y2="490" stroke="#0165FF" stroke-width="4"/>
<line x1="1859" y1="506" x2="2119" y2="506" stroke="#0165FF" stroke-width="4"/>
<line x1="1859" y1="522" x2="2119" y2="522" stroke="#0165FF" stroke-width="4"/>
<line x1="1859" y1="538" x2="2119" y2="538" stroke="#0165FF" stroke-width="4"/>
<line x1="1859" y1="554" x2="2119" y2="554" stroke="#0165FF" stroke-width="4"/>
<line x1="1859" y1="570" x2="2119" y2="570" stroke="#0165FF" stroke-width="4"/>
<line x1="1859" y1="586" x2="2119" y2="586" stroke="#0165FF" stroke-width="4"/>
<line x1="1859" y1="602" x2="2119" y2="602" stroke="#0165FF" stroke-width="4"/>
<line x1="1859" y1="618" x2="2119" y2="618" stroke="#0165FF" stroke-width="4"/>
<line x1="1859" y1="634" x2="2119" y2="634" stroke="#0165FF" stroke-width="4"/>
<line x1="1859" y1="650" x2="2119" y2="650" stroke="#0165FF" stroke-width="4"/>
<line x1="1859" y1="666" x2="2119" y2="666" stroke="#0165FF" stroke-width="4"/>
<line x1="1859" y1="682" x2="2119" y2="682" stroke="#0165FF" stroke-width="4"/>
</mask>
<g mask="url(#mask0_115_88)">
<circle cx="1989" cy="556" r="130" fill="url(#paint0_linear_115_88)"/>
</g>
</g>
<g opacity="0.15" filter="url(#filter1_g_115_88)">
<mask id="mask1_115_88" style="mask-type:alpha" maskUnits="userSpaceOnUse" x="1858" y="420" width="261" height="272">
<line x1="1859" y1="426" x2="2119" y2="426" stroke="#0165FF" stroke-width="4"/>
<line x1="1859" y1="442" x2="2119" y2="442" stroke="#0165FF" stroke-width="4"/>
<line x1="1859" y1="458" x2="2119" y2="458" stroke="#0165FF" stroke-width="4"/>
<line x1="1859" y1="474" x2="2119" y2="474" stroke="#0165FF" stroke-width="4"/>
<line x1="1859" y1="490" x2="2119" y2="490" stroke="#0165FF" stroke-width="4"/>
<line x1="1859" y1="506" x2="2119" y2="506" stroke="#0165FF" stroke-width="4"/>
<line x1="1859" y1="522" x2="2119" y2="522" stroke="#0165FF" stroke-width="4"/>
<line x1="1859" y1="538" x2="2119" y2="538" stroke="#0165FF" stroke-width="4"/>
<line x1="1859" y1="554" x2="2119" y2="554" stroke="#0165FF" stroke-width="4"/>
<line x1="1859" y1="570" x2="2119" y2="570" stroke="#0165FF" stroke-width="4"/>
<line x1="1859" y1="586" x2="2119" y2="586" stroke="#0165FF" stroke-width="4"/>
<line x1="1859" y1="602" x2="2119" y2="602" stroke="#0165FF" stroke-width="4"/>
<line x1="1859" y1="618" x2="2119" y2="618" stroke="#0165FF" stroke-width="4"/>
<line x1="1859" y1="634" x2="2119" y2="634" stroke="#0165FF" stroke-width="4"/>
<line x1="1859" y1="650" x2="2119" y2="650" stroke="#0165FF" stroke-width="4"/>
<line x1="1859" y1="666" x2="2119" y2="666" stroke="#0165FF" stroke-width="4"/>
<line x1="1859" y1="682" x2="2119" y2="682" stroke="#0165FF" stroke-width="4"/>
</mask>
<g mask="url(#mask1_115_88)">
<circle cx="1989" cy="556" r="130" fill="url(#paint1_linear_115_88)"/>
</g>
</g>
<g opacity="0.35" filter="url(#filter2_g_115_88)">
<mask id="mask2_115_88" style="mask-type:alpha" maskUnits="userSpaceOnUse" x="67" y="-116" width="260" height="272">
<line x1="67" y1="2" x2="327" y2="2" stroke="#0165FF" stroke-width="4"/>
<line x1="67" y1="18" x2="327" y2="18" stroke="#0165FF" stroke-width="4"/>
<line x1="67" y1="34" x2="327" y2="34" stroke="#0165FF" stroke-width="4"/>
<line x1="67" y1="50" x2="327" y2="50" stroke="#0165FF" stroke-width="4"/>
<line x1="67" y1="66" x2="327" y2="66" stroke="#0165FF" stroke-width="4"/>
<line x1="67" y1="82" x2="327" y2="82" stroke="#0165FF" stroke-width="4"/>
<line x1="67" y1="98" x2="327" y2="98" stroke="#0165FF" stroke-width="4"/>
<line x1="67" y1="114" x2="327" y2="114" stroke="#0165FF" stroke-width="4"/>
<line x1="67" y1="130" x2="327" y2="130" stroke="#0165FF" stroke-width="4"/>
<line x1="67" y1="146" x2="327" y2="146" stroke="#0165FF" stroke-width="4"/>
</mask>
<g mask="url(#mask2_115_88)">
<circle cx="197" cy="20" r="130" fill="url(#paint2_linear_115_88)"/>
</g>
</g>
<g opacity="0.35" filter="url(#filter3_g_115_88)">
<mask id="mask3_115_88" style="mask-type:alpha" maskUnits="userSpaceOnUse" x="-14" y="961" width="320" height="323">
<line x1="52.8337" y1="967.025" x2="303.974" y2="1034.32" stroke="#0165FF" stroke-width="4"/>
<line x1="48.6926" y1="982.48" x2="299.833" y2="1049.77" stroke="#0165FF" stroke-width="4"/>
<line x1="44.5515" y1="997.935" x2="295.692" y2="1065.23" stroke="#0165FF" stroke-width="4"/>
<line x1="40.4104" y1="1013.39" x2="291.551" y2="1080.68" stroke="#0165FF" stroke-width="4"/>
<line x1="36.2693" y1="1028.84" x2="287.41" y2="1096.14" stroke="#0165FF" stroke-width="4"/>
<line x1="32.1282" y1="1044.3" x2="283.269" y2="1111.59" stroke="#0165FF" stroke-width="4"/>
<line x1="27.9871" y1="1059.75" x2="279.128" y2="1127.05" stroke="#0165FF" stroke-width="4"/>
<line x1="23.846" y1="1075.21" x2="274.987" y2="1142.5" stroke="#0165FF" stroke-width="4"/>
<line x1="19.7049" y1="1090.66" x2="270.846" y2="1157.96" stroke="#0165FF" stroke-width="4"/>
<line x1="15.5638" y1="1106.12" x2="266.704" y2="1173.41" stroke="#0165FF" stroke-width="4"/>
<line x1="11.4227" y1="1121.57" x2="262.563" y2="1188.87" stroke="#0165FF" stroke-width="4"/>
<line x1="7.28155" y1="1137.03" x2="258.422" y2="1204.32" stroke="#0165FF" stroke-width="4"/>
<line x1="3.14046" y1="1152.48" x2="254.281" y2="1219.78" stroke="#0165FF" stroke-width="4"/>
<line x1="-1.00064" y1="1167.94" x2="250.14" y2="1235.23" stroke="#0165FF" stroke-width="4"/>
<line x1="-5.14176" y1="1183.39" x2="245.999" y2="1250.69" stroke="#0165FF" stroke-width="4"/>
<line x1="-9.28285" y1="1198.85" x2="241.858" y2="1266.14" stroke="#0165FF" stroke-width="4"/>
<line x1="-13.424" y1="1214.3" x2="237.717" y2="1281.6" stroke="#0165FF" stroke-width="4"/>
</mask>
<g mask="url(#mask3_115_88)">
<path opacity="0.5" d="M173.745 1018.06L235.862 1249.88L4.0397 1187.76L173.745 1018.06Z" fill="url(#paint3_linear_115_88)"/>
</g>
</g>
<g opacity="0.35" filter="url(#filter4_g_115_88)">
<mask id="mask4_115_88" style="mask-type:alpha" maskUnits="userSpaceOnUse" x="1410" y="1262" width="341" height="343">
<line x1="1412.59" y1="1365.1" x2="1653.66" y2="1267.7" stroke="#0165FF" stroke-width="4"/>
<line x1="1418.59" y1="1379.93" x2="1659.65" y2="1282.53" stroke="#0165FF" stroke-width="4"/>
<line x1="1424.58" y1="1394.77" x2="1665.65" y2="1297.37" stroke="#0165FF" stroke-width="4"/>
<line x1="1430.57" y1="1409.6" x2="1671.64" y2="1312.2" stroke="#0165FF" stroke-width="4"/>
<line x1="1436.57" y1="1424.44" x2="1677.63" y2="1327.04" stroke="#0165FF" stroke-width="4"/>
<line x1="1442.56" y1="1439.27" x2="1683.63" y2="1341.87" stroke="#0165FF" stroke-width="4"/>
<line x1="1448.55" y1="1454.11" x2="1689.62" y2="1356.71" stroke="#0165FF" stroke-width="4"/>
<line x1="1454.55" y1="1468.94" x2="1695.62" y2="1371.54" stroke="#0165FF" stroke-width="4"/>
<line x1="1460.54" y1="1483.78" x2="1701.61" y2="1386.38" stroke="#0165FF" stroke-width="4"/>
<line x1="1466.54" y1="1498.61" x2="1707.6" y2="1401.21" stroke="#0165FF" stroke-width="4"/>
<line x1="1472.53" y1="1513.45" x2="1713.6" y2="1416.05" stroke="#0165FF" stroke-width="4"/>
<line x1="1478.52" y1="1528.28" x2="1719.59" y2="1430.88" stroke="#0165FF" stroke-width="4"/>
<line x1="1484.52" y1="1543.12" x2="1725.58" y2="1445.72" stroke="#0165FF" stroke-width="4"/>
<line x1="1490.51" y1="1557.95" x2="1731.58" y2="1460.55" stroke="#0165FF" stroke-width="4"/>
<line x1="1496.5" y1="1572.79" x2="1737.57" y2="1475.39" stroke="#0165FF" stroke-width="4"/>
<line x1="1502.5" y1="1587.62" x2="1743.57" y2="1490.22" stroke="#0165FF" stroke-width="4"/>
<line x1="1508.49" y1="1602.46" x2="1749.56" y2="1505.06" stroke="#0165FF" stroke-width="4"/>
</mask>
<g mask="url(#mask4_115_88)">
<path opacity="0.5" d="M1539.87 1333.09L1728.99 1480.85L1506.47 1570.75L1539.87 1333.09Z" fill="url(#paint4_linear_115_88)"/>
</g>
</g>
<defs>
<filter id="filter0_g_115_88" x="1855" y="422" width="268" height="268" filterUnits="userSpaceOnUse" color-interpolation-filters="sRGB">
<feFlood flood-opacity="0" result="BackgroundImageFix"/>
<feBlend mode="normal" in="SourceGraphic" in2="BackgroundImageFix" result="shape"/>
<feTurbulence type="fractalNoise" baseFrequency="0.55555558204650879 0.55555558204650879" numOctaves="3" seed="6492" />
<feDisplacementMap in="shape" scale="8" xChannelSelector="R" yChannelSelector="G" result="displacedImage" width="100%" height="100%" />
<feMerge result="effect1_texture_115_88">
<feMergeNode in="displacedImage"/>
</feMerge>
</filter>
<filter id="filter1_g_115_88" x="1855" y="422" width="268" height="268" filterUnits="userSpaceOnUse" color-interpolation-filters="sRGB">
<feFlood flood-opacity="0" result="BackgroundImageFix"/>
<feBlend mode="normal" in="SourceGraphic" in2="BackgroundImageFix" result="shape"/>
<feTurbulence type="fractalNoise" baseFrequency="0.55555558204650879 0.55555558204650879" numOctaves="3" seed="6492" />
<feDisplacementMap in="shape" scale="8" xChannelSelector="R" yChannelSelector="G" result="displacedImage" width="100%" height="100%" />
<feMerge result="effect1_texture_115_88">
<feMergeNode in="displacedImage"/>
</feMerge>
</filter>
<filter id="filter2_g_115_88" x="63" y="-114" width="268" height="268" filterUnits="userSpaceOnUse" color-interpolation-filters="sRGB">
<feFlood flood-opacity="0" result="BackgroundImageFix"/>
<feBlend mode="normal" in="SourceGraphic" in2="BackgroundImageFix" result="shape"/>
<feTurbulence type="fractalNoise" baseFrequency="0.55555558204650879 0.55555558204650879" numOctaves="3" seed="2467" />
<feDisplacementMap in="shape" scale="8" xChannelSelector="R" yChannelSelector="G" result="displacedImage" width="100%" height="100%" />
<feMerge result="effect1_texture_115_88">
<feMergeNode in="displacedImage"/>
</feMerge>
</filter>
<filter id="filter3_g_115_88" x="-0.000137329" y="983" width="293.657" height="271.029" filterUnits="userSpaceOnUse" color-interpolation-filters="sRGB">
<feFlood flood-opacity="0" result="BackgroundImageFix"/>
<feBlend mode="normal" in="SourceGraphic" in2="BackgroundImageFix" result="shape"/>
<feTurbulence type="fractalNoise" baseFrequency="0.55555558204650879 0.55555558204650879" numOctaves="3" seed="2467" />
<feDisplacementMap in="shape" scale="8" xChannelSelector="R" yChannelSelector="G" result="displacedImage" width="100%" height="100%" />
<feMerge result="effect1_texture_115_88">
<feMergeNode in="displacedImage"/>
</feMerge>
</filter>
<filter id="filter4_g_115_88" x="1424.61" y="1284.13" width="308.442" height="290.76" filterUnits="userSpaceOnUse" color-interpolation-filters="sRGB">
<feFlood flood-opacity="0" result="BackgroundImageFix"/>
<feBlend mode="normal" in="SourceGraphic" in2="BackgroundImageFix" result="shape"/>
<feTurbulence type="fractalNoise" baseFrequency="0.55555558204650879 0.55555558204650879" numOctaves="3" seed="2467" />
<feDisplacementMap in="shape" scale="8" xChannelSelector="R" yChannelSelector="G" result="displacedImage" width="100%" height="100%" />
<feMerge result="effect1_texture_115_88">
<feMergeNode in="displacedImage"/>
</feMerge>
</filter>
<linearGradient id="paint0_linear_115_88" x1="1989" y1="426" x2="1989" y2="686" gradientUnits="userSpaceOnUse">
<stop stop-color="#006FFF"/>
<stop offset="0.701951" stop-color="#490099"/>
</linearGradient>
<linearGradient id="paint1_linear_115_88" x1="1989" y1="426" x2="1989" y2="686" gradientUnits="userSpaceOnUse">
<stop stop-color="#006FFF"/>
<stop offset="0.701951" stop-color="#490099"/>
</linearGradient>
<linearGradient id="paint2_linear_115_88" x1="302" y1="112" x2="86" y2="-86.5" gradientUnits="userSpaceOnUse">
<stop stop-color="#5760FF"/>
<stop offset="1" stop-color="#001552"/>
</linearGradient>
<linearGradient id="paint3_linear_115_88" x1="173.745" y1="1018.06" x2="119.951" y2="1218.82" gradientUnits="userSpaceOnUse">
<stop stop-color="#0A2CED"/>
<stop offset="1" stop-color="#982B82"/>
</linearGradient>
<linearGradient id="paint4_linear_115_88" x1="1539.87" y1="1333.09" x2="1617.73" y2="1525.8" gradientUnits="userSpaceOnUse">
<stop stop-color="#0AEDE1"/>
<stop offset="1" stop-color="#982B82"/>
</linearGradient>
</defs>
</svg>
