<svg width="48" height="45" viewBox="0 0 48 45" fill="none" xmlns="http://www.w3.org/2000/svg">
<g clip-path="url(#clip0_2007_210)">
<path d="M24.2118 3.86342V1.962H22.1891V0H16.1209V1.962H14.0983V3.98466H12.0757V1.962H10.0528V0H3.98493V1.962H1.962V3.86342H0V12.0314H1.962V13.9328H3.98493V15.9555H6.00751V17.9783H8.03017V20.001H10.0528V22.0237H12.0757V24.0465H14.0983V22.0237H16.1209V20.001H18.1439V17.9783H20.1664V15.9555H22.1891V13.9328H24.2118V12.0314H26.174V3.86342H24.2118Z" fill="currentColor"/>
<path fill-rule="evenodd" clip-rule="evenodd" d="M41.6545 14.2198L48.0001 20.6264L26.8667 41.963L17.6099 44.9022L20.8481 35.2264L41.6545 14.2198Z" fill="currentColor"/>
</g>
<defs>
<clipPath id="clip0_2007_210">
<rect width="48" height="45" fill="currentColor"/>
</clipPath>
</defs>
</svg>
