<svg width="256" height="227" viewBox="0 0 256 227" fill="none" xmlns="http://www.w3.org/2000/svg">
<g clip-path="url(#clip0_3_47)">
<g clip-path="url(#clip1_3_47)">
<path d="M107 96H-69.55V-6.81035H-65.8833V92.3172H103.333V-77.8262H-65.8833V-75.1255H-69.55V-81.509H107V96Z" fill="black"/>
<path d="M61.2278 14.8566C44.1167 14.8566 30.2444 28.9738 30.2444 46.3441C30.2444 63.7145 44.1167 77.8317 61.2278 77.8317C78.3389 77.8317 92.2111 63.7145 92.2111 46.3441C92.2111 28.9738 78.3389 14.8566 61.2278 14.8566ZM61.2278 52.6048C57.8667 52.6048 55.1167 49.8428 55.1167 46.4055C55.1167 42.9683 57.8667 40.2062 61.2278 40.2062C64.5889 40.2062 67.3389 42.9683 67.3389 46.4055C67.3389 49.8428 64.5889 52.6048 61.2278 52.6048Z" fill="#020202"/>
<path d="M14.3555 11.6648H0.0555512L-13.9389 45.9759C-14 46.0986 -14.1833 46.0986 -14.2444 45.9759L-28.2389 11.6648H-48.2222V81.1462H-40.4611V28.4828H-39.7889C-39.7889 28.4828 -39.6667 28.4828 -39.6056 28.6055L-18.1556 81.1462H-10.0889L11.3611 28.6055C11.3611 28.5441 11.4222 28.4828 11.5444 28.4828H12.2167V81.1462H19.9778V11.6648H14.3555Z" fill="#555555"/>
<path d="M74.6111 -66.5938H69.9055L46.3167 -9.94069C46.2556 -9.81793 46.0722 -9.81793 46.0111 -9.94069L22.4222 -66.5938H0.116669V2.88758H19.8555V-49.7759H20.5278C20.5889 -49.7759 20.65 -49.7759 20.7111 -49.6531L42.1611 2.88758H50.2278L71.6778 -49.6531C71.6778 -49.6531 71.7389 -49.7759 71.8611 -49.7759H72.5333V2.88758H92.2722V-66.5938H74.6111Z" fill="#555555"/>
</g>
<g clip-path="url(#clip2_3_47)">
<path d="M363 98H186.45V-4.81035H190.117V94.3172H359.333V-75.8262H190.117V-73.1255H186.45V-79.509H363V98Z" fill="black"/>
<path d="M270.356 13.6648H256.056L242.061 47.9759C242 48.0986 241.817 48.0986 241.756 47.9759L227.761 13.6648H207.778V83.1462H215.539V30.4828H216.211C216.211 30.4828 216.333 30.4828 216.394 30.6055L237.844 83.1462H245.911L267.361 30.6055C267.361 30.5441 267.422 30.4828 267.544 30.4828H268.217V83.1462H275.978V13.6648H270.356Z" fill="#555555"/>
<path d="M165.122 -56.5531C188.833 -59.3765 210.467 -42.3745 213.4 -18.6207C214.317 -11.1938 213.4 -4.01241 210.772 2.4938C224.644 -6.0993 233.017 -22.2421 230.878 -39.6124C228.006 -63.4276 206.372 -80.4297 182.661 -77.6062C166.344 -75.6421 153.267 -64.7779 147.706 -50.4765C152.839 -53.6683 158.767 -55.8165 165.183 -56.5531H165.122Z" fill="#1D1D1B"/>
<path d="M170.378 -8.55448C163.472 -31.5717 176.428 -55.6938 199.344 -62.4455C206.494 -64.5324 213.706 -64.7165 220.55 -63.3048C209.672 -75.6421 192.317 -81.3503 175.633 -76.3786C152.717 -69.6269 139.822 -45.5048 146.667 -22.4876C151.433 -6.65173 164.328 4.51931 179.361 7.71103C175.328 3.10758 172.211 -2.35517 170.317 -8.55448H170.378Z" fill="url(#paint0_linear_3_47)"/>
<path d="M213.828 -15.9814C190.789 -9.84344 167.017 -23.6538 160.783 -46.7938C158.828 -54.0365 158.828 -61.2793 160.417 -68.0924C147.828 -57.6579 141.839 -40.4717 146.361 -23.531C152.595 -0.391032 176.367 13.4193 199.406 7.28138C215.295 3.04621 226.661 -9.53655 230.206 -24.5131C225.561 -20.6462 220 -17.7 213.767 -16.0428L213.828 -15.9814Z" fill="#FF2D2D"/>
<path d="M188.039 10.5959C163.228 10.5959 143 -9.72069 143 -34.7021C143 -59.6834 163.228 -80 188.039 -80C212.85 -80 233.078 -59.6834 233.078 -34.7021C233.078 -9.72069 212.85 10.5959 188.039 10.5959ZM188.039 -76.3172C165.244 -76.3172 146.667 -57.6579 146.667 -34.7021C146.667 -11.7462 165.244 6.9131 188.039 6.9131C210.833 6.9131 229.411 -11.7462 229.411 -34.7021C229.411 -57.6579 210.894 -76.3172 188.039 -76.3172Z" fill="black"/>
</g>
<g clip-path="url(#clip3_3_47)">
<path d="M363 300H186.45V197.19H190.117V296.317H359.333V126.174H190.117V128.874H186.45V122.491H363V300Z" fill="black"/>
<path d="M270.356 215.665H256.056L242.061 249.976C242 250.099 241.817 250.099 241.756 249.976L227.761 215.665H207.778V285.146H215.539V232.483H216.211C216.211 232.483 216.333 232.483 216.394 232.606L237.844 285.146H245.911L267.361 232.606C267.361 232.544 267.422 232.483 267.544 232.483H268.217V285.146H275.978V215.665H270.356Z" fill="#555555"/>
<path d="M165.122 145.447C188.833 142.623 210.467 159.626 213.4 183.379C214.317 190.806 213.4 197.988 210.772 204.494C224.644 195.901 233.017 179.758 230.878 162.388C228.006 138.572 206.372 121.57 182.661 124.394C166.344 126.358 153.267 137.222 147.706 151.523C152.839 148.332 158.767 146.183 165.183 145.447H165.122Z" fill="#1D1D1B"/>
<path d="M170.378 193.446C163.472 170.428 176.428 146.306 199.344 139.554C206.494 137.468 213.706 137.283 220.55 138.695C209.672 126.358 192.317 120.65 175.633 125.621C152.717 132.373 139.822 156.495 146.667 179.512C151.433 195.348 164.328 206.519 179.361 209.711C175.328 205.108 172.211 199.645 170.317 193.446H170.378Z" fill="url(#paint1_linear_3_47)"/>
<path d="M213.828 186.019C190.789 192.157 167.017 178.346 160.783 155.206C158.828 147.963 158.828 140.721 160.417 133.908C147.828 144.342 141.839 161.528 146.361 178.469C152.595 201.609 176.367 215.419 199.406 209.281C215.295 205.046 226.661 192.463 230.206 177.487C225.561 181.354 220 184.3 213.767 185.957L213.828 186.019Z" fill="#FF2D2D"/>
<path d="M188.039 212.596C163.228 212.596 143 192.279 143 167.298C143 142.317 163.228 122 188.039 122C212.85 122 233.078 142.317 233.078 167.298C233.078 192.279 212.85 212.596 188.039 212.596ZM188.039 125.683C165.244 125.683 146.667 144.342 146.667 167.298C146.667 190.254 165.244 208.913 188.039 208.913C210.833 208.913 229.411 190.254 229.411 167.298C229.411 144.342 210.894 125.683 188.039 125.683Z" fill="black"/>
</g>
<g clip-path="url(#clip4_3_47)">
<path d="M107 300H-69.55V197.19H-65.8833V296.317H103.333V126.174H-65.8833V128.874H-69.55V122.491H107V300Z" fill="black"/>
<path d="M61.2278 218.857C44.1167 218.857 30.2444 232.974 30.2444 250.344C30.2444 267.714 44.1167 281.832 61.2278 281.832C78.3389 281.832 92.2111 267.714 92.2111 250.344C92.2111 232.974 78.3389 218.857 61.2278 218.857ZM61.2278 256.605C57.8667 256.605 55.1167 253.843 55.1167 250.406C55.1167 246.968 57.8667 244.206 61.2278 244.206C64.5889 244.206 67.3389 246.968 67.3389 250.406C67.3389 253.843 64.5889 256.605 61.2278 256.605Z" fill="#020202"/>
<path d="M14.3555 215.665H0.0555512L-13.9389 249.976C-14 250.099 -14.1833 250.099 -14.2444 249.976L-28.2389 215.665H-48.2222V285.146H-40.4611V232.483H-39.7889C-39.7889 232.483 -39.6667 232.483 -39.6056 232.606L-18.1556 285.146H-10.0889L11.3611 232.606C11.3611 232.544 11.4222 232.483 11.5444 232.483H12.2167V285.146H19.9778V215.665H14.3555Z" fill="#555555"/>
<path d="M74.6111 137.406H69.9055L46.3167 194.059C46.2556 194.182 46.0722 194.182 46.0111 194.059L22.4222 137.406H0.116669V206.888H19.8555V154.224H20.5278C20.5889 154.224 20.65 154.224 20.7111 154.347L42.1611 206.888H50.2278L71.6778 154.347C71.6778 154.347 71.7389 154.224 71.8611 154.224H72.5333V206.888H92.2722V137.406H74.6111Z" fill="#555555"/>
</g>
</g>
<defs>
<linearGradient id="paint0_linear_3_47" x1="192.011" y1="-74.2917" x2="167.636" y2="-21.5252" gradientUnits="userSpaceOnUse">
<stop stop-color="#FF2D2D"/>
<stop offset="1" stop-color="#991B1B"/>
</linearGradient>
<linearGradient id="paint1_linear_3_47" x1="192.011" y1="127.708" x2="167.636" y2="180.475" gradientUnits="userSpaceOnUse">
<stop stop-color="#FF2D2D"/>
<stop offset="1" stop-color="#991B1B"/>
</linearGradient>
<clipPath id="clip0_3_47">
<rect width="256" height="227" fill="white"/>
</clipPath>
<clipPath id="clip1_3_47">
<rect width="220" height="178" fill="white" transform="translate(-113 -82)"/>
</clipPath>
<clipPath id="clip2_3_47">
<rect width="220" height="178" fill="white" transform="translate(143 -80)"/>
</clipPath>
<clipPath id="clip3_3_47">
<rect width="220" height="178" fill="white" transform="translate(143 122)"/>
</clipPath>
<clipPath id="clip4_3_47">
<rect width="220" height="178" fill="white" transform="translate(-113 122)"/>
</clipPath>
</defs>
</svg>
