<svg width="120" height="97" viewBox="0 0 588 476" fill="none" xmlns="http://www.w3.org/2000/svg">
<g clip-path="url(#clip0_3_375)">
<g clip-path="url(#clip1_3_375)">
<path d="M404 327H227.45V224.19H231.117V323.317H400.333V153.174H231.117V155.874H227.45V149.491H404V327Z" fill="black"/>
<path d="M358.228 245.857C341.117 245.857 327.244 259.974 327.244 277.344C327.244 294.714 341.117 308.832 358.228 308.832C375.339 308.832 389.211 294.714 389.211 277.344C389.211 259.974 375.339 245.857 358.228 245.857ZM358.228 283.605C354.867 283.605 352.117 280.843 352.117 277.406C352.117 273.968 354.867 271.206 358.228 271.206C361.589 271.206 364.339 273.968 364.339 277.406C364.339 280.843 361.589 283.605 358.228 283.605Z" fill="#020202"/>
<path d="M311.356 242.665H297.056L283.061 276.976C283 277.099 282.817 277.099 282.756 276.976L268.761 242.665H248.778V312.146H256.539V259.483H257.211C257.211 259.483 257.333 259.483 257.394 259.606L278.844 312.146H286.911L308.361 259.606C308.361 259.544 308.422 259.483 308.544 259.483H309.217V312.146H316.978V242.665H311.356Z" fill="#555555"/>
<path d="M371.611 164.406H366.906L343.317 221.059C343.256 221.182 343.072 221.182 343.011 221.059L319.422 164.406H297.117V233.888H316.856V181.224H317.528C317.589 181.224 317.65 181.224 317.711 181.347L339.161 233.888H347.228L368.678 181.347C368.678 181.347 368.739 181.224 368.861 181.224H369.533V233.888H389.272V164.406H371.611Z" fill="#555555"/>
<path d="M206.122 172.447C229.833 169.623 251.467 186.626 254.4 210.379C255.317 217.806 254.4 224.988 251.772 231.494C265.644 222.901 274.017 206.758 271.878 189.388C269.006 165.572 247.372 148.57 223.661 151.394C207.344 153.358 194.267 164.222 188.706 178.523C193.839 175.332 199.767 173.183 206.183 172.447H206.122Z" fill="#1D1D1B"/>
<path d="M211.378 220.446C204.472 197.428 217.428 173.306 240.344 166.554C247.494 164.468 254.706 164.283 261.55 165.695C250.672 153.358 233.317 147.65 216.633 152.621C193.717 159.373 180.822 183.495 187.667 206.512C192.433 222.348 205.328 233.519 220.361 236.711C216.328 232.108 213.211 226.645 211.317 220.446H211.378Z" fill="url(#paint0_linear_3_375)"/>
<path d="M254.828 213.019C231.789 219.157 208.017 205.346 201.783 182.206C199.828 174.963 199.828 167.721 201.417 160.908C188.828 171.342 182.839 188.528 187.361 205.469C193.595 228.609 217.367 242.419 240.406 236.281C256.295 232.046 267.661 219.463 271.206 204.487C266.561 208.354 261 211.3 254.767 212.957L254.828 213.019Z" fill="#FF2D2D"/>
<path d="M229.039 239.596C204.228 239.596 184 219.279 184 194.298C184 169.317 204.228 149 229.039 149C253.85 149 274.078 169.317 274.078 194.298C274.078 219.279 253.85 239.596 229.039 239.596ZM229.039 152.683C206.244 152.683 187.667 171.342 187.667 194.298C187.667 217.254 206.244 235.913 229.039 235.913C251.833 235.913 270.411 217.254 270.411 194.298C270.411 171.342 251.894 152.683 229.039 152.683Z" fill="black"/>
</g>
<g clip-path="url(#clip2_3_375)">
<path d="M698 565H521.45V462.19H525.117V561.317H694.333V391.174H525.117V393.874H521.45V387.491H698V565Z" fill="black"/>
<path d="M500.122 410.447C523.833 407.623 545.467 424.626 548.4 448.379C549.317 455.806 548.4 462.988 545.772 469.494C559.644 460.901 568.017 444.758 565.878 427.388C563.006 403.572 541.372 386.57 517.661 389.394C501.344 391.358 488.267 402.222 482.706 416.523C487.839 413.332 493.767 411.183 500.183 410.447H500.122Z" fill="#1D1D1B"/>
<path d="M505.378 458.446C498.472 435.428 511.428 411.306 534.344 404.554C541.494 402.468 548.706 402.283 555.55 403.695C544.672 391.358 527.317 385.65 510.633 390.621C487.717 397.373 474.822 421.495 481.667 444.512C486.433 460.348 499.328 471.519 514.361 474.711C510.328 470.108 507.211 464.645 505.317 458.446H505.378Z" fill="url(#paint1_linear_3_375)"/>
<path d="M548.828 451.019C525.789 457.157 502.017 443.346 495.783 420.206C493.828 412.963 493.828 405.721 495.417 398.908C482.828 409.342 476.839 426.528 481.361 443.469C487.595 466.609 511.367 480.419 534.406 474.281C550.295 470.046 561.661 457.463 565.206 442.487C560.561 446.354 555 449.3 548.767 450.957L548.828 451.019Z" fill="#FF2D2D"/>
<path d="M523.039 477.596C498.228 477.596 478 457.279 478 432.298C478 407.317 498.228 387 523.039 387C547.85 387 568.078 407.317 568.078 432.298C568.078 457.279 547.85 477.596 523.039 477.596ZM523.039 390.683C500.244 390.683 481.667 409.342 481.667 432.298C481.667 455.254 500.244 473.913 523.039 473.913C545.833 473.913 564.411 455.254 564.411 432.298C564.411 409.342 545.894 390.683 523.039 390.683Z" fill="black"/>
</g>
<g clip-path="url(#clip3_3_375)">
<path d="M110 565H-66.55V462.19H-62.8834V561.317H106.333V391.174H-62.8834V393.874H-66.55V387.491H110V565Z" fill="black"/>
<path d="M77.6111 402.406H72.9056L49.3167 459.059C49.2556 459.182 49.0723 459.182 49.0111 459.059L25.4223 402.406H3.1167V471.888H22.8556V419.224H23.5278C23.5889 419.224 23.65 419.224 23.7111 419.347L45.1611 471.888H53.2278L74.6778 419.347C74.6778 419.347 74.7389 419.224 74.8611 419.224H75.5334V471.888H95.2722V402.406H77.6111Z" fill="#555555"/>
</g>
<g clip-path="url(#clip4_3_375)">
<path d="M110 89H-66.55V-13.8104H-62.8834V85.3172H106.333V-84.8262H-62.8834V-82.1255H-66.55V-88.509H110V89Z" fill="black"/>
<path d="M64.2277 7.85657C47.1166 7.85657 33.2444 21.9738 33.2444 39.3442C33.2444 56.7145 47.1166 70.8317 64.2277 70.8317C81.3388 70.8317 95.211 56.7145 95.211 39.3442C95.211 21.9738 81.3388 7.85657 64.2277 7.85657ZM64.2277 45.6048C60.8666 45.6048 58.1166 42.8428 58.1166 39.4055C58.1166 35.9683 60.8666 33.2062 64.2277 33.2062C67.5888 33.2062 70.3388 35.9683 70.3388 39.4055C70.3388 42.8428 67.5888 45.6048 64.2277 45.6048Z" fill="#020202"/>
<path d="M17.3556 4.66483H3.0556L-10.9388 38.9759C-10.9999 39.0986 -11.1833 39.0986 -11.2444 38.9759L-25.2388 4.66483H-45.2222V74.1462H-37.4611V21.4828H-36.7888C-36.7888 21.4828 -36.6666 21.4827 -36.6055 21.6055L-15.1555 74.1462H-7.08884L14.3612 21.6055C14.3612 21.5441 14.4223 21.4828 14.5445 21.4828H15.2167V74.1462H22.9778V4.66483H17.3556Z" fill="#555555"/>
</g>
<g clip-path="url(#clip5_3_375)">
<path d="M698 89H521.45V-13.8104H525.117V85.3172H694.333V-84.8262H525.117V-82.1255H521.45V-88.509H698V89Z" fill="black"/>
<path d="M605.356 4.66483H591.056L577.061 38.9759C577 39.0986 576.817 39.0986 576.756 38.9759L562.761 4.66483H542.778V74.1462H550.539V21.4828H551.211C551.211 21.4828 551.333 21.4827 551.394 21.6055L572.844 74.1462H580.911L602.361 21.6055C602.361 21.5441 602.422 21.4828 602.544 21.4828H603.217V74.1462H610.978V4.66483H605.356Z" fill="#555555"/>
<path d="M548.828 -24.9814C525.789 -18.8434 502.017 -32.6538 495.783 -55.7938C493.828 -63.0365 493.828 -70.2793 495.417 -77.0924C482.828 -66.6579 476.839 -49.4717 481.361 -32.531C487.595 -9.39103 511.367 4.41931 534.406 -1.71862C550.295 -5.95379 561.661 -18.5365 565.206 -33.5131C560.561 -29.6462 555 -26.7 548.767 -25.0428L548.828 -24.9814Z" fill="#FF2D2D"/>
<path d="M523.039 1.59586C498.228 1.59586 478 -18.7207 478 -43.7021C478 -68.6834 498.228 -89 523.039 -89C547.85 -89 568.078 -68.6834 568.078 -43.7021C568.078 -18.7207 547.85 1.59586 523.039 1.59586ZM523.039 -85.3172C500.244 -85.3172 481.667 -66.6579 481.667 -43.7021C481.667 -20.7462 500.244 -2.0869 523.039 -2.0869C545.833 -2.0869 564.411 -20.7462 564.411 -43.7021C564.411 -66.6579 545.894 -85.3172 523.039 -85.3172Z" fill="black"/>
</g>
</g>
<defs>
<linearGradient id="paint0_linear_3_375" x1="233.011" y1="154.708" x2="208.636" y2="207.475" gradientUnits="userSpaceOnUse">
<stop stop-color="#FF2D2D"/>
<stop offset="1" stop-color="#991B1B"/>
</linearGradient>
<linearGradient id="paint1_linear_3_375" x1="527.011" y1="392.708" x2="502.636" y2="445.475" gradientUnits="userSpaceOnUse">
<stop stop-color="#FF2D2D"/>
<stop offset="1" stop-color="#991B1B"/>
</linearGradient>
<clipPath id="clip0_3_375">
<rect width="588" height="476" fill="white"/>
</clipPath>
<clipPath id="clip1_3_375">
<rect width="220" height="178" fill="white" transform="translate(184 149)"/>
</clipPath>
<clipPath id="clip2_3_375">
<rect width="220" height="178" fill="white" transform="translate(478 387)"/>
</clipPath>
<clipPath id="clip3_3_375">
<rect width="220" height="178" fill="white" transform="translate(-110 387)"/>
</clipPath>
<clipPath id="clip4_3_375">
<rect width="220" height="178" fill="white" transform="translate(-110 -89)"/>
</clipPath>
<clipPath id="clip5_3_375">
<rect width="220" height="178" fill="white" transform="translate(478 -89)"/>
</clipPath>
</defs>
</svg>
