<svg width="1313" height="273" viewBox="0 0 1313 273" fill="none" xmlns="http://www.w3.org/2000/svg">
<g opacity="0.5" filter="url(#filter0_n_25_346)">
<path d="M67.0312 235.306C52.5777 236.064 36.521 236.038 18.8611 235.227L17.9426 217.701C37.1377 217.997 51.4521 217.898 60.8858 217.403C62.8764 217.299 64.4048 216.655 65.471 215.471C66.6191 214.196 67.141 212.563 67.0367 210.572L66.7646 205.379C66.4924 200.186 63.7599 197.726 58.567 197.998L31.3045 199.427L30.3519 181.252L55.0181 179.959C60.211 179.687 62.6713 176.955 62.3992 171.762L62.2631 169.165C61.991 163.972 59.2585 161.512 54.0656 161.784L16.4172 163.757L15.4647 145.582L59.6042 143.269C68.0859 142.824 74.4194 144.445 78.6047 148.131C82.7854 151.731 85.0822 157.468 85.495 165.344C85.7671 170.537 84.7777 174.841 82.5267 178.257C80.3577 181.582 77.36 183.996 73.5333 185.498C80.6435 187.035 85.6486 191.459 88.5485 198.77C89.5546 201.408 90.1507 204.501 90.3366 208.049L90.4047 209.348C90.8492 217.829 89.1851 224.165 85.4126 228.355C81.64 232.545 75.5129 234.862 67.0312 235.306ZM163.502 162.558C163.23 157.365 160.497 154.905 155.304 155.177L141.024 155.925C135.831 156.197 133.371 158.93 133.643 164.123L135.82 205.666C136.092 210.859 138.825 213.319 144.017 213.047L158.298 212.298C163.491 212.026 165.951 209.294 165.679 204.101L163.502 162.558ZM189.047 202.876C189.523 211.964 187.793 218.693 183.856 223.065C180.002 227.346 173.531 229.725 164.443 230.201L139.777 231.494C130.69 231.97 123.962 230.283 119.595 226.433C115.309 222.492 112.928 215.978 112.452 206.89L110.275 165.347C109.799 156.26 111.488 149.576 115.342 145.295C119.279 140.923 125.791 138.498 134.878 138.022L159.545 136.73C168.632 136.253 175.319 137.986 179.604 141.927C183.972 145.777 186.393 152.246 186.87 161.333L189.047 202.876ZM335.982 200.383C336.322 206.874 334.729 212.078 331.203 215.994C327.758 219.82 322.79 221.903 316.299 222.243L286.44 223.808C279.949 224.148 274.748 222.598 270.836 219.158C267.005 215.627 264.92 210.616 264.58 204.125L263.015 174.266C262.675 167.775 264.227 162.616 267.672 158.791C271.198 154.874 276.207 152.746 282.698 152.406L312.557 150.841C319.048 150.501 324.209 152.096 328.039 155.627C331.951 159.067 334.077 164.033 334.417 170.524L335.982 200.383ZM311.801 173.662C311.619 170.2 309.797 168.56 306.336 168.741L290.757 169.557C287.295 169.739 285.655 171.561 285.836 175.022L287.197 200.987C287.378 204.449 289.2 206.089 292.662 205.908L308.241 205.091C311.702 204.91 313.343 203.088 313.161 199.626L311.801 173.662ZM392.748 190.899L383.012 191.409L384.372 217.373L361.654 218.564L358.048 149.759L380.767 148.568L382.093 173.883L392.479 173.339L398.871 158.684C401.177 153.009 405.047 149.031 410.482 146.75C412.436 145.954 414.322 145.508 416.14 145.412C419.082 145.258 421.777 145.334 424.223 145.64L427.502 146.119L428.421 163.645L423.877 163.883C420.935 164.037 418.839 165.448 417.59 168.117L411.779 181.44L433.056 214.822L408.39 216.115L392.748 190.899ZM488.737 160.483L491.425 211.763L468.706 212.954L466.019 161.674L444.598 162.797L443.679 145.271L509.239 141.835L510.158 159.361L488.737 160.483ZM597.569 137.206L601.175 206.011L578.456 207.202L577.334 185.781L566.299 186.36L555.088 208.427L531.071 209.685L542.863 186.286C539.16 185.178 536.188 183.121 533.947 180.114C531.707 177.107 530.467 173.31 530.226 168.723L529.784 160.285C529.476 154.4 531.003 149.59 534.365 145.855C537.728 142.121 542.351 140.1 548.237 139.791L597.569 137.206ZM556.876 155.611C555.578 155.679 554.519 156.168 553.699 157.079C552.879 157.99 552.503 159.094 552.571 160.393L552.877 166.235C552.945 167.533 553.434 168.592 554.345 169.412C555.256 170.232 556.361 170.608 557.659 170.54L576.483 169.554L575.701 154.624L556.876 155.611ZM645.582 146.406C653.886 144.235 661.197 142.984 667.515 142.653L673.357 142.346C679.242 142.038 684.052 143.565 687.787 146.927C691.521 150.29 693.543 154.914 693.851 160.799L694.94 181.571C695.28 188.062 693.687 193.266 690.16 197.182C686.716 201.008 681.748 203.09 675.257 203.431L646.696 204.927C640.205 205.268 635.003 203.718 631.091 200.278C627.261 196.747 625.176 191.736 624.836 185.245L622.42 139.158C622.094 132.926 623.897 127.581 627.829 123.123C631.847 118.66 637.426 115.807 644.564 114.565L688.431 107.059L691.331 125.132L651.324 131.785C647.024 132.531 644.974 134.808 645.173 138.616L645.582 146.406ZM667.198 186.279C670.66 186.097 672.3 184.276 672.119 180.814L671.268 164.586C671.2 163.288 670.711 162.229 669.8 161.409C668.889 160.589 667.785 160.212 666.486 160.281L661.943 160.519C658.567 160.696 655.547 161.027 652.882 161.514C650.217 162.001 648.067 162.374 646.432 162.633L647.453 182.107C647.634 185.569 649.456 187.209 652.918 187.027L667.198 186.279ZM754.984 146.53C750.397 146.77 745.249 147.908 739.541 149.943L741.174 181.1L760.647 180.08C764.109 179.898 765.749 178.077 765.568 174.615L764.309 150.598C764.241 149.299 763.752 148.24 762.841 147.42C761.93 146.6 760.826 146.224 759.527 146.292L754.984 146.53ZM742.092 198.626L743.249 220.696L720.53 221.887L715.768 131.011L735.89 129.957L737.529 136.38C741.456 133.484 745.508 131.319 749.685 129.885C753.945 128.36 757.546 127.52 760.488 127.366L766.33 127.06C772.215 126.751 777.025 128.278 780.76 131.641C784.494 135.003 786.516 139.627 786.824 145.512L788.389 175.371C788.729 181.862 787.136 187.066 783.609 190.983C780.165 194.808 775.197 196.891 768.706 197.231L742.092 198.626ZM878.03 122.507L881.636 191.313L858.917 192.504L857.794 171.083L846.759 171.661L835.549 193.728L811.532 194.987L823.324 171.588C819.62 170.48 816.649 168.423 814.408 165.416C812.168 162.409 810.927 158.612 810.687 154.025L810.245 145.587C809.936 139.701 811.463 134.892 814.826 131.157C818.188 127.423 822.812 125.401 828.698 125.093L878.03 122.507ZM837.337 140.912C836.039 140.98 834.98 141.47 834.16 142.381C833.34 143.291 832.964 144.396 833.032 145.694L833.338 151.536C833.406 152.834 833.895 153.894 834.806 154.714C835.717 155.534 836.821 155.91 838.12 155.842L856.944 154.855L856.161 139.926L837.337 140.912ZM1022.46 121.447C1022.85 128.804 1020.07 135.328 1014.12 141.021C1012.3 142.765 1010.31 144.518 1008.14 146.28L981.285 167.866L1024.78 165.586L1025.73 183.761L955.624 187.435L954.331 162.769L999.298 126.566L998.958 120.075C998.686 114.882 995.953 112.422 990.761 112.694L954.41 114.599L953.458 96.4241L995.001 94.2469C1004.09 93.7706 1010.77 95.5031 1015.06 99.4442C1019.43 103.294 1021.85 109.763 1022.33 118.851L1022.46 121.447ZM1097.53 113.607C1097.26 108.414 1094.53 105.954 1089.34 106.226L1075.06 106.975C1069.86 107.247 1067.4 109.979 1067.68 115.172L1069.85 156.715C1070.12 161.908 1072.86 164.368 1078.05 164.096L1092.33 163.348C1097.52 163.076 1099.98 160.343 1099.71 155.15L1097.53 113.607ZM1123.08 153.926C1123.56 163.013 1121.83 169.743 1117.89 174.115C1114.03 178.396 1107.56 180.774 1098.48 181.251L1073.81 182.543C1064.72 183.02 1057.99 181.333 1053.63 177.483C1049.34 173.542 1046.96 167.027 1046.48 157.94L1044.31 116.397C1043.83 107.309 1045.52 100.625 1049.37 96.3441C1053.31 91.9721 1059.82 89.5479 1068.91 89.0717L1093.58 87.779C1102.66 87.3027 1109.35 89.0351 1113.64 92.9762C1118 96.8263 1120.43 103.295 1120.9 112.383L1123.08 153.926ZM1211.97 111.515C1212.36 118.872 1209.57 125.396 1203.62 131.089C1201.81 132.833 1199.82 134.586 1197.65 136.349L1170.79 157.934L1214.28 155.655L1215.24 173.83L1145.13 177.504L1143.84 152.838L1188.81 116.635L1188.47 110.143C1188.2 104.951 1185.46 102.49 1180.27 102.762L1143.92 104.667L1142.97 86.4923L1184.51 84.3151C1193.6 83.8389 1200.28 85.5713 1204.57 89.5124C1208.94 93.3625 1211.36 99.8312 1211.84 108.919L1211.97 111.515ZM1282.79 171.591C1268.34 172.349 1252.28 172.322 1234.62 171.512L1233.7 153.986C1252.9 154.282 1267.21 154.183 1276.65 153.688C1278.64 153.584 1280.17 152.94 1281.23 151.756C1282.38 150.48 1282.9 148.847 1282.8 146.857L1282.46 140.366C1282.19 135.173 1279.45 132.713 1274.26 132.985L1236.61 134.958L1233.82 81.7308L1296.14 78.465L1297.09 96.6401L1258.14 98.6812L1259.03 115.558L1279.8 114.469C1288.28 114.025 1294.61 115.646 1298.8 119.332C1302.98 122.931 1305.28 128.669 1305.69 136.545L1306.17 145.632C1306.61 154.114 1304.95 160.45 1301.17 164.64C1297.4 168.829 1291.27 171.147 1282.79 171.591Z" fill="url(#paint0_linear_25_346)"/>
</g>
<g filter="url(#filter1_n_25_346)">
<path d="M57.0312 224.306C42.5777 225.064 26.521 225.037 8.86105 224.227L7.94255 206.701C27.1377 206.997 41.4521 206.898 50.8858 206.403C52.8764 206.299 54.4048 205.655 55.471 204.471C56.6191 203.196 57.141 201.563 57.0367 199.572L56.7646 194.379C56.4924 189.186 53.7599 186.726 48.567 186.998L21.3045 188.427L20.3519 170.252L45.0181 168.959C50.211 168.687 52.6713 165.955 52.3992 160.762L52.2631 158.165C51.991 152.972 49.2585 150.512 44.0656 150.784L6.41725 152.757L5.46473 134.582L49.6042 132.269C58.0859 131.824 64.4194 133.445 68.6047 137.131C72.7854 140.731 75.0822 146.468 75.495 154.344C75.7671 159.537 74.7777 163.841 72.5267 167.257C70.3577 170.582 67.36 172.995 63.5333 174.498C70.6435 176.034 75.6486 180.459 78.5485 187.77C79.5546 190.408 80.1507 193.501 80.3366 197.049L80.4047 198.348C80.8492 206.829 79.1851 213.165 75.4126 217.355C71.64 221.545 65.5129 223.862 57.0312 224.306ZM153.502 151.558C153.23 146.365 150.497 143.905 145.304 144.177L131.024 144.925C125.831 145.197 123.371 147.93 123.643 153.123L125.82 194.666C126.092 199.858 128.825 202.319 134.017 202.047L148.298 201.298C153.491 201.026 155.951 198.294 155.679 193.101L153.502 151.558ZM179.047 191.876C179.523 200.964 177.793 207.693 173.856 212.065C170.002 216.346 163.531 218.725 154.443 219.201L129.777 220.494C120.69 220.97 113.962 219.283 109.595 215.433C105.309 211.492 102.928 204.978 102.452 195.89L100.275 154.347C99.7985 145.26 101.488 138.576 105.342 134.295C109.279 129.923 115.791 127.498 124.878 127.022L149.545 125.729C158.632 125.253 165.319 126.986 169.604 130.927C173.972 134.777 176.393 141.246 176.87 150.333L179.047 191.876ZM325.982 189.383C326.322 195.874 324.729 201.078 321.203 204.994C317.758 208.82 312.79 210.903 306.299 211.243L276.44 212.808C269.949 213.148 264.748 211.598 260.836 208.158C257.005 204.627 254.92 199.616 254.58 193.125L253.015 163.266C252.675 156.775 254.227 151.616 257.672 147.791C261.198 143.874 266.207 141.746 272.698 141.406L302.557 139.841C309.048 139.501 314.209 141.096 318.039 144.627C321.951 148.067 324.077 153.033 324.417 159.524L325.982 189.383ZM301.801 162.662C301.619 159.2 299.797 157.559 296.336 157.741L280.757 158.557C277.295 158.739 275.655 160.56 275.836 164.022L277.197 189.987C277.378 193.449 279.2 195.089 282.662 194.907L298.241 194.091C301.702 193.91 303.343 192.088 303.161 188.626L301.801 162.662ZM382.748 179.899L373.012 180.409L374.372 206.373L351.654 207.564L348.048 138.758L370.767 137.568L372.093 162.883L382.479 162.339L388.871 147.684C391.177 142.009 395.047 138.031 400.482 135.75C402.436 134.953 404.322 134.507 406.14 134.412C409.082 134.258 411.777 134.334 414.223 134.639L417.502 135.119L418.421 152.644L413.877 152.883C410.935 153.037 408.839 154.448 407.59 157.117L401.779 170.44L423.056 203.822L398.39 205.115L382.748 179.899ZM478.737 149.483L481.425 200.763L458.706 201.954L456.019 150.674L434.598 151.797L433.679 134.271L499.239 130.835L500.158 148.361L478.737 149.483ZM587.569 126.206L591.175 195.011L568.456 196.202L567.334 174.781L556.299 175.36L545.088 197.427L521.071 198.685L532.863 175.286C529.16 174.178 526.188 172.121 523.947 169.114C521.707 166.107 520.467 162.31 520.226 157.723L519.784 149.285C519.476 143.4 521.003 138.59 524.365 134.855C527.728 131.121 532.351 129.1 538.237 128.791L587.569 126.206ZM546.876 144.611C545.578 144.679 544.519 145.168 543.699 146.079C542.879 146.99 542.503 148.094 542.571 149.393L542.877 155.234C542.945 156.533 543.434 157.592 544.345 158.412C545.256 159.232 546.361 159.608 547.659 159.54L566.483 158.554L565.701 143.624L546.876 144.611ZM635.582 135.406C643.886 133.235 651.197 131.984 657.515 131.652L663.357 131.346C669.242 131.038 674.052 132.565 677.787 135.927C681.521 139.29 683.543 143.914 683.851 149.799L684.94 170.571C685.28 177.062 683.687 182.265 680.16 186.182C676.716 190.008 671.748 192.09 665.257 192.431L636.696 193.927C630.205 194.268 625.003 192.718 621.091 189.278C617.261 185.747 615.176 180.736 614.836 174.245L612.42 128.158C612.094 121.926 613.897 116.581 617.829 112.123C621.847 107.66 627.426 104.807 634.564 103.565L678.431 96.059L681.331 114.132L641.324 120.785C637.024 121.531 634.974 123.808 635.173 127.616L635.582 135.406ZM657.198 175.279C660.66 175.097 662.3 173.276 662.119 169.814L661.268 153.586C661.2 152.288 660.711 151.229 659.8 150.409C658.889 149.588 657.785 149.212 656.486 149.28L651.943 149.519C648.567 149.695 645.547 150.027 642.882 150.514C640.217 151.001 638.067 151.374 636.432 151.633L637.453 171.107C637.634 174.568 639.456 176.209 642.918 176.027L657.198 175.279ZM744.984 135.53C740.397 135.77 735.249 136.908 729.541 138.943L731.174 170.1L750.647 169.08C754.109 168.898 755.749 167.076 755.568 163.615L754.309 139.598C754.241 138.299 753.752 137.24 752.841 136.42C751.93 135.6 750.826 135.224 749.527 135.292L744.984 135.53ZM732.092 187.626L733.249 209.696L710.53 210.886L705.768 120.011L725.89 118.957L727.529 125.38C731.456 122.483 735.508 120.318 739.685 118.885C743.945 117.36 747.546 116.52 750.488 116.366L756.33 116.06C762.215 115.751 767.025 117.278 770.76 120.641C774.494 124.003 776.516 128.627 776.824 134.512L778.389 164.371C778.729 170.862 777.136 176.066 773.609 179.983C770.165 183.808 765.197 185.891 758.706 186.231L732.092 187.626ZM868.03 111.507L871.636 180.313L848.917 181.504L847.794 160.083L836.759 160.661L825.549 182.728L801.532 183.987L813.324 160.588C809.62 159.48 806.649 157.423 804.408 154.416C802.168 151.409 800.927 147.612 800.687 143.025L800.245 134.587C799.936 128.701 801.463 123.891 804.826 120.157C808.188 116.423 812.812 114.401 818.698 114.093L868.03 111.507ZM827.337 129.912C826.039 129.98 824.98 130.47 824.16 131.381C823.34 132.291 822.964 133.396 823.032 134.694L823.338 140.536C823.406 141.834 823.895 142.894 824.806 143.714C825.717 144.534 826.821 144.91 828.12 144.842L846.944 143.855L846.161 128.926L827.337 129.912ZM1012.46 110.447C1012.85 117.803 1010.07 124.328 1004.12 130.021C1002.3 131.765 1000.31 133.518 998.142 135.28L971.285 156.866L1014.78 154.586L1015.73 172.761L945.624 176.435L944.331 151.769L989.298 115.566L988.958 109.075C988.686 103.882 985.953 101.422 980.761 101.694L944.41 103.599L943.458 85.424L985.001 83.2468C994.088 82.7706 1000.77 84.503 1005.06 88.4441C1009.43 92.2942 1011.85 98.763 1012.33 107.85L1012.46 110.447ZM1087.53 102.607C1087.26 97.4143 1084.53 94.954 1079.34 95.2261L1065.06 95.9745C1059.86 96.2467 1057.4 98.9792 1057.68 104.172L1059.85 145.715C1060.12 150.908 1062.86 153.368 1068.05 153.096L1082.33 152.348C1087.52 152.076 1089.98 149.343 1089.71 144.15L1087.53 102.607ZM1113.08 142.926C1113.56 152.013 1111.83 158.743 1107.89 163.115C1104.03 167.396 1097.56 169.774 1088.48 170.251L1063.81 171.543C1054.72 172.02 1047.99 170.333 1043.63 166.483C1039.34 162.542 1036.96 156.027 1036.48 146.94L1034.31 105.397C1033.83 96.3092 1035.52 89.6249 1039.37 85.344C1043.31 80.972 1049.82 78.5479 1058.91 78.0716L1083.58 76.7789C1092.66 76.3026 1099.35 78.0351 1103.64 81.9762C1108 85.8262 1110.43 92.295 1110.9 101.383L1113.08 142.926ZM1201.97 100.515C1202.36 107.872 1199.57 114.396 1193.62 120.089C1191.81 121.833 1189.82 123.586 1187.65 125.349L1160.79 146.934L1204.28 144.655L1205.24 162.83L1135.13 166.504L1133.84 141.837L1178.81 105.634L1178.47 99.1434C1178.2 93.9505 1175.46 91.4901 1170.27 91.7623L1133.92 93.6673L1132.97 75.4923L1174.51 73.3151C1183.6 72.8388 1190.28 74.5712 1194.57 78.5124C1198.94 82.3624 1201.36 88.8312 1201.84 97.9187L1201.97 100.515ZM1272.79 160.591C1258.34 161.348 1242.28 161.322 1224.62 160.512L1223.7 142.986C1242.9 143.282 1257.21 143.182 1266.65 142.688C1268.64 142.584 1270.17 141.94 1271.23 140.755C1272.38 139.48 1272.9 137.847 1272.8 135.857L1272.46 129.366C1272.19 124.173 1269.45 121.712 1264.26 121.985L1226.61 123.958L1223.82 70.7307L1286.14 67.465L1287.09 85.64L1248.14 87.6811L1249.03 104.558L1269.8 103.469C1278.28 103.025 1284.61 104.646 1288.8 108.332C1292.98 111.931 1295.28 117.669 1295.69 125.545L1296.17 134.632C1296.61 143.114 1294.95 149.45 1291.17 153.639C1287.4 157.829 1281.27 160.146 1272.79 160.591Z" fill="url(#paint1_linear_25_346)"/>
</g>
<g opacity="0.5" filter="url(#filter2_n_25_346)">
<path d="M218.472 32.2311C223.312 50.0254 230.19 67.1981 238.985 83.3858C256.017 90.451 273.82 95.5155 292.039 98.4716C274.244 103.312 257.073 110.189 240.884 118.985C233.821 136.015 228.771 153.822 225.816 172.038C220.975 154.241 214.083 137.074 205.286 120.884C188.256 113.821 170.448 108.754 152.231 105.799C170.031 100.957 187.192 94.0504 203.384 85.2516C210.441 68.2297 215.518 50.4381 218.472 32.2311Z" fill="#FFDD00"/>
</g>
<g filter="url(#filter3_dn_25_346)">
<path d="M204.904 24.6635C209.744 42.4578 216.622 59.6305 225.417 75.8183C242.449 82.8834 260.253 87.9479 278.472 90.9041C260.677 95.7447 243.505 102.621 227.317 111.417C220.253 128.447 215.204 146.254 212.248 164.471C207.407 146.674 200.515 129.507 191.718 113.317C174.688 106.254 156.88 101.186 138.664 98.2311C156.463 93.3895 173.624 86.4828 189.816 77.684C196.874 60.6621 201.95 42.8706 204.904 24.6635Z" fill="#FFDD00"/>
</g>
<defs>
<filter id="filter0_n_25_346" x="13.9964" y="74.8793" width="1294.55" height="183.716" filterUnits="userSpaceOnUse" color-interpolation-filters="sRGB">
<feFlood flood-opacity="0" result="BackgroundImageFix"/>
<feBlend mode="normal" in="SourceGraphic" in2="BackgroundImageFix" result="shape"/>
<feTurbulence type="fractalNoise" baseFrequency="1.25 1.25" stitchTiles="stitch" numOctaves="3" result="noise" seed="2605" />
<feColorMatrix in="noise" type="luminanceToAlpha" result="alphaNoise" />
<feComponentTransfer in="alphaNoise" result="coloredNoise1">
<feFuncA type="discrete" tableValues="1 1 1 1 1 1 1 1 1 1 1 1 1 1 1 1 1 1 1 1 1 1 1 1 1 1 1 1 1 1 1 1 1 1 1 1 1 1 1 1 1 1 1 1 1 1 1 1 1 1 1 0 0 0 0 0 0 0 0 0 0 0 0 0 0 0 0 0 0 0 0 0 0 0 0 0 0 0 0 0 0 0 0 0 0 0 0 0 0 0 0 0 0 0 0 0 0 0 0 0 "/>
</feComponentTransfer>
<feComposite operator="in" in2="shape" in="coloredNoise1" result="noise1Clipped" />
<feFlood flood-color="rgba(0, 0, 0, 0.3)" result="color1Flood" />
<feComposite operator="in" in2="noise1Clipped" in="color1Flood" result="color1" />
<feMerge result="effect1_noise_25_346">
<feMergeNode in="shape" />
<feMergeNode in="color1" />
</feMerge>
</filter>
<filter id="filter1_n_25_346" x="3.9964" y="63.8793" width="1294.55" height="183.716" filterUnits="userSpaceOnUse" color-interpolation-filters="sRGB">
<feFlood flood-opacity="0" result="BackgroundImageFix"/>
<feBlend mode="normal" in="SourceGraphic" in2="BackgroundImageFix" result="shape"/>
<feTurbulence type="fractalNoise" baseFrequency="2 2" stitchTiles="stitch" numOctaves="3" result="noise" seed="2605" />
<feColorMatrix in="noise" type="luminanceToAlpha" result="alphaNoise" />
<feComponentTransfer in="alphaNoise" result="coloredNoise1">
<feFuncA type="discrete" tableValues="1 1 1 1 1 1 1 1 1 1 1 1 1 1 1 1 1 1 1 1 1 1 1 1 1 1 1 1 1 1 1 1 1 1 1 1 1 1 1 1 1 1 1 1 1 1 1 1 1 1 1 0 0 0 0 0 0 0 0 0 0 0 0 0 0 0 0 0 0 0 0 0 0 0 0 0 0 0 0 0 0 0 0 0 0 0 0 0 0 0 0 0 0 0 0 0 0 0 0 0 "/>
</feComponentTransfer>
<feComposite operator="in" in2="shape" in="coloredNoise1" result="noise1Clipped" />
<feFlood flood-color="rgba(0, 0, 0, 0.3)" result="color1Flood" />
<feComposite operator="in" in2="noise1Clipped" in="color1Flood" result="color1" />
<feMerge result="effect1_noise_25_346">
<feMergeNode in="shape" />
<feMergeNode in="color1" />
</feMerge>
</filter>
<filter id="filter2_n_25_346" x="152.231" y="32.2311" width="139.808" height="139.807" filterUnits="userSpaceOnUse" color-interpolation-filters="sRGB">
<feFlood flood-opacity="0" result="BackgroundImageFix"/>
<feBlend mode="normal" in="SourceGraphic" in2="BackgroundImageFix" result="shape"/>
<feTurbulence type="fractalNoise" baseFrequency="2 2" stitchTiles="stitch" numOctaves="3" result="noise" seed="9370" />
<feColorMatrix in="noise" type="luminanceToAlpha" result="alphaNoise" />
<feComponentTransfer in="alphaNoise" result="coloredNoise1">
<feFuncA type="discrete" tableValues="1 1 1 1 1 1 1 1 1 1 1 1 1 1 1 1 1 1 1 1 1 1 1 1 1 1 1 1 1 1 1 1 1 1 1 1 1 1 1 1 1 1 1 1 1 1 1 1 1 1 1 0 0 0 0 0 0 0 0 0 0 0 0 0 0 0 0 0 0 0 0 0 0 0 0 0 0 0 0 0 0 0 0 0 0 0 0 0 0 0 0 0 0 0 0 0 0 0 0 0 "/>
</feComponentTransfer>
<feComposite operator="in" in2="shape" in="coloredNoise1" result="noise1Clipped" />
<feFlood flood-color="rgba(0, 0, 0, 0.3)" result="color1Flood" />
<feComposite operator="in" in2="noise1Clipped" in="color1Flood" result="color1" />
<feMerge result="effect1_noise_25_346">
<feMergeNode in="shape" />
<feMergeNode in="color1" />
</feMerge>
</filter>
<filter id="filter3_dn_25_346" x="114.664" y="0.663513" width="187.808" height="187.807" filterUnits="userSpaceOnUse" color-interpolation-filters="sRGB">
<feFlood flood-opacity="0" result="BackgroundImageFix"/>
<feColorMatrix in="SourceAlpha" type="matrix" values="0 0 0 0 0 0 0 0 0 0 0 0 0 0 0 0 0 0 127 0" result="hardAlpha"/>
<feOffset/>
<feGaussianBlur stdDeviation="12"/>
<feComposite in2="hardAlpha" operator="out"/>
<feColorMatrix type="matrix" values="0 0 0 0 1 0 0 0 0 1 0 0 0 0 1 0 0 0 1 0"/>
<feBlend mode="normal" in2="BackgroundImageFix" result="effect1_dropShadow_25_346"/>
<feBlend mode="normal" in="SourceGraphic" in2="BackgroundImageFix" result="shape"/>
<feTurbulence type="fractalNoise" baseFrequency="2 2" stitchTiles="stitch" numOctaves="3" result="noise" seed="9370" />
<feColorMatrix in="noise" type="luminanceToAlpha" result="alphaNoise" />
<feComponentTransfer in="alphaNoise" result="coloredNoise1">
<feFuncA type="discrete" tableValues="1 1 1 1 1 1 1 1 1 1 1 1 1 1 1 1 1 1 1 1 1 1 1 1 1 1 1 1 1 1 1 1 1 1 1 1 1 1 1 1 1 1 1 1 1 1 1 1 1 1 1 0 0 0 0 0 0 0 0 0 0 0 0 0 0 0 0 0 0 0 0 0 0 0 0 0 0 0 0 0 0 0 0 0 0 0 0 0 0 0 0 0 0 0 0 0 0 0 0 0 "/>
</feComponentTransfer>
<feComposite operator="in" in2="shape" in="coloredNoise1" result="noise1Clipped" />
<feFlood flood-color="rgba(0, 0, 0, 0.3)" result="color1Flood" />
<feComposite operator="in" in2="noise1Clipped" in="color1Flood" result="color1" />
<feMerge result="effect2_noise_25_346">
<feMergeNode in="shape" />
<feMergeNode in="color1" />
</feMerge>
<feBlend mode="normal" in="effect2_noise_25_346" in2="effect1_dropShadow_25_346" result="effect2_noise_25_346"/>
</filter>
<linearGradient id="paint0_linear_25_346" x1="836.353" y1="78.4771" x2="791.152" y2="160.954" gradientUnits="userSpaceOnUse">
<stop stop-color="#B25AFF"/>
<stop offset="1" stop-color="#FFD300"/>
</linearGradient>
<linearGradient id="paint1_linear_25_346" x1="826.353" y1="67.4771" x2="781.152" y2="149.954" gradientUnits="userSpaceOnUse">
<stop stop-color="#B25AFF"/>
<stop offset="1" stop-color="#FFD300"/>
</linearGradient>
</defs>
</svg>
