<svg width="1236" height="272" viewBox="0 0 1236 272" fill="none" xmlns="http://www.w3.org/2000/svg">
<g opacity="0.5" filter="url(#filter0_n_25_346)">
<path d="M67.0312 234.643C52.5777 235.4 36.521 235.374 18.8611 234.564L17.9426 217.038C37.1377 217.334 51.4521 217.234 60.8858 216.74C62.8764 216.636 64.4048 215.991 65.471 214.807C66.6191 213.532 67.141 211.899 67.0367 209.909L66.7646 204.716C66.4924 199.523 63.7599 197.063 58.567 197.335L31.3045 198.764L30.3519 180.588L55.0181 179.296C60.211 179.024 62.6713 176.291 62.3992 171.098L62.2631 168.502C61.991 163.309 59.2585 160.849 54.0656 161.121L16.4172 163.094L15.4647 144.919L59.6042 142.605C68.0859 142.161 74.4194 143.782 78.6047 147.468C82.7854 151.067 85.0822 156.805 85.495 164.681C85.7671 169.874 84.7777 174.178 82.5267 177.594C80.3577 180.918 77.36 183.332 73.5333 184.834C80.6435 186.371 85.6486 190.795 88.5485 198.107C89.5546 200.744 90.1507 203.837 90.3366 207.386L90.4047 208.684C90.8492 217.166 89.1851 223.502 85.4126 227.691C81.64 231.881 75.5129 234.198 67.0312 234.643ZM163.502 161.894C163.23 156.701 160.497 154.241 155.304 154.513L141.024 155.262C135.831 155.534 133.371 158.266 133.643 163.459L135.82 205.002C136.092 210.195 138.825 212.655 144.017 212.383L158.298 211.635C163.491 211.363 165.951 208.63 165.679 203.437L163.502 161.894ZM189.047 202.213C189.523 211.3 187.793 218.03 183.856 222.402C180.002 226.683 173.531 229.061 164.443 229.538L139.777 230.83C130.69 231.307 123.962 229.62 119.595 225.77C115.309 221.829 112.928 215.314 112.452 206.227L110.275 164.684C109.799 155.596 111.488 148.912 115.342 144.631C119.279 140.259 125.791 137.835 134.878 137.359L159.545 136.066C168.632 135.59 175.319 137.322 179.604 141.263C183.972 145.113 186.393 151.582 186.87 160.67L189.047 202.213ZM310.706 176.961L309.38 151.646L332.099 150.455L335.705 219.261L312.986 220.451L311.625 194.487L288.257 195.711L289.618 221.676L266.899 222.866L263.293 154.061L286.012 152.87L287.339 178.186L310.706 176.961ZM430.737 194.753C431.077 201.244 429.484 206.448 425.957 210.365C422.513 214.19 417.545 216.273 411.054 216.613L381.195 218.178C374.704 218.518 369.502 216.969 365.59 213.529C361.76 209.998 359.675 204.986 359.335 198.495L357.77 168.636C357.43 162.145 358.982 156.987 362.427 153.161C365.953 149.245 370.962 147.116 377.453 146.776L407.312 145.211C413.803 144.871 418.964 146.467 422.794 149.998C426.706 153.438 428.832 158.403 429.172 164.894L430.737 194.753ZM406.555 168.032C406.374 164.57 404.552 162.93 401.09 163.112L385.512 163.928C382.05 164.109 380.409 165.931 380.591 169.393L381.952 195.357C382.133 198.819 383.955 200.46 387.417 200.278L402.995 199.462C406.457 199.28 408.097 197.459 407.916 193.997L406.555 168.032ZM520.31 140.591L523.916 209.397L501.197 210.587L500.074 189.167L489.039 189.745L477.829 211.812L453.812 213.071L465.603 189.672C461.9 188.564 458.929 186.507 456.688 183.5C454.448 180.493 453.207 176.696 452.967 172.109L452.525 163.67C452.216 157.785 453.743 152.975 457.106 149.241C460.468 145.506 465.092 143.485 470.978 143.177L520.31 140.591ZM479.617 158.996C478.319 159.064 477.26 159.554 476.44 160.464C475.62 161.375 475.244 162.48 475.312 163.778L475.618 169.62C475.686 170.918 476.175 171.977 477.086 172.798C477.997 173.618 479.101 173.994 480.4 173.926L499.224 172.939L498.441 158.01L479.617 158.996ZM568.322 149.791C576.627 147.62 583.938 146.369 590.256 146.038L596.098 145.732C601.983 145.423 606.793 146.95 610.527 150.313C614.262 153.675 616.283 158.299 616.592 164.185L617.68 184.956C618.021 191.447 616.427 196.651 612.901 200.568C609.456 204.393 604.489 206.476 597.997 206.816L569.437 208.313C562.946 208.653 557.744 207.103 553.832 203.663C550.002 200.132 547.917 195.121 547.577 188.63L545.161 142.543C544.835 136.312 546.637 130.967 550.569 126.508C554.588 122.045 560.166 119.193 567.305 117.951L611.172 110.445L614.072 128.518L574.065 135.17C569.765 135.917 567.715 138.194 567.914 142.002L568.322 149.791ZM589.939 189.664C593.401 189.483 595.041 187.661 594.859 184.199L594.009 167.972C593.941 166.673 593.452 165.614 592.541 164.794C591.63 163.974 590.525 163.598 589.227 163.666L584.683 163.904C581.308 164.081 578.288 164.413 575.623 164.9C572.958 165.386 570.808 165.76 569.173 166.019L570.193 185.492C570.375 188.954 572.196 190.594 575.658 190.413L589.939 189.664ZM677.724 149.916C673.137 150.156 667.99 151.294 662.282 153.328L663.915 184.486L683.388 183.465C686.85 183.284 688.49 181.462 688.309 178L687.05 153.983C686.982 152.685 686.493 151.626 685.582 150.806C684.671 149.985 683.566 149.609 682.268 149.677L677.724 149.916ZM664.833 202.012L665.99 224.081L643.271 225.272L638.509 134.397L658.631 133.342L660.269 139.765C664.196 136.869 668.249 134.704 672.426 133.27C676.685 131.745 680.286 130.905 683.229 130.751L689.071 130.445C694.956 130.137 699.766 131.664 703.501 135.026C707.235 138.389 709.256 143.013 709.565 148.898L711.13 178.757C711.47 185.248 709.877 190.452 706.35 194.368C702.906 198.194 697.938 200.277 691.447 200.617L664.833 202.012ZM800.771 125.893L804.377 194.698L781.658 195.889L780.535 174.469L769.5 175.047L758.29 197.114L734.273 198.372L746.064 174.973C742.361 173.866 739.39 171.808 737.149 168.801C734.909 165.795 733.668 161.998 733.428 157.411L732.986 148.972C732.677 143.087 734.204 138.277 737.567 134.543C740.929 130.808 745.553 128.787 751.438 128.478L800.771 125.893ZM760.078 144.298C758.78 144.366 757.721 144.855 756.901 145.766C756.08 146.677 755.704 147.781 755.772 149.08L756.079 154.922C756.147 156.22 756.636 157.279 757.547 158.099C758.458 158.919 759.562 159.295 760.86 159.227L779.685 158.241L778.902 143.311L760.078 144.298ZM945.203 124.832C945.588 132.189 942.806 138.714 936.856 144.406C935.038 146.15 933.047 147.904 930.883 149.666L904.026 171.251L947.516 168.972L948.469 187.147L878.365 190.821L877.072 166.155L922.039 129.952L921.699 123.461C921.427 118.268 918.694 115.807 913.501 116.08L877.151 117.985L876.199 99.8096L917.742 97.6324C926.829 97.1561 933.516 98.8886 937.801 102.83C942.169 106.68 944.591 113.148 945.067 122.236L945.203 124.832ZM1020.28 116.993C1020 111.8 1017.27 109.339 1012.08 109.612L997.797 110.36C992.604 110.632 990.144 113.365 990.416 118.558L992.593 160.101C992.865 165.293 995.598 167.754 1000.79 167.482L1015.07 166.733C1020.26 166.461 1022.72 163.729 1022.45 158.536L1020.28 116.993ZM1045.82 157.311C1046.3 166.399 1044.57 173.128 1040.63 177.5C1036.78 181.781 1030.3 184.16 1021.22 184.636L996.55 185.929C987.463 186.405 980.735 184.718 976.368 180.868C972.082 176.927 969.702 170.413 969.225 161.325L967.048 119.782C966.572 110.695 968.261 104.01 972.116 99.7295C976.052 95.3575 982.564 92.9334 991.652 92.4571L1016.32 91.1644C1025.41 90.6882 1032.09 92.4206 1036.38 96.3617C1040.74 100.212 1043.17 106.681 1043.64 115.768L1045.82 157.311ZM1134.71 114.901C1135.1 122.257 1132.32 128.782 1126.37 134.474C1124.55 136.219 1122.56 137.972 1120.39 139.734L1093.54 161.319L1137.03 159.04L1137.98 177.215L1067.87 180.889L1066.58 156.223L1111.55 120.02L1111.21 113.529C1110.94 108.336 1108.2 105.876 1103.01 106.148L1066.66 108.053L1065.71 89.8778L1107.25 87.7006C1116.34 87.2243 1123.03 88.9568 1127.31 92.8979C1131.68 96.7479 1134.1 103.217 1134.58 112.304L1134.71 114.901ZM1205.53 174.977C1191.08 175.734 1175.02 175.708 1157.36 174.897L1156.44 157.372C1175.64 157.667 1189.95 157.568 1199.39 157.074C1201.38 156.969 1202.91 156.325 1203.97 155.141C1205.12 153.866 1205.64 152.233 1205.54 150.242L1205.2 143.751C1204.93 138.558 1202.19 136.098 1197 136.37L1159.35 138.343L1156.56 85.1163L1218.88 81.8505L1219.83 100.026L1180.88 102.067L1181.77 118.944L1202.54 117.855C1211.02 117.41 1217.35 119.031 1221.54 122.717C1225.72 126.317 1228.02 132.054 1228.43 139.93L1228.91 149.018C1229.35 157.499 1227.69 163.835 1223.91 168.025C1220.14 172.215 1214.01 174.532 1205.53 174.977Z" fill="url(#paint0_linear_25_346)"/>
</g>
<g filter="url(#filter1_n_25_346)">
<path d="M75.7671 158.874C76.1527 166.23 73.3703 172.755 67.4201 178.447C65.6022 180.191 63.6112 181.945 61.4472 183.707L34.5901 205.292L78.0804 203.013L79.0329 221.188L8.92909 224.862L7.63639 200.196L52.6033 163.993L52.2631 157.502C51.991 152.309 49.2585 149.848 44.0656 150.121L7.71547 152.026L6.76295 133.851L48.3059 131.673C57.3935 131.197 64.08 132.93 68.3654 136.871C72.7329 140.721 75.1548 147.19 75.631 156.277L75.7671 158.874ZM129.036 182.117C123.843 182.39 121.383 185.122 121.655 190.315L121.927 195.508C122.032 197.498 122.678 199.07 123.867 200.223C125.137 201.284 126.768 201.763 128.759 201.659L148.232 200.638C150.223 200.534 151.751 199.89 152.817 198.706C153.965 197.43 154.487 195.798 154.383 193.807L154.111 188.614C153.839 183.421 151.106 180.961 145.913 181.233L129.036 182.117ZM129.66 144.333C124.467 144.605 122.006 147.338 122.279 152.531L122.483 156.425C122.755 161.618 125.487 164.078 130.68 163.806L142.364 163.194C147.557 162.922 150.017 160.189 149.745 154.996L149.541 151.102C149.269 145.909 146.537 143.449 141.344 143.721L129.66 144.333ZM177.751 192.582C178.195 201.064 176.531 207.4 172.759 211.59C168.986 215.779 162.859 218.097 154.377 218.541L124.518 220.106C116.037 220.55 109.701 218.886 105.511 215.114C101.321 211.341 99.0039 205.214 98.5594 196.733L98.4914 195.434C98.1467 188.857 99.5053 183.318 102.567 178.818C104.982 175.22 108.408 172.697 112.845 171.25C108.883 170.156 105.606 168.071 103.015 164.996C100.505 161.83 99.1148 157.65 98.8426 152.457L98.7746 151.159C98.3618 143.283 100.046 137.337 103.828 133.32C107.605 129.217 113.734 126.943 122.216 126.498L146.882 125.205C155.364 124.761 161.697 126.382 165.883 130.068C170.064 133.667 172.36 139.405 172.773 147.281L172.841 148.579C173.113 153.772 172.124 158.076 169.873 161.492C167.704 164.817 164.706 167.23 160.879 168.733C167.99 170.269 172.995 174.693 175.895 182.005C176.901 184.643 177.497 187.736 177.683 191.284L177.751 192.582ZM298.044 166.1L296.717 140.785L319.436 139.594L323.042 208.4L300.323 209.591L298.963 183.626L275.595 184.851L276.955 210.815L254.237 212.006L250.631 143.2L273.349 142.01L274.676 167.325L298.044 166.1ZM418.075 183.893C418.415 190.384 416.822 195.588 413.295 199.504C409.851 203.33 404.883 205.413 398.392 205.753L368.533 207.318C362.042 207.658 356.84 206.108 352.928 202.668C349.098 199.137 347.013 194.126 346.673 187.635L345.108 157.776C344.768 151.285 346.32 146.126 349.764 142.301C353.291 138.384 358.3 136.256 364.791 135.916L394.65 134.351C401.141 134.011 406.301 135.606 410.131 139.137C414.043 142.577 416.17 147.543 416.51 154.034L418.075 183.893ZM393.893 157.172C393.712 153.71 391.89 152.07 388.428 152.251L372.849 153.067C369.387 153.249 367.747 155.071 367.929 158.532L369.289 184.497C369.471 187.959 371.292 189.599 374.754 189.418L390.333 188.601C393.795 188.42 395.435 186.598 395.254 183.136L393.893 157.172ZM507.647 129.731L511.253 198.536L488.535 199.727L487.412 178.306L476.377 178.885L465.167 200.952L441.15 202.21L452.941 178.811C449.238 177.703 446.266 175.646 444.026 172.639C441.785 169.632 440.545 165.835 440.305 161.248L439.862 152.81C439.554 146.925 441.081 142.115 444.444 138.38C447.806 134.646 452.43 132.625 458.315 132.316L507.647 129.731ZM466.955 148.136C465.657 148.204 464.598 148.693 463.777 149.604C462.957 150.515 462.581 151.619 462.649 152.917L462.955 158.759C463.023 160.058 463.513 161.117 464.424 161.937C465.335 162.757 466.439 163.133 467.737 163.065L486.561 162.079L485.779 147.149L466.955 148.136ZM555.66 138.931C563.964 136.76 571.276 135.509 577.594 135.177L583.436 134.871C589.321 134.563 594.131 136.09 597.865 139.452C601.6 142.815 603.621 147.439 603.929 153.324L605.018 174.096C605.358 180.587 603.765 185.79 600.238 189.707C596.794 193.533 591.826 195.615 585.335 195.956L556.774 197.452C550.283 197.793 545.082 196.243 541.17 192.803C537.339 189.272 535.254 184.261 534.914 177.77L532.499 131.683C532.172 125.451 533.975 120.106 537.907 115.648C541.926 111.185 547.504 108.332 554.642 107.09L598.509 99.584L601.409 117.657L561.403 124.31C557.102 125.056 555.052 127.333 555.252 131.141L555.66 138.931ZM577.276 178.804C580.738 178.622 582.379 176.801 582.197 173.339L581.347 157.111C581.279 155.813 580.789 154.754 579.878 153.934C578.968 153.113 577.863 152.737 576.565 152.805L572.021 153.044C568.646 153.22 565.626 153.552 562.961 154.039C560.296 154.526 558.146 154.899 556.51 155.158L557.531 174.632C557.712 178.093 559.534 179.734 562.996 179.552L577.276 178.804ZM665.062 139.055C660.475 139.295 655.328 140.433 649.62 142.468L651.252 173.625L670.726 172.605C674.188 172.423 675.828 170.601 675.646 167.14L674.388 143.123C674.32 141.824 673.83 140.765 672.919 139.945C672.009 139.125 670.904 138.749 669.606 138.817L665.062 139.055ZM652.171 191.151L653.328 213.221L630.609 214.411L625.846 123.536L645.969 122.482L647.607 128.905C651.534 126.008 655.586 123.843 659.764 122.41C664.023 120.885 667.624 120.045 670.567 119.891L676.409 119.585C682.294 119.276 687.104 120.803 690.838 124.166C694.573 127.528 696.594 132.152 696.902 138.037L698.467 167.896C698.808 174.387 697.214 179.591 693.688 183.508C690.243 187.333 685.275 189.416 678.784 189.756L652.171 191.151ZM788.108 115.032L791.714 183.838L768.995 185.029L767.873 163.608L756.838 164.186L745.627 186.253L721.61 187.512L733.402 164.113C729.699 163.005 726.727 160.948 724.487 157.941C722.246 154.934 721.006 151.137 720.765 146.55L720.323 138.112C720.015 132.226 721.542 127.416 724.904 123.682C728.267 119.948 732.891 117.926 738.776 117.618L788.108 115.032ZM747.416 133.437C746.117 133.505 745.058 133.995 744.238 134.906C743.418 135.816 743.042 136.921 743.11 138.219L743.416 144.061C743.484 145.359 743.974 146.419 744.885 147.239C745.795 148.059 746.9 148.435 748.198 148.367L767.022 147.38L766.24 132.451L747.416 133.437ZM932.541 113.972C932.926 121.328 930.144 127.853 924.193 133.546C922.376 135.29 920.385 137.043 918.221 138.805L891.363 160.391L934.854 158.111L935.806 176.286L865.702 179.96L864.41 155.294L909.377 119.091L909.037 112.6C908.764 107.407 906.032 104.947 900.839 105.219L864.489 107.124L863.536 88.949L905.079 86.7718C914.167 86.2956 920.853 88.028 925.139 91.9691C929.506 95.8192 931.928 102.288 932.404 111.375L932.541 113.972ZM1007.61 106.132C1007.34 100.939 1004.61 98.479 999.415 98.7511L985.135 99.4995C979.942 99.7717 977.482 102.504 977.754 107.697L979.931 149.24C980.203 154.433 982.936 156.893 988.128 156.621L1002.41 155.873C1007.6 155.601 1010.06 152.868 1009.79 147.675L1007.61 106.132ZM1033.16 146.451C1033.63 155.538 1031.9 162.268 1027.97 166.64C1024.11 170.921 1017.64 173.299 1008.55 173.776L983.888 175.068C974.801 175.545 968.073 173.858 963.706 170.008C959.42 166.067 957.039 159.552 956.563 150.465L954.386 108.922C953.91 99.8342 955.599 93.1499 959.453 88.869C963.39 84.497 969.902 82.0729 978.989 81.5966L1003.66 80.3039C1012.74 79.8276 1019.43 81.5601 1023.72 85.5012C1028.08 89.3512 1030.5 95.82 1030.98 104.908L1033.16 146.451ZM1122.05 104.04C1122.44 111.397 1119.65 117.921 1113.7 123.614C1111.89 125.358 1109.89 127.111 1107.73 128.874L1080.87 150.459L1124.36 148.18L1125.32 166.355L1055.21 170.029L1053.92 145.362L1098.89 109.159L1098.55 102.668C1098.27 97.4755 1095.54 95.0151 1090.35 95.2873L1054 97.1923L1053.05 79.0172L1094.59 76.8401C1103.68 76.3638 1110.36 78.0962 1114.65 82.0374C1119.02 85.8874 1121.44 92.3562 1121.91 101.444L1122.05 104.04ZM1192.87 164.116C1178.42 164.873 1162.36 164.847 1144.7 164.037L1143.78 146.511C1162.98 146.807 1177.29 146.707 1186.73 146.213C1188.72 146.109 1190.24 145.465 1191.31 144.28C1192.46 143.005 1192.98 141.372 1192.88 139.382L1192.54 132.891C1192.26 127.698 1189.53 125.237 1184.34 125.51L1146.69 127.483L1143.9 74.2557L1206.22 70.99L1207.17 89.165L1168.22 91.2061L1169.11 108.083L1189.88 106.994C1198.36 106.55 1204.69 108.171 1208.88 111.857C1213.06 115.456 1215.36 121.194 1215.77 129.07L1216.24 138.157C1216.69 146.639 1215.02 152.975 1211.25 157.164C1207.48 161.354 1201.35 163.671 1192.87 164.116Z" fill="url(#paint1_linear_25_346)"/>
</g>
<g opacity="0.5" filter="url(#filter2_n_25_346)">
<path d="M218.472 31.5676C223.312 49.3619 230.19 66.5345 238.985 82.7223C256.017 89.7875 273.82 94.852 292.039 97.8081C274.244 102.649 257.073 109.525 240.884 118.321C233.821 135.351 228.771 153.158 225.816 171.375C220.975 153.578 214.083 136.411 205.286 120.221C188.256 113.158 170.448 108.09 152.231 105.135C170.031 100.294 187.192 93.3868 203.384 84.5881C210.441 67.5662 215.518 49.7746 218.472 31.5676Z" fill="#FFDD00"/>
</g>
<g filter="url(#filter3_dn_25_346)">
<path d="M204.904 24C209.744 41.7943 216.622 58.967 225.417 75.1547C242.449 82.2199 260.253 87.2844 278.472 90.2405C260.677 95.0812 243.505 101.958 227.317 110.754C220.253 127.784 215.204 145.591 212.248 163.807C207.407 146.01 200.515 128.843 191.718 112.653C174.688 105.59 156.88 100.523 138.664 97.5676C156.463 92.726 173.624 85.8193 189.816 77.0205C196.874 59.9986 201.95 42.207 204.904 24Z" fill="#FFDD00"/>
</g>
<defs>
<filter id="filter0_n_25_346" x="13.9964" y="78.2648" width="1217.29" height="179.667" filterUnits="userSpaceOnUse" color-interpolation-filters="sRGB">
<feFlood flood-opacity="0" result="BackgroundImageFix"/>
<feBlend mode="normal" in="SourceGraphic" in2="BackgroundImageFix" result="shape"/>
<feTurbulence type="fractalNoise" baseFrequency="1.25 1.25" stitchTiles="stitch" numOctaves="3" result="noise" seed="2605" />
<feColorMatrix in="noise" type="luminanceToAlpha" result="alphaNoise" />
<feComponentTransfer in="alphaNoise" result="coloredNoise1">
<feFuncA type="discrete" tableValues="1 1 1 1 1 1 1 1 1 1 1 1 1 1 1 1 1 1 1 1 1 1 1 1 1 1 1 1 1 1 1 1 1 1 1 1 1 1 1 1 1 1 1 1 1 1 1 1 1 1 1 0 0 0 0 0 0 0 0 0 0 0 0 0 0 0 0 0 0 0 0 0 0 0 0 0 0 0 0 0 0 0 0 0 0 0 0 0 0 0 0 0 0 0 0 0 0 0 0 0 "/>
</feComponentTransfer>
<feComposite operator="in" in2="shape" in="coloredNoise1" result="noise1Clipped" />
<feFlood flood-color="rgba(0, 0, 0, 0.3)" result="color1Flood" />
<feComposite operator="in" in2="noise1Clipped" in="color1Flood" result="color1" />
<feMerge result="effect1_noise_25_346">
<feMergeNode in="shape" />
<feMergeNode in="color1" />
</feMerge>
</filter>
<filter id="filter1_n_25_346" x="3.9964" y="67.4042" width="1214.63" height="179.527" filterUnits="userSpaceOnUse" color-interpolation-filters="sRGB">
<feFlood flood-opacity="0" result="BackgroundImageFix"/>
<feBlend mode="normal" in="SourceGraphic" in2="BackgroundImageFix" result="shape"/>
<feTurbulence type="fractalNoise" baseFrequency="2 2" stitchTiles="stitch" numOctaves="3" result="noise" seed="2605" />
<feColorMatrix in="noise" type="luminanceToAlpha" result="alphaNoise" />
<feComponentTransfer in="alphaNoise" result="coloredNoise1">
<feFuncA type="discrete" tableValues="1 1 1 1 1 1 1 1 1 1 1 1 1 1 1 1 1 1 1 1 1 1 1 1 1 1 1 1 1 1 1 1 1 1 1 1 1 1 1 1 1 1 1 1 1 1 1 1 1 1 1 0 0 0 0 0 0 0 0 0 0 0 0 0 0 0 0 0 0 0 0 0 0 0 0 0 0 0 0 0 0 0 0 0 0 0 0 0 0 0 0 0 0 0 0 0 0 0 0 0 "/>
</feComponentTransfer>
<feComposite operator="in" in2="shape" in="coloredNoise1" result="noise1Clipped" />
<feFlood flood-color="rgba(0, 0, 0, 0.3)" result="color1Flood" />
<feComposite operator="in" in2="noise1Clipped" in="color1Flood" result="color1" />
<feMerge result="effect1_noise_25_346">
<feMergeNode in="shape" />
<feMergeNode in="color1" />
</feMerge>
</filter>
<filter id="filter2_n_25_346" x="152.231" y="31.5676" width="139.808" height="139.807" filterUnits="userSpaceOnUse" color-interpolation-filters="sRGB">
<feFlood flood-opacity="0" result="BackgroundImageFix"/>
<feBlend mode="normal" in="SourceGraphic" in2="BackgroundImageFix" result="shape"/>
<feTurbulence type="fractalNoise" baseFrequency="2 2" stitchTiles="stitch" numOctaves="3" result="noise" seed="9370" />
<feColorMatrix in="noise" type="luminanceToAlpha" result="alphaNoise" />
<feComponentTransfer in="alphaNoise" result="coloredNoise1">
<feFuncA type="discrete" tableValues="1 1 1 1 1 1 1 1 1 1 1 1 1 1 1 1 1 1 1 1 1 1 1 1 1 1 1 1 1 1 1 1 1 1 1 1 1 1 1 1 1 1 1 1 1 1 1 1 1 1 1 0 0 0 0 0 0 0 0 0 0 0 0 0 0 0 0 0 0 0 0 0 0 0 0 0 0 0 0 0 0 0 0 0 0 0 0 0 0 0 0 0 0 0 0 0 0 0 0 0 "/>
</feComponentTransfer>
<feComposite operator="in" in2="shape" in="coloredNoise1" result="noise1Clipped" />
<feFlood flood-color="rgba(0, 0, 0, 0.3)" result="color1Flood" />
<feComposite operator="in" in2="noise1Clipped" in="color1Flood" result="color1" />
<feMerge result="effect1_noise_25_346">
<feMergeNode in="shape" />
<feMergeNode in="color1" />
</feMerge>
</filter>
<filter id="filter3_dn_25_346" x="114.664" y="0" width="187.808" height="187.807" filterUnits="userSpaceOnUse" color-interpolation-filters="sRGB">
<feFlood flood-opacity="0" result="BackgroundImageFix"/>
<feColorMatrix in="SourceAlpha" type="matrix" values="0 0 0 0 0 0 0 0 0 0 0 0 0 0 0 0 0 0 127 0" result="hardAlpha"/>
<feOffset/>
<feGaussianBlur stdDeviation="12"/>
<feComposite in2="hardAlpha" operator="out"/>
<feColorMatrix type="matrix" values="0 0 0 0 1 0 0 0 0 1 0 0 0 0 1 0 0 0 1 0"/>
<feBlend mode="normal" in2="BackgroundImageFix" result="effect1_dropShadow_25_346"/>
<feBlend mode="normal" in="SourceGraphic" in2="BackgroundImageFix" result="shape"/>
<feTurbulence type="fractalNoise" baseFrequency="2 2" stitchTiles="stitch" numOctaves="3" result="noise" seed="9370" />
<feColorMatrix in="noise" type="luminanceToAlpha" result="alphaNoise" />
<feComponentTransfer in="alphaNoise" result="coloredNoise1">
<feFuncA type="discrete" tableValues="1 1 1 1 1 1 1 1 1 1 1 1 1 1 1 1 1 1 1 1 1 1 1 1 1 1 1 1 1 1 1 1 1 1 1 1 1 1 1 1 1 1 1 1 1 1 1 1 1 1 1 0 0 0 0 0 0 0 0 0 0 0 0 0 0 0 0 0 0 0 0 0 0 0 0 0 0 0 0 0 0 0 0 0 0 0 0 0 0 0 0 0 0 0 0 0 0 0 0 0 "/>
</feComponentTransfer>
<feComposite operator="in" in2="shape" in="coloredNoise1" result="noise1Clipped" />
<feFlood flood-color="rgba(0, 0, 0, 0.3)" result="color1Flood" />
<feComposite operator="in" in2="noise1Clipped" in="color1Flood" result="color1" />
<feMerge result="effect2_noise_25_346">
<feMergeNode in="shape" />
<feMergeNode in="color1" />
</feMerge>
<feBlend mode="normal" in="effect2_noise_25_346" in2="effect1_dropShadow_25_346" result="effect2_noise_25_346"/>
</filter>
<linearGradient id="paint0_linear_25_346" x1="787.275" y1="80.3857" x2="740.635" y2="160.151" gradientUnits="userSpaceOnUse">
<stop stop-color="#B25AFF"/>
<stop offset="1" stop-color="#FFD300"/>
</linearGradient>
<linearGradient id="paint1_linear_25_346" x1="775.362" y1="69.4858" x2="728.667" y2="149.139" gradientUnits="userSpaceOnUse">
<stop stop-color="#B25AFF"/>
<stop offset="1" stop-color="#FFD300"/>
</linearGradient>
</defs>
</svg>
