<svg width="48" height="48" viewBox="0 0 48 48" fill="none" xmlns="http://www.w3.org/2000/svg">
<g clip-path="url(#clip0_2002_153)">
<path fill-rule="evenodd" clip-rule="evenodd" d="M6.2964 6.2964C10.493 2.09977 16.553 0 24 0C31.447 0 37.5069 2.09977 41.7038 6.2964C45.9003 10.493 48 16.553 48 24C48 31.447 45.9003 37.5069 41.7038 41.7038C37.5069 45.9003 31.447 48 24 48C16.553 48 10.493 45.9003 6.2964 41.7038C2.09977 37.5069 0 31.447 0 24C0 16.553 2.09977 10.493 6.2964 6.2964ZM23.3168 10.842C22.7471 10.8398 22.1999 11.0645 21.7963 11.4667C21.3926 11.8688 21.1657 12.4151 21.1657 12.9848V23.74C20.4256 23.5182 19.6266 23.4145 18.7943 23.4145C16.8971 23.4145 15.1728 23.9534 13.9245 25.2017C12.6762 26.45 12.1373 28.1743 12.1373 30.0715C12.1373 31.9687 12.6762 33.693 13.9245 34.9413C15.1728 36.1896 16.8971 36.7286 18.7943 36.7286C20.6915 36.7286 22.4158 36.1896 23.6641 34.9413C24.9056 33.6997 25.4454 31.9874 25.4512 30.1023L25.4515 30.0724V15.3491C28.877 16.1923 31.5761 19.361 31.5761 22.89C31.5761 24.0734 32.5355 25.0328 33.7189 25.0328C34.9025 25.0328 35.8618 24.0734 35.8618 22.89C35.8618 16.3673 30.2642 10.9412 23.8328 10.8459C23.7403 10.8445 23.6086 10.8435 23.5063 10.8429L23.3725 10.8422L23.3321 10.842L23.3209 10.842H23.3168Z" fill="url(#paint0_linear_2002_153)"/>
</g>
<defs>
<linearGradient id="paint0_linear_2002_153" x1="23.5" y1="-4.73325e-08" x2="24.5" y2="49.5" gradientUnits="userSpaceOnUse">
<stop stop-color="#B06FFF"/>
<stop offset="1" stop-color="#1F71E5"/>
</linearGradient>
<clipPath id="clip0_2002_153">
<rect width="48" height="48" fill="white"/>
</clipPath>
</defs>
</svg>
