<svg width="1613" height="288" viewBox="0 0 1613 288" fill="none" xmlns="http://www.w3.org/2000/svg">
<g opacity="0.5" filter="url(#filter0_n_25_346)">
<path d="M80.1439 240.605C62.355 241.537 42.5929 241.505 20.8576 240.508L19.7271 218.937C43.3519 219.301 60.9697 219.179 72.5804 218.571C75.0304 218.442 76.9114 217.649 78.2236 216.192C79.6368 214.623 80.2791 212.613 80.1507 210.163L79.8158 203.772C79.4808 197.381 76.1177 194.352 69.7265 194.687L36.1726 196.446L35.0002 174.077L65.3586 172.485C71.7498 172.151 74.7779 168.787 74.443 162.396L74.2755 159.201C73.9406 152.809 70.5775 149.781 64.1863 150.116L17.8498 152.545L16.6775 130.175L71.003 127.328C81.442 126.781 89.2371 128.776 94.3882 133.313C99.5338 137.743 102.361 144.804 102.869 154.498C103.204 160.889 101.986 166.187 99.2153 170.391C96.5458 174.483 92.8562 177.453 88.1466 179.302C96.8975 181.193 103.058 186.639 106.627 195.637C107.865 198.884 108.599 202.691 108.828 207.058L108.911 208.656C109.458 219.095 107.41 226.893 102.767 232.049C98.124 237.206 90.583 240.058 80.1439 240.605ZM198.877 151.068C198.542 144.677 195.179 141.649 188.788 141.984L171.212 142.905C164.821 143.24 161.792 146.603 162.127 152.994L164.807 204.124C165.142 210.515 168.505 213.543 174.896 213.209L192.472 212.287C198.863 211.952 201.891 208.589 201.557 202.198L198.877 151.068ZM230.317 200.691C230.903 211.876 228.774 220.158 223.929 225.539C219.185 230.808 211.22 233.736 200.036 234.322L169.677 235.913C158.493 236.499 150.213 234.423 144.837 229.684C139.563 224.834 136.633 216.816 136.046 205.631L133.367 154.502C132.781 143.317 134.86 135.09 139.604 129.821C144.449 124.44 152.464 121.457 163.648 120.871L194.007 119.28C205.191 118.693 213.421 120.826 218.695 125.676C224.071 130.415 227.051 138.376 227.637 149.561L230.317 200.691ZM411.161 197.622C411.579 205.611 409.618 212.016 405.278 216.836C401.039 221.545 394.924 224.108 386.935 224.527L350.186 226.453C342.197 226.871 335.795 224.964 330.98 220.73C326.266 216.384 323.7 210.217 323.281 202.228L321.355 165.478C320.936 157.489 322.847 151.14 327.086 146.432C331.427 141.612 337.591 138.992 345.58 138.573L382.33 136.647C390.319 136.229 396.67 138.192 401.384 142.538C406.199 146.772 408.816 152.883 409.235 160.872L411.161 197.622ZM381.399 164.735C381.175 160.474 378.933 158.455 374.672 158.678L355.499 159.683C351.238 159.906 349.219 162.149 349.442 166.409L351.117 198.366C351.34 202.626 353.583 204.645 357.843 204.422L377.017 203.417C381.278 203.194 383.297 200.952 383.073 196.691L381.399 164.735ZM481.027 185.95L469.043 186.578L470.718 218.534L442.756 219.999L438.318 135.315L466.28 133.85L467.913 165.007L480.695 164.337L488.562 146.301C491.4 139.316 496.164 134.42 502.853 131.613C505.258 130.632 507.579 130.083 509.816 129.966C513.438 129.776 516.754 129.87 519.764 130.246L523.801 130.835L524.931 152.406L519.339 152.699C515.717 152.889 513.138 154.626 511.601 157.911L504.449 174.308L530.636 215.394L500.277 216.985L481.027 185.95ZM599.167 148.515L602.475 211.629L574.513 213.094L571.205 149.981L544.841 151.362L543.711 129.792L624.4 125.563L625.531 147.134L599.167 148.515ZM733.114 119.866L737.552 204.55L709.59 206.015L708.208 179.651L694.627 180.363L680.829 207.522L651.27 209.071L665.783 180.272C661.225 178.909 657.568 176.377 654.81 172.676C652.053 168.975 650.526 164.302 650.23 158.657L649.686 148.271C649.306 141.028 651.186 135.108 655.324 130.512C659.463 125.915 665.153 123.427 672.397 123.048L733.114 119.866ZM683.03 142.518C681.433 142.602 680.129 143.204 679.12 144.325C678.11 145.446 677.647 146.806 677.731 148.403L678.108 155.594C678.192 157.191 678.794 158.495 679.915 159.504C681.036 160.514 682.396 160.976 683.993 160.893L707.162 159.679L706.199 141.304L683.03 142.518ZM792.206 131.189C802.427 128.517 811.425 126.977 819.201 126.569L826.391 126.193C833.635 125.813 839.554 127.692 844.151 131.831C848.747 135.969 851.235 141.66 851.614 148.904L852.954 174.469C853.373 182.458 851.412 188.862 847.072 193.683C842.832 198.391 836.718 200.955 828.729 201.373L793.577 203.216C785.588 203.634 779.186 201.727 774.372 197.493C769.658 193.147 767.091 186.98 766.673 178.99L763.7 122.268C763.298 114.599 765.517 108.02 770.356 102.533C775.302 97.0399 782.168 93.5291 790.953 92.0005L844.944 82.7622L848.513 105.006L799.274 113.194C793.981 114.112 791.458 116.915 791.703 121.602L792.206 131.189ZM818.811 180.264C823.072 180.04 825.09 177.798 824.867 173.537L823.82 153.565C823.737 151.967 823.134 150.663 822.013 149.654C820.892 148.645 819.533 148.182 817.935 148.265L812.343 148.559C808.188 148.776 804.471 149.185 801.191 149.784C797.912 150.383 795.265 150.842 793.253 151.161L794.509 175.128C794.732 179.389 796.974 181.408 801.235 181.185L818.811 180.264ZM926.855 131.342C921.209 131.638 914.874 133.038 907.848 135.542L909.858 173.89L933.825 172.634C938.086 172.41 940.105 170.168 939.882 165.907L938.332 136.348C938.249 134.75 937.646 133.447 936.525 132.437C935.404 131.428 934.045 130.965 932.447 131.049L926.855 131.342ZM910.989 195.46L912.412 222.623L884.451 224.088L878.589 112.242L903.355 110.944L905.371 118.849C910.205 115.285 915.192 112.62 920.334 110.855C925.576 108.978 930.008 107.945 933.63 107.755L940.82 107.378C948.063 106.999 953.983 108.878 958.579 113.016C963.175 117.155 965.663 122.846 966.043 130.089L967.969 166.839C968.387 174.828 966.427 181.233 962.086 186.053C957.847 190.761 951.733 193.325 943.744 193.744L910.989 195.46ZM1078.3 101.776L1082.73 186.459L1054.77 187.925L1053.39 161.561L1039.81 162.273L1026.01 189.432L996.453 190.981L1010.97 162.182C1006.41 160.819 1002.75 158.287 999.993 154.586C997.235 150.885 995.709 146.212 995.413 140.566L994.868 130.181C994.489 122.937 996.368 117.018 1000.51 112.421C1004.65 107.825 1010.34 105.337 1017.58 104.958L1078.3 101.776ZM1028.21 124.428C1026.62 124.511 1025.31 125.114 1024.3 126.235C1023.29 127.356 1022.83 128.715 1022.91 130.313L1023.29 137.503C1023.37 139.101 1023.98 140.405 1025.1 141.414C1026.22 142.423 1027.58 142.886 1029.18 142.803L1052.34 141.588L1051.38 123.214L1028.21 124.428ZM1256.06 100.47C1256.53 109.525 1253.11 117.555 1245.79 124.561C1243.55 126.708 1241.1 128.866 1238.43 131.035L1205.38 157.601L1258.91 154.796L1260.08 177.165L1173.8 181.687L1172.21 151.329L1227.55 106.771L1227.13 98.782C1226.8 92.3908 1223.43 89.3627 1217.04 89.6976L1172.3 92.0423L1171.13 69.6729L1222.26 66.9933C1233.45 66.4072 1241.67 68.5394 1246.95 73.39C1252.32 78.1285 1255.31 86.0901 1255.89 97.2747L1256.06 100.47ZM1348.46 90.8215C1348.12 84.4302 1344.76 81.4021 1338.37 81.737L1320.79 82.6582C1314.4 82.9931 1311.37 86.3562 1311.71 92.7474L1314.39 143.877C1314.72 150.268 1318.08 153.297 1324.47 152.962L1342.05 152.041C1348.44 151.706 1351.47 148.343 1351.14 141.951L1348.46 90.8215ZM1379.9 140.444C1380.48 151.629 1378.35 159.911 1373.51 165.292C1368.76 170.561 1360.8 173.489 1349.61 174.075L1319.26 175.666C1308.07 176.252 1299.79 174.176 1294.42 169.437C1289.14 164.587 1286.21 156.569 1285.63 145.385L1282.95 94.2547C1282.36 83.0701 1284.44 74.8433 1289.18 69.5745C1294.03 64.1935 1302.04 61.21 1313.23 60.6238L1343.59 59.0328C1354.77 58.4466 1363 60.5789 1368.27 65.4295C1373.65 70.168 1376.63 78.1295 1377.22 89.3142L1379.9 140.444ZM1489.3 88.2466C1489.78 97.3009 1486.35 105.331 1479.03 112.337C1476.79 114.484 1474.34 116.642 1471.68 118.811L1438.62 145.377L1492.15 142.572L1493.32 164.941L1407.04 169.463L1405.45 139.105L1460.79 94.5473L1460.37 86.5583C1460.04 80.1671 1456.68 77.1389 1450.28 77.4739L1405.55 79.8185L1404.37 57.4492L1455.5 54.7696C1466.69 54.1835 1474.92 56.3157 1480.19 61.1663C1485.57 65.9048 1488.55 73.8664 1489.13 85.051L1489.3 88.2466ZM1576.47 162.186C1558.68 163.118 1538.91 163.086 1517.18 162.089L1516.05 140.518C1539.67 140.883 1557.29 140.76 1568.9 140.152C1571.35 140.023 1573.23 139.231 1574.55 137.773C1575.96 136.204 1576.6 134.194 1576.47 131.744L1576.05 123.755C1575.72 117.364 1572.36 114.336 1565.96 114.671L1519.63 117.099L1516.19 51.5889L1592.89 47.5695L1594.06 69.9388L1546.13 72.4509L1547.22 93.2224L1572.78 91.8826C1583.22 91.3356 1591.02 93.3303 1596.17 97.8669C1601.31 102.297 1604.14 109.359 1604.65 119.052L1605.23 130.237C1605.78 140.676 1603.73 148.474 1599.09 153.63C1594.45 158.787 1586.9 161.639 1576.47 162.186Z" fill="url(#paint0_linear_25_346)"/>
</g>
<g filter="url(#filter1_n_25_346)">
<path d="M70.1439 229.605C52.355 230.537 32.5929 230.505 10.8576 229.508L9.72714 207.937C33.3519 208.301 50.9697 208.179 62.5804 207.571C65.0304 207.442 66.9114 206.649 68.2236 205.192C69.6368 203.623 70.2791 201.613 70.1507 199.163L69.8158 192.772C69.4808 186.381 66.1177 183.352 59.7265 183.687L26.1726 185.446L25.0002 163.077L55.3586 161.485C61.7498 161.151 64.7779 157.787 64.443 151.396L64.2755 148.201C63.9406 141.809 60.5775 138.781 54.1863 139.116L7.84984 141.545L6.67752 119.175L61.003 116.328C71.442 115.781 79.2371 117.776 84.3882 122.313C89.5338 126.743 92.3606 133.804 92.8686 143.498C93.2035 149.889 91.9858 155.187 89.2153 159.391C86.5458 163.483 82.8562 166.453 78.1466 168.302C86.8975 170.193 93.0576 175.639 96.6268 184.637C97.8651 187.884 98.5987 191.691 98.8275 196.058L98.9113 197.656C99.4584 208.095 97.4103 215.893 92.7672 221.049C88.124 226.206 80.583 229.058 70.1439 229.605ZM188.877 140.068C188.542 133.677 185.179 130.649 178.788 130.984L161.212 131.905C154.821 132.24 151.792 135.603 152.127 141.994L154.807 193.124C155.142 199.515 158.505 202.543 164.896 202.209L182.472 201.287C188.863 200.952 191.891 197.589 191.557 191.198L188.877 140.068ZM220.317 189.691C220.903 200.876 218.774 209.158 213.929 214.539C209.185 219.808 201.22 222.736 190.036 223.322L159.677 224.913C148.493 225.499 140.213 223.423 134.837 218.684C129.563 213.834 126.633 205.816 126.046 194.631L123.367 143.502C122.781 132.317 124.86 124.09 129.604 118.821C134.449 113.44 142.464 110.457 153.648 109.871L184.007 108.28C195.191 107.693 203.421 109.826 208.695 114.676C214.071 119.415 217.051 127.376 217.637 138.561L220.317 189.691ZM401.161 186.622C401.579 194.611 399.618 201.016 395.278 205.836C391.039 210.545 384.924 213.108 376.935 213.527L340.186 215.453C332.197 215.871 325.795 213.964 320.98 209.73C316.266 205.384 313.7 199.217 313.281 191.228L311.355 154.478C310.936 146.489 312.847 140.14 317.086 135.432C321.427 130.612 327.591 127.992 335.58 127.573L372.33 125.647C380.319 125.229 386.67 127.192 391.384 131.538C396.199 135.772 398.816 141.883 399.235 149.872L401.161 186.622ZM371.399 153.735C371.175 149.474 368.933 147.455 364.672 147.678L345.499 148.683C341.238 148.906 339.219 151.149 339.442 155.409L341.117 187.366C341.34 191.626 343.583 193.645 347.843 193.422L367.017 192.417C371.278 192.194 373.297 189.952 373.073 185.691L371.399 153.735ZM471.027 174.95L459.043 175.578L460.718 207.534L432.756 208.999L428.318 124.315L456.28 122.85L457.913 154.007L470.695 153.337L478.562 135.301C481.4 128.316 486.164 123.42 492.853 120.613C495.258 119.632 497.579 119.083 499.816 118.966C503.438 118.776 506.754 118.87 509.764 119.246L513.801 119.835L514.931 141.406L509.339 141.699C505.717 141.889 503.138 143.626 501.601 146.911L494.449 163.308L520.636 204.394L490.277 205.985L471.027 174.95ZM589.167 137.515L592.475 200.629L564.513 202.094L561.205 138.981L534.841 140.362L533.711 118.792L614.4 114.563L615.531 136.134L589.167 137.515ZM723.114 108.866L727.552 193.55L699.59 195.015L698.208 168.651L684.627 169.363L670.829 196.522L641.27 198.071L655.783 169.272C651.225 167.909 647.568 165.377 644.81 161.676C642.053 157.975 640.526 153.302 640.23 147.657L639.686 137.271C639.306 130.028 641.186 124.108 645.324 119.512C649.463 114.915 655.153 112.427 662.397 112.048L723.114 108.866ZM673.03 131.518C671.433 131.602 670.129 132.204 669.12 133.325C668.11 134.446 667.647 135.806 667.731 137.403L668.108 144.594C668.192 146.191 668.794 147.495 669.915 148.504C671.036 149.514 672.396 149.976 673.993 149.893L697.162 148.679L696.199 130.304L673.03 131.518ZM782.206 120.189C792.427 117.517 801.425 115.977 809.201 115.569L816.391 115.193C823.635 114.813 829.554 116.692 834.151 120.831C838.747 124.969 841.235 130.66 841.614 137.904L842.954 163.469C843.373 171.458 841.412 177.862 837.072 182.683C832.832 187.391 826.718 189.955 818.729 190.373L783.577 192.216C775.588 192.634 769.186 190.727 764.372 186.493C759.658 182.147 757.091 175.98 756.673 167.99L753.7 111.268C753.298 103.599 755.517 97.0204 760.356 91.5329C765.302 86.0399 772.168 82.5291 780.953 81.0005L834.944 71.7622L838.513 94.0059L789.274 102.194C783.981 103.112 781.458 105.915 781.703 110.602L782.206 120.189ZM808.811 169.264C813.072 169.04 815.09 166.798 814.867 162.537L813.82 142.565C813.737 140.967 813.134 139.663 812.013 138.654C810.892 137.645 809.533 137.182 807.935 137.265L802.343 137.559C798.188 137.776 794.471 138.185 791.191 138.784C787.912 139.383 785.265 139.842 783.253 140.161L784.509 164.128C784.732 168.389 786.974 170.408 791.235 170.185L808.811 169.264ZM916.855 120.342C911.209 120.638 904.874 122.038 897.848 124.542L899.858 162.89L923.825 161.634C928.086 161.41 930.105 159.168 929.882 154.907L928.332 125.348C928.249 123.75 927.646 122.447 926.525 121.437C925.404 120.428 924.045 119.965 922.447 120.049L916.855 120.342ZM900.989 184.46L902.412 211.623L874.451 213.088L868.589 101.242L893.355 99.9438L895.371 107.849C900.205 104.285 905.192 101.62 910.334 99.8551C915.576 97.9782 920.008 96.9448 923.63 96.755L930.82 96.3782C938.063 95.9986 943.983 97.878 948.579 102.016C953.175 106.155 955.663 111.846 956.043 119.089L957.969 155.839C958.387 163.828 956.427 170.233 952.086 175.053C947.847 179.761 941.733 182.325 933.744 182.744L900.989 184.46ZM1068.3 90.7755L1072.73 175.459L1044.77 176.925L1043.39 150.561L1029.81 151.273L1016.01 178.432L986.453 179.981L1000.97 151.182C996.408 149.819 992.75 147.287 989.993 143.586C987.235 139.885 985.709 135.212 985.413 129.566L984.868 119.181C984.489 111.937 986.368 106.018 990.507 101.421C994.645 96.8251 1000.34 94.3372 1007.58 93.9576L1068.3 90.7755ZM1018.21 113.428C1016.62 113.511 1015.31 114.114 1014.3 115.235C1013.29 116.356 1012.83 117.715 1012.91 119.313L1013.29 126.503C1013.37 128.101 1013.98 129.405 1015.1 130.414C1016.22 131.423 1017.58 131.886 1019.18 131.803L1042.34 130.588L1041.38 112.214L1018.21 113.428ZM1246.06 89.4704C1246.53 98.5246 1243.11 106.555 1235.79 113.561C1233.55 115.708 1231.1 117.866 1228.43 120.035L1195.38 146.601L1248.91 143.796L1250.08 166.165L1163.8 170.687L1162.21 140.329L1217.55 95.7711L1217.13 87.782C1216.8 81.3908 1213.43 78.3627 1207.04 78.6976L1162.3 81.0423L1161.13 58.6729L1212.26 55.9933C1223.45 55.4072 1231.67 57.5394 1236.95 62.39C1242.32 67.1285 1245.31 75.0901 1245.89 86.2747L1246.06 89.4704ZM1338.46 79.8215C1338.12 73.4302 1334.76 70.4021 1328.37 70.737L1310.79 71.6582C1304.4 71.9931 1301.37 75.3562 1301.71 81.7474L1304.39 132.877C1304.72 139.268 1308.08 142.297 1314.47 141.962L1332.05 141.041C1338.44 140.706 1341.47 137.343 1341.14 130.951L1338.46 79.8215ZM1369.9 129.444C1370.48 140.629 1368.35 148.911 1363.51 154.292C1358.76 159.561 1350.8 162.489 1339.61 163.075L1309.26 164.666C1298.07 165.252 1289.79 163.176 1284.42 158.437C1279.14 153.587 1276.21 145.569 1275.63 134.385L1272.95 83.2547C1272.36 72.0701 1274.44 63.8433 1279.18 58.5745C1284.03 53.1935 1292.04 50.21 1303.23 49.6238L1333.59 48.0328C1344.77 47.4466 1353 49.5789 1358.27 54.4295C1363.65 59.168 1366.63 67.1295 1367.22 78.3142L1369.9 129.444ZM1479.3 77.2466C1479.78 86.3009 1476.35 94.3311 1469.03 101.337C1466.79 103.484 1464.34 105.642 1461.68 107.811L1428.62 134.377L1482.15 131.572L1483.32 153.941L1397.04 158.463L1395.45 128.105L1450.79 83.5473L1450.37 75.5583C1450.04 69.1671 1446.68 66.1389 1440.28 66.4739L1395.55 68.8185L1394.37 46.4492L1445.5 43.7696C1456.69 43.1835 1464.92 45.3157 1470.19 50.1663C1475.57 54.9048 1478.55 62.8664 1479.13 74.051L1479.3 77.2466ZM1566.47 151.186C1548.68 152.118 1528.91 152.086 1507.18 151.089L1506.05 129.518C1529.67 129.883 1547.29 129.76 1558.9 129.152C1561.35 129.023 1563.23 128.231 1564.55 126.773C1565.96 125.204 1566.6 123.194 1566.47 120.744L1566.05 112.755C1565.72 106.364 1562.36 103.336 1555.96 103.671L1509.63 106.099L1506.19 40.5889L1582.89 36.5695L1584.06 58.9388L1536.13 61.4509L1537.22 82.2224L1562.78 80.8826C1573.22 80.3356 1581.02 82.3303 1586.17 86.8669C1591.31 91.2971 1594.14 98.3588 1594.65 108.052L1595.23 119.237C1595.78 129.676 1593.73 137.474 1589.09 142.63C1584.45 147.787 1576.9 150.639 1566.47 151.186Z" fill="url(#paint1_linear_25_346)"/>
</g>
<defs>
<filter id="filter0_n_25_346" x="14.8704" y="43.1563" width="1593.29" height="226.112" filterUnits="userSpaceOnUse" color-interpolation-filters="sRGB">
<feFlood flood-opacity="0" result="BackgroundImageFix"/>
<feBlend mode="normal" in="SourceGraphic" in2="BackgroundImageFix" result="shape"/>
<feTurbulence type="fractalNoise" baseFrequency="1.25 1.25" stitchTiles="stitch" numOctaves="3" result="noise" seed="2605" />
<feColorMatrix in="noise" type="luminanceToAlpha" result="alphaNoise" />
<feComponentTransfer in="alphaNoise" result="coloredNoise1">
<feFuncA type="discrete" tableValues="1 1 1 1 1 1 1 1 1 1 1 1 1 1 1 1 1 1 1 1 1 1 1 1 1 1 1 1 1 1 1 1 1 1 1 1 1 1 1 1 1 1 1 1 1 1 1 1 1 1 1 0 0 0 0 0 0 0 0 0 0 0 0 0 0 0 0 0 0 0 0 0 0 0 0 0 0 0 0 0 0 0 0 0 0 0 0 0 0 0 0 0 0 0 0 0 0 0 0 0 "/>
</feComponentTransfer>
<feComposite operator="in" in2="shape" in="coloredNoise1" result="noise1Clipped" />
<feFlood flood-color="rgba(0, 0, 0, 0.3)" result="color1Flood" />
<feComposite operator="in" in2="noise1Clipped" in="color1Flood" result="color1" />
<feMerge result="effect1_noise_25_346">
<feMergeNode in="shape" />
<feMergeNode in="color1" />
</feMerge>
</filter>
<filter id="filter1_n_25_346" x="4.87036" y="32.1563" width="1593.29" height="226.112" filterUnits="userSpaceOnUse" color-interpolation-filters="sRGB">
<feFlood flood-opacity="0" result="BackgroundImageFix"/>
<feBlend mode="normal" in="SourceGraphic" in2="BackgroundImageFix" result="shape"/>
<feTurbulence type="fractalNoise" baseFrequency="2 2" stitchTiles="stitch" numOctaves="3" result="noise" seed="2605" />
<feColorMatrix in="noise" type="luminanceToAlpha" result="alphaNoise" />
<feComponentTransfer in="alphaNoise" result="coloredNoise1">
<feFuncA type="discrete" tableValues="1 1 1 1 1 1 1 1 1 1 1 1 1 1 1 1 1 1 1 1 1 1 1 1 1 1 1 1 1 1 1 1 1 1 1 1 1 1 1 1 1 1 1 1 1 1 1 1 1 1 1 0 0 0 0 0 0 0 0 0 0 0 0 0 0 0 0 0 0 0 0 0 0 0 0 0 0 0 0 0 0 0 0 0 0 0 0 0 0 0 0 0 0 0 0 0 0 0 0 0 "/>
</feComponentTransfer>
<feComposite operator="in" in2="shape" in="coloredNoise1" result="noise1Clipped" />
<feFlood flood-color="rgba(0, 0, 0, 0.3)" result="color1Flood" />
<feComposite operator="in" in2="noise1Clipped" in="color1Flood" result="color1" />
<feMerge result="effect1_noise_25_346">
<feMergeNode in="shape" />
<feMergeNode in="color1" />
</feMerge>
</filter>
<linearGradient id="paint0_linear_25_346" x1="1027" y1="48.5" x2="971.469" y2="149.949" gradientUnits="userSpaceOnUse">
<stop stop-color="#B25AFF"/>
<stop offset="1" stop-color="#FFD300"/>
</linearGradient>
<linearGradient id="paint1_linear_25_346" x1="1017" y1="37.5" x2="961.469" y2="138.949" gradientUnits="userSpaceOnUse">
<stop stop-color="#B25AFF"/>
<stop offset="1" stop-color="#FFD300"/>
</linearGradient>
</defs>
</svg>
